<?xml version="1.0" encoding="utf-8"?><!DOCTYPE svg PUBLIC "-//W3C//DTD SVG 1.1//EN" "http://www.w3.org/Graphics/SVG/1.1/DTD/svg11.dtd"><svg version="1.1" xmlns="http://www.w3.org/2000/svg" xmlns:xlink="http://www.w3.org/1999/xlink" x="0px" y="0px" viewBox="0 0 100 100" enable-background="new 0 0 100 100" xml:space="preserve"><path d="M30.729,57.915c5.941,7.138,11.883,14.276,17.824,21.414c0.438,0.524,0.951,0.715,1.447,0.681
	c0.496,0.034,1.011-0.156,1.447-0.681c5.941-7.138,11.883-14.276,17.824-21.414c1.1-1.319,0.461-3.494-1.446-3.494
	c-2.494,0-4.986,0-7.479,0c0-10.795,0-21.59,0-32.386c0-1.116-0.931-2.047-2.047-2.047c-5.531,0-11.064,0-16.598,0
	c-1.116,0-2.047,0.931-2.047,2.047c0,10.796,0,21.591,0,32.386c-2.493,0-4.985,0-7.479,0C30.268,54.421,29.629,56.596,30.729,57.915
	z"></path><path d="M50,100c27.614,0,50-22.386,50-50S77.614,0,50,0S0,22.386,0,50S22.386,100,50,100z M50,8c23.196,0,42,18.804,42,42
	c0,23.195-18.804,42-42,42C26.805,92,8,73.195,8,50C8,26.804,26.805,8,50,8z"></path></svg>