<?xml version="1.0" encoding="utf-8"?>
<!-- Generator: Adobe Illustrator 18.0.0, SVG Export Plug-In . SVG Version: 6.00 Build 0)  -->
<!DOCTYPE svg PUBLIC "-//W3C//DTD SVG 1.1//EN" "http://www.w3.org/Graphics/SVG/1.1/DTD/svg11.dtd">
<svg version="1.1" id="Layer_1" xmlns="http://www.w3.org/2000/svg" xmlns:xlink="http://www.w3.org/1999/xlink" x="0px" y="0px"
	 viewBox="5.5 257.1 449.6 230.1" enable-background="new 5.5 257.1 449.6 230.1" xml:space="preserve">
<text transform="matrix(1 0 0 1 111.087 463.4048)" fill="#6EACC1" font-family="'Aleo-Regular'" font-size="11.751">features</text>
<text transform="matrix(1 0 0 1 168.837 463.4043)" fill="#6EACC1" font-family="'Aleo-Regular'" font-size="11.751">technology</text>
<text transform="matrix(1 0 0 1 244.337 463.4044)" fill="#6EACC1" font-family="'Aleo-Regular'" font-size="11.751">credits</text>
<text transform="matrix(1 0 0 1 296.837 463.4044)" fill="#CAAD4D" font-family="'Aleo-Regular'" font-size="11.751">download</text>
<desc>Created with Sketch.</desc>
<rect id="Rectangle-path" x="104.3" y="282.6" fill="#212127" width="252.1" height="188.8"/>
<polyline id="Shape" fill="#212127" points="103.2,471.4 5.5,487.2 5.5,257.1 103.2,282.6 "/>
<polyline id="Shape_1_" fill="#212127" points="357.4,471.4 455.1,487.2 455.1,257.1 357.4,282.6 "/>
<polygon id="Shape_2_" fill="#CAAD4D" stroke="#CAAD4D" stroke-width="2" points="293.3,366.6 278.3,412.9 289.1,403.7 291.7,418.6 
	305.5,381.4 318.5,428.3 321.6,413.4 332.9,420.1 317.9,370.1 "/>
<polygon id="Shape_3_" fill="#6EACC1" stroke="#CAAD4D" stroke-width="16" points="279.9,330.4 304.9,316 329.8,330.4 329.8,359.2 
	304.9,373.7 279.9,359.2 "/>
<text transform="matrix(1 0 0 1 119.1156 327.0534)" fill="#6EACC1" font-family="'Aleo-Regular'" font-size="37.041">science</text>
<text transform="matrix(1 0 0 1 118.0863 362.5514)" fill="#CAAD4D" font-family="'Aleo-Regular'" font-size="37.041">fair</text>
<g>
	<rect id="path-1_1_" x="195.6" y="341.6" fill="none" stroke="#383838" stroke-width="2.4908" width="49.8" height="30.5"/>
	<rect id="path-3_1_" x="201.6" y="358.8" fill="#383838" stroke="#383838" stroke-width="1.2454" width="6.4" height="13.4"/>
	<rect id="path-5_1_" x="211.9" y="353.1" fill="#383838" stroke="#383838" stroke-width="1.2454" width="6.4" height="19.1"/>
	<rect id="path-7_1_" x="222.1" y="348.3" fill="#383838" stroke="#383838" stroke-width="1.2454" width="6.4" height="23.8"/>
	<rect id="path-9_1_" x="232.4" y="358.8" fill="#383838" stroke="#383838" stroke-width="1.2454" width="6.4" height="13.4"/>
</g>
<path id="Line_1_" fill="none" stroke="#383838" stroke-width="4" stroke-linecap="square" d="M19.8,291.3l69,12"/>
<path id="Line-Copy" fill="none" stroke="#383838" stroke-width="4" stroke-linecap="square" d="M20.3,318.8l68.5,7.5"/>
<path id="Line-Copy-2" fill="none" stroke="#383838" stroke-width="4" stroke-linecap="square" d="M20.3,344.8l68.5,4.5"/>
<path id="Line-Copy-3" fill="none" stroke="#383838" stroke-width="4" stroke-linecap="square" d="M20.3,372.3h68.5"/>
<polygon id="path-11_1_" fill="none" stroke="#383838" stroke-width="4" points="20.3,395.5 89.3,392.8 89.3,452.8 20.3,463.8 "/>
<circle id="Oval" fill="#383838" stroke="#383838" cx="36.3" cy="419.8" r="4"/>
<circle id="Oval-Copy" fill="#383838" stroke="#383838" cx="55.3" cy="427.8" r="4"/>
<circle id="Oval-Copy-2" fill="#383838" stroke="#383838" cx="73.3" cy="415.8" r="4"/>
<polyline id="Path-2" fill="none" stroke="#383838" stroke-width="2" points="22.6,426.5 36.5,420.1 55.6,428.2 74.1,415.4 
	87.9,405.4 "/>
<rect id="path-13_1_" x="8.3" y="277.8" fill="#212127" stroke="#212127" stroke-width="1.9195" width="11" height="110.5"/>
<rect id="path-15_1_" x="89.3" y="294.8" fill="#212127" stroke="#212127" stroke-width="1.8716" width="11" height="90.2"/>
<path id="Line_2_" fill="none" stroke="#383838" stroke-width="4" stroke-linecap="square" d="M439.8,291.3l-69,12"/>
<path id="Line-Copy_1_" fill="none" stroke="#383838" stroke-width="4" stroke-linecap="square" d="M440.3,318.8l-68.5,7.5"/>
<path id="Line-Copy-2_1_" fill="none" stroke="#383838" stroke-width="4" stroke-linecap="square" d="M440.3,344.8l-68.5,4.5"/>
<path id="Line-Copy-3_1_" fill="none" stroke="#383838" stroke-width="4" stroke-linecap="square" d="M440.3,372.3h-68.5"/>
<rect id="path-17_1_" x="440.3" y="270.8" fill="#212127" stroke="#212127" stroke-width="2" width="11" height="120"/>
<rect id="path-19_1_" x="359.3" y="294.8" fill="#212127" stroke="#212127" stroke-width="2" width="11" height="103"/>
<circle id="Oval-2" fill="#383838" stroke="#383838" cx="405.3" cy="423.8" r="7"/>
<path id="Line_3_" fill="none" stroke="#383838" stroke-width="2" stroke-linecap="square" d="M404.7,421.9l-25.4-17.1"/>
<path id="Line_4_" fill="none" stroke="#383838" stroke-width="2" stroke-linecap="square" d="M404.8,423.3l29.9-19.6"/>
<path id="Line_5_" fill="none" stroke="#383838" stroke-width="2" stroke-linecap="square" d="M405.3,422.3v-22.9"/>
<path id="Line_6_" fill="none" stroke="#383838" stroke-width="2" stroke-linecap="square" d="M404.8,423.3l-21.4,8"/>
<path id="Line_7_" fill="none" stroke="#383838" stroke-width="2" stroke-linecap="square" d="M404.8,423.3l19,17"/>
<path id="Line_8_" fill="none" stroke="#383838" stroke-width="2" stroke-linecap="square" d="M404.8,424.3l-7.4,34.2"/>
<circle id="Oval-3" fill="#383838" stroke="#383838" cx="379.3" cy="404.8" r="4"/>
<circle id="Oval-3-Copy" fill="#383838" stroke="#383838" cx="405.3" cy="396.8" r="4"/>
<circle id="Oval-3-Copy-2" fill="#383838" stroke="#383838" cx="397.3" cy="459.8" r="4"/>
<circle id="Oval-3-Copy-3" fill="#383838" stroke="#383838" cx="382.3" cy="431.8" r="4"/>
<circle id="Oval-3-Copy-4" fill="#383838" stroke="#383838" cx="424.3" cy="440.8" r="4"/>
<circle id="Oval-3-Copy-5" fill="#383838" stroke="#383838" cx="434.3" cy="403.8" r="4"/>
<text transform="matrix(1 0 0 1 119.1155 398.8021)"><tspan x="0" y="0" fill="#6EACC1" font-family="'OpenSans'" font-size="8.1734">Lorem ipsum dolor sit amet,</tspan><tspan x="0" y="9.8" fill="#6EACC1" font-family="'OpenSans'" font-size="8.1734">consectetur adipiscing elit, sed</tspan><tspan x="0" y="19.6" fill="#6EACC1" font-family="'OpenSans'" font-size="8.1734">do eiusmod tempor incididunt ut</tspan><tspan x="0" y="29.4" fill="#6EACC1" font-family="'OpenSans'" font-size="8.1734">labore et dolore magna aliqua.</tspan></text>
</svg>
