<svg width="57px" height="56px" viewBox="7 8 57 56" version="1.1" xmlns="http://www.w3.org/2000/svg" xmlns:xlink="http://www.w3.org/1999/xlink">
    <g id="Group" stroke="none" stroke-width="1" fill="none" fill-rule="evenodd" transform="translate(7.000000, 8.000000)">
        <path d="M11.164148,53.2258065 L23.570227,53.2258065 L31.882727,40.8064516 L23.570227,28.3870968 L11.164148,28.3870968 L2.85164803,40.8064516 L11.164148,53.2258065 Z M10.210852,26.6129032 L24.523523,26.6129032 L34.023523,40.8064516 L24.523523,55 L10.210852,55 L0.710851965,40.8064516 L10.210852,26.6129032 Z" id="Shape" fill="#eeeeee" fill-rule="nonzero"></path>
        <path d="M23.808551,27.0564516 L32.417926,14.1935484 L23.808551,1.33064516 L10.925824,1.33064516 L2.31644902,14.1935484 L10.925824,27.0564516 L23.808551,27.0564516 Z M1.24605098,14.1935484 L10.449176,0.443548387 L24.285199,0.443548387 L33.488324,14.1935484 L24.285199,27.9435484 L10.449176,27.9435484 L1.24605098,14.1935484 Z" id="Shape" fill="#eeeeee" fill-rule="nonzero"></path>
        <path d="M25.6524721,27.5 L33.6680971,39.4758065 L45.5975279,39.4758065 L53.6131529,27.5 L45.5975279,15.5241935 L33.6680971,15.5241935 L25.6524721,27.5 Z M47.0274721,12.8629032 L56.8243471,27.5 L47.0274721,42.1370968 L32.2381529,42.1370968 L22.4412779,27.5 L32.2381529,12.8629032 L47.0274721,12.8629032 Z" id="Shape" fill="#eeeeee" fill-rule="nonzero"></path>
    </g>
</svg>
