<?xml version="1.0" encoding="utf-8"?>
<!-- Generator: Adobe Illustrator 18.0.0, SVG Export Plug-In . SVG Version: 6.00 Build 0)  -->
<!DOCTYPE svg PUBLIC "-//W3C//DTD SVG 1.1//EN" "http://www.w3.org/Graphics/SVG/1.1/DTD/svg11.dtd">
<svg version="1.1" id="Layer_1" xmlns="http://www.w3.org/2000/svg" xmlns:xlink="http://www.w3.org/1999/xlink" x="0px" y="0px"
	 viewBox="0.5 189.9 612 365.4" enable-background="new 0.5 189.9 612 365.4" xml:space="preserve">
<g id="bg">
	<rect x="0.5" y="189.9" fill="#6EACC1" width="612" height="365.4"/>
</g>
<g id="board">
	<g>
		<g>
			
				<rect x="177.3" y="253.8" fill="#212127" stroke="#6EACC1" stroke-width="2" stroke-miterlimit="10" width="252.5" height="252.5"/>
			<polyline fill="#212127" stroke="#6EACC1" stroke-width="2" stroke-miterlimit="10" points="176.2,506.3 78.3,506.3 78.3,232.2 
				176.2,253.8 			"/>
			<polyline fill="#212127" stroke="#6EACC1" stroke-width="2" stroke-miterlimit="10" points="430.8,506.3 528.7,506.3 
				528.7,232.2 430.8,253.8 			"/>
		</g>
	</g>
</g>
<g id="rosette">
	<g id="ribbons">
	</g>
	<g>
		<polygon fill="#CAAD4D" stroke="#CAAD4D" stroke-width="2" stroke-miterlimit="10" points="362.3,324.9 347.3,371.3 358.1,362.1 
			360.7,377 374.5,339.7 387.5,386.7 390.6,371.8 402,378.5 386.9,328.4 		"/>
		<polygon fill="#6EACC1" stroke="#CAAD4D" stroke-width="16" stroke-miterlimit="10" points="348.9,288.7 373.9,274.2 398.9,288.7 
			398.9,317.5 373.9,332 348.9,317.5 		"/>
	</g>
</g>
<g id="text">
	<g>
		<g enable-background="new    ">
			<path fill="#6EACC1" d="M214.6,356.4c1.3,0,2.9,0.3,4.9,1v1.3v3.5h-1.4c-0.4,0-0.6-0.1-0.6-0.5c0-0.1-0.1-0.9-0.2-2.4
				c-1.1-0.3-2.1-0.4-2.9-0.4l0,0c-1,0-1.9,0.3-2.6,0.8c-0.7,0.5-1,1.1-1,1.7c0,0.6,0.1,1.1,0.4,1.4c0.5,0.6,1.2,1,2.1,1.3
				s1.7,0.5,2.3,0.7l1.8,0.7c0.6,0.2,1.1,0.6,1.6,1c1,0.8,1.5,1.9,1.5,3.3c0,1.8-0.6,3.2-1.8,4.3c-1.3,1.1-3,1.7-5,1.7
				s-4.1-0.3-6.1-1v-4.9h1.3c0.3,0,0.5,0.1,0.6,0.4c0,0.1,0.1,0.9,0.2,2.4c1,0.5,2.3,0.7,3.8,0.7c1.2,0,2.2-0.3,2.9-0.9
				c0.6-0.6,1-1.2,1-1.9s-0.1-1.2-0.4-1.6s-0.7-0.7-1.1-0.9s-1-0.4-1.6-0.6c-1.6-0.5-2.8-0.9-3.4-1.2c-0.6-0.3-1.2-0.7-1.7-1
				c-1-0.9-1.6-2-1.6-3.5s0.6-2.7,1.8-3.8C210.7,356.9,212.4,356.4,214.6,356.4L214.6,356.4z"/>
			<path fill="#6EACC1" d="M231.3,375.7c-2.4,0-4.3-0.9-5.9-2.6c-1.6-1.8-2.4-4.1-2.4-7.1c0-2.9,0.7-5.1,2.3-6.9
				c1.6-1.8,3.8-2.7,6.6-2.7c1.4,0,3.3,0.4,5.6,1.3v4.9H236c-0.4,0-0.6-0.1-0.6-0.5c0-0.1-0.1-0.6-0.1-1.4c-0.1-0.8-0.1-1.2-0.1-1.2
				c-0.6-0.2-1-0.3-1.3-0.3c-0.7-0.1-1.4-0.1-2.1-0.1c-0.7,0-1.4,0.2-2,0.5s-1.3,0.8-1.7,1.4c-1,1.3-1.4,3-1.4,5.2s0.5,4,1.5,5.3
				c1,1.2,2.3,1.9,4,1.9c1.6,0,2.9-0.5,4.1-1.6c0.2-0.2,0.5-0.3,0.7-0.3s0.4,0.1,0.6,0.3l0.9,1.2
				C236.7,374.7,234.4,375.7,231.3,375.7z"/>
			<path fill="#6EACC1" d="M248.9,373.8v1.6h-8.6v-1.6c0-0.3,0.2-0.6,0.6-0.7c0.4-0.1,2.1-0.4,2.1-0.4v-13.4c0,0-1.8-0.3-2.1-0.4
				s-0.6-0.4-0.6-0.7v-1.6h6v16c0,0,1.8,0.3,2.1,0.4S248.9,373.5,248.9,373.8z M242.4,351.7c-0.1-0.3-0.2-0.6-0.2-0.9
				c0-0.3,0-0.6,0.2-0.9c0.1-0.3,0.3-0.6,0.5-0.8s0.4-0.4,0.7-0.5s0.6-0.2,0.9-0.2c0.3,0,0.6,0,0.9,0.2c0.3,0.1,0.5,0.3,0.7,0.5
				s0.4,0.5,0.5,0.8s0.2,0.6,0.2,0.9c0,0.3-0.1,0.6-0.2,0.9s-0.3,0.5-0.5,0.7s-0.4,0.4-0.7,0.5s-0.6,0.2-0.9,0.2
				c-0.3,0-0.6,0-0.9-0.2c-0.3-0.1-0.5-0.3-0.7-0.5S242.6,352,242.4,351.7z"/>
			<path fill="#6EACC1" d="M259.3,356.4c1.1,0,2.1,0.2,3.1,0.6s1.8,0.9,2.4,1.6c0.6,0.7,1.3,1.6,1.6,2.6c0.4,1,0.6,2.2,0.6,3.6
				c0,0.5,0,0.9-0.1,1s-0.4,0.3-0.7,0.3h-12.4c0,1.2,0.1,2.2,0.4,3.1c0.3,0.9,0.7,1.6,1.3,2.1c0.6,0.5,1.1,1,1.9,1.3
				c0.7,0.3,1.5,0.4,2.4,0.4c0.8,0,1.6-0.1,2.1-0.3c0.6-0.2,1.1-0.4,1.6-0.6c0.5-0.2,0.8-0.4,1.1-0.6s0.5-0.3,0.7-0.3
				c0.3,0,0.5,0.1,0.6,0.3l0.9,1.2c-0.4,0.5-0.9,0.9-1.5,1.3c-0.6,0.4-1.1,0.7-1.8,0.9c-0.7,0.2-1.3,0.4-2,0.5s-1.4,0.2-2,0.2
				c-1.3,0-2.5-0.2-3.6-0.7c-1.1-0.4-2-1.1-2.9-2c-0.8-0.9-1.4-1.9-1.9-3.1c-0.4-1.3-0.7-2.7-0.7-4.3c0-1.3,0.2-2.5,0.6-3.6
				c0.4-1.1,1-2.1,1.7-3c0.7-0.8,1.7-1.5,2.8-2C256.6,356.4,258,356.4,259.3,356.4L259.3,356.4z M259.4,358.8
				c-1.6,0-2.9,0.4-3.7,1.4c-0.9,0.9-1.5,2.2-1.7,3.9h10.2c0-0.7-0.1-1.4-0.3-2.1c-0.2-0.6-0.5-1.2-0.9-1.7
				c-0.4-0.4-0.9-0.8-1.5-1.1C260.9,358.9,260.1,358.8,259.4,358.8L259.4,358.8z"/>
			<path fill="#6EACC1" d="M275,359.4c1.9-2,3.9-3,6.2-3c2,0,3.6,0.6,4.7,2c1,1.3,1.6,3,1.6,5.1v9.2c1.2,0.2,1.9,0.4,2.1,0.4
				c0.4,0.1,0.6,0.3,0.6,0.7v1.6h-6v-11.9c0-3-1.3-4.5-3.9-4.5c-1.9,0-3.6,0.9-5.1,2.6v11.1c0.1,0,0.8,0.1,2.1,0.4
				c0.4,0.1,0.6,0.3,0.6,0.7v1.6h-8.6v-1.6c0-0.4,0.1-0.6,0.5-0.7l2.1-0.4v-13.4c-1.2-0.2-1.9-0.4-2.1-0.4c-0.4-0.1-0.5-0.3-0.5-0.7
				v-1.6h2.7h1.9c0.4,0,0.7,0.2,0.9,0.7L275,359.4L275,359.4z"/>
			<path fill="#6EACC1" d="M300.3,375.7c-2.4,0-4.3-0.9-5.9-2.6c-1.6-1.8-2.4-4.1-2.4-7.1c0-2.9,0.7-5.1,2.3-6.9
				c1.6-1.8,3.8-2.7,6.6-2.7c1.4,0,3.3,0.4,5.6,1.3v4.9H305c-0.4,0-0.6-0.1-0.6-0.5c0-0.1-0.1-0.6-0.1-1.4c-0.1-0.8-0.1-1.2-0.1-1.2
				c-0.6-0.2-1-0.3-1.3-0.3c-0.7-0.1-1.4-0.1-2.1-0.1s-1.4,0.2-2,0.5s-1.3,0.8-1.7,1.4c-1,1.3-1.4,3-1.4,5.2s0.5,4,1.5,5.3
				c1,1.2,2.3,1.9,4,1.9c1.6,0,2.9-0.5,4.1-1.6c0.2-0.2,0.5-0.3,0.7-0.3s0.4,0.1,0.6,0.3l0.9,1.2
				C305.7,374.7,303.3,375.7,300.3,375.7z"/>
			<path fill="#6EACC1" d="M318.4,356.4c1.1,0,2.1,0.2,3.1,0.6s1.8,0.9,2.4,1.6c0.6,0.7,1.3,1.6,1.6,2.6c0.4,1,0.6,2.2,0.6,3.6
				c0,0.5,0,0.9-0.1,1s-0.4,0.3-0.7,0.3h-12.4c0,1.2,0.1,2.2,0.4,3.1c0.3,0.9,0.7,1.6,1.3,2.1c0.5,0.6,1.1,1,1.9,1.3
				c0.7,0.3,1.5,0.4,2.4,0.4c0.8,0,1.6-0.1,2.1-0.3c0.6-0.2,1.1-0.4,1.6-0.6c0.5-0.2,0.8-0.4,1.1-0.6c0.3-0.2,0.5-0.3,0.7-0.3
				c0.3,0,0.5,0.1,0.6,0.3l0.9,1.2c-0.4,0.5-0.9,0.9-1.5,1.3c-0.6,0.4-1.1,0.7-1.8,0.9s-1.3,0.4-2,0.5s-1.4,0.2-2,0.2
				c-1.3,0-2.5-0.2-3.6-0.7c-1.1-0.4-2-1.1-2.9-2c-0.8-0.9-1.4-1.9-1.9-3.1c-0.4-1.3-0.7-2.7-0.7-4.3c0-1.3,0.2-2.5,0.6-3.6
				s1-2.1,1.7-3s1.7-1.5,2.8-2S317.2,356.4,318.4,356.4L318.4,356.4z M318.6,358.8c-1.6,0-2.9,0.4-3.7,1.4c-0.9,0.9-1.5,2.2-1.7,3.9
				h10.2c0-0.7-0.1-1.4-0.3-2.1c-0.2-0.6-0.5-1.2-0.9-1.7c-0.4-0.4-0.9-0.8-1.5-1.1C320.1,358.9,319.3,358.8,318.6,358.8
				L318.6,358.8z"/>
		</g>
	</g>
	<g>
		<g enable-background="new    ">
			<path fill="#CAAD4D" d="M216.2,386.5c-2.5,0-3.8,1.4-3.8,4.3v1.7h5.4v2.4h-5.3v13.3c1.5,0.2,2.3,0.4,2.5,0.4
				c0.4,0.1,0.6,0.3,0.6,0.7v1.6h-9.2v-1.6c0-0.4,0.2-0.6,0.6-0.7l2.3-0.4V395l-2.1-0.3c-0.6-0.1-0.9-0.4-0.9-0.9v-1.2h3v-1.8
				c0-2.1,0.6-3.8,1.7-5c1.1-1.2,2.7-1.7,4.7-1.7c0.8,0,1.6,0.1,2.3,0.4l-0.1,1.7c0,0.2-0.1,0.4-0.3,0.4s-0.5,0.1-0.9,0.1h-0.5
				V386.5z"/>
			<path fill="#CAAD4D" d="M236.4,408.7c0.3,0.1,0.6,0.4,0.6,0.7v1.6h-2.4h-0.3h-1.2c-0.3,0-0.6-0.1-0.8-0.1
				c-0.2-0.1-0.3-0.3-0.4-0.6l-0.4-1.8c-0.5,0.4-1,0.9-1.5,1.2c-0.4,0.4-1,0.7-1.5,0.9s-1,0.4-1.6,0.6c-0.6,0.2-1.3,0.2-2,0.2
				s-1.4-0.1-2-0.3s-1.2-0.5-1.7-0.9c-0.4-0.4-0.8-0.9-1.1-1.6s-0.4-1.4-0.4-2.2c0-0.7,0.2-1.5,0.6-2.1c0.4-0.6,1.1-1.3,2-1.9
				c0.9-0.6,2.1-1,3.6-1.3s3.3-0.5,5.4-0.5v-1.4c0-1.5-0.3-2.6-1-3.3s-1.6-1.1-2.8-1.1c-0.8,0-1.5,0.1-2,0.3c-0.6,0.2-1,0.4-1.4,0.7
				s-0.8,0.4-1.1,0.7s-0.6,0.3-0.9,0.3c-0.2,0-0.4,0-0.6-0.1c-0.1-0.1-0.3-0.3-0.4-0.4l-0.6-1c1-1,2.1-1.7,3.3-2.2s2.5-0.7,4-0.7
				c1,0,2,0.1,2.8,0.5s1.5,0.8,2,1.4c0.5,0.6,1,1.3,1.3,2.2s0.4,1.9,0.4,2.9v9.4C235.1,408.4,236.2,408.7,236.4,408.7L236.4,408.7z
				 M231.3,402.5c-1.5,0-2.8,0.1-3.9,0.3c-1,0.2-1.9,0.5-2.6,0.8c-0.7,0.3-1.2,0.7-1.5,1.1s-0.4,0.9-0.4,1.4s0.1,0.9,0.3,1.3
				c0.1,0.4,0.4,0.7,0.7,0.9s0.6,0.4,1,0.5s0.8,0.2,1.2,0.2c0.6,0,1.1-0.1,1.6-0.2s0.9-0.3,1.4-0.5c0.4-0.2,0.9-0.5,1.2-0.8
				s0.7-0.7,1.1-1v-4H231.3z"/>
			<path fill="#CAAD4D" d="M247.7,409.4v1.6h-8.6v-1.6c0-0.3,0.2-0.6,0.6-0.7c0.4-0.1,2.1-0.4,2.1-0.4v-13.4c0,0-1.8-0.3-2.1-0.4
				s-0.6-0.4-0.6-0.7v-1.6h6v16c0,0,1.8,0.3,2.1,0.4S247.7,409.1,247.7,409.4z M241.3,387.2c-0.1-0.3-0.2-0.6-0.2-0.9s0-0.6,0.2-0.9
				c0.1-0.3,0.3-0.6,0.5-0.8s0.4-0.4,0.7-0.5s0.6-0.2,0.9-0.2c0.3,0,0.6,0,0.9,0.2c0.3,0.1,0.5,0.3,0.7,0.5s0.4,0.5,0.5,0.8
				s0.2,0.6,0.2,0.9s-0.1,0.6-0.2,0.9s-0.3,0.5-0.5,0.7s-0.4,0.4-0.7,0.5s-0.6,0.2-0.9,0.2c-0.3,0-0.6,0-0.9-0.2
				c-0.3-0.1-0.5-0.3-0.7-0.5S241.4,387.5,241.3,387.2z"/>
			<path fill="#CAAD4D" d="M255.7,396c1.4-2.8,3.3-4.2,5.7-4.2c1,0,1.8,0.2,2.6,0.7l-0.4,2.5c-0.1,0.3-0.3,0.5-0.5,0.5
				s-0.5-0.1-0.9-0.2c-0.4-0.1-0.9-0.2-1.5-0.2c-2.1,0-3.8,1.3-4.8,3.9v9.3c0.3,0.1,1,0.2,2.1,0.4c0.4,0.1,0.6,0.3,0.6,0.7v1.6H250
				v-1.6c0-0.4,0.2-0.6,0.6-0.7l2.1-0.4v-13.4c-1.2-0.2-1.9-0.4-2.1-0.4c-0.4-0.1-0.6-0.3-0.6-0.7v-1.6h2.7h1.9c0.4,0,0.6,0,0.7,0.2
				c0.1,0.1,0.2,0.4,0.3,0.7L255.7,396L255.7,396z"/>
		</g>
	</g>
	<g id="logo" display="none">
	</g>
</g>
<g>
	<path fill="#B2B4B8" d="M207.3,467.7l-0.1-0.7l0,0c-0.3,0.5-0.9,0.9-1.8,0.9c-1.2,0-1.8-0.8-1.8-1.7c0-1.4,1.2-2.2,3.5-2.2v-0.1
		c0-0.5-0.1-1.3-1.3-1.3c-0.5,0-1.1,0.2-1.5,0.4l-0.2-0.7c0.5-0.3,1.2-0.5,1.9-0.5c1.8,0,2.2,1.2,2.2,2.4v2.2c0,0.5,0,1,0.1,1.4h-1
		V467.7z M207.2,464.7c-1.2,0-2.5,0.2-2.5,1.3c0,0.7,0.5,1,1,1c0.8,0,1.2-0.5,1.4-1c0-0.1,0.1-0.2,0.1-0.3V464.7z"/>
	<path fill="#B2B4B8" d="M209.9,463.4c0-0.6,0-1.1,0-1.6h0.9l0.1,1l0,0c0.3-0.6,1-1.1,1.9-1.1c0.8,0,2.1,0.5,2.1,2.5v3.5h-1.1v-3.3
		c0-0.9-0.3-1.7-1.3-1.7c-0.7,0-1.2,0.5-1.4,1.1c0,0.1-0.1,0.3-0.1,0.5v3.5h-1.1L209.9,463.4L209.9,463.4z"/>
	<path fill="#B2B4B8" d="M224.4,464.7c0,2.1-1.5,3.1-2.9,3.1c-1.6,0-2.8-1.2-2.8-3c0-1.9,1.3-3.1,2.9-3.1
		C223.2,461.7,224.4,462.9,224.4,464.7z M219.7,464.8c0,1.3,0.7,2.2,1.8,2.2c1,0,1.8-0.9,1.8-2.3c0-1-0.5-2.2-1.7-2.2
		C220.3,462.5,219.7,463.7,219.7,464.8z"/>
	<path fill="#B2B4B8" d="M225.7,463.8c0-0.7,0-1.3,0-1.9h0.9v1l0,0c0.4-0.7,1.1-1.1,2.1-1.1c1.4,0,2.5,1.2,2.5,3
		c0,2.1-1.3,3.1-2.6,3.1c-0.8,0-1.4-0.3-1.8-0.9l0,0v3.2h-1L225.7,463.8L225.7,463.8z M226.7,465.3c0,0.2,0,0.3,0,0.4
		c0.2,0.7,0.8,1.2,1.6,1.2c1.1,0,1.8-0.9,1.8-2.2c0-1.2-0.6-2.2-1.7-2.2c-0.7,0-1.4,0.5-1.6,1.3c0,0.1-0.1,0.3-0.1,0.4V465.3z"/>
	<path fill="#B2B4B8" d="M233.1,465c0,1.4,0.9,2,2,2c0.8,0,1.2-0.1,1.6-0.3l0.2,0.8c-0.4,0.2-1,0.4-1.9,0.4c-1.8,0-2.9-1.2-2.9-2.9
		s1-3.1,2.7-3.1c1.9,0,2.4,1.7,2.4,2.7c0,0.2,0,0.4,0,0.5h-4.1V465z M236.2,464.2c0-0.7-0.3-1.7-1.5-1.7c-1.1,0-1.5,1-1.6,1.7H236.2
		z"/>
	<path fill="#B2B4B8" d="M238.5,463.4c0-0.6,0-1.1,0-1.6h0.9l0.1,1l0,0c0.3-0.6,1-1.1,1.9-1.1c0.8,0,2.1,0.5,2.1,2.5v3.5h-1.1v-3.3
		c0-0.9-0.3-1.7-1.3-1.7c-0.7,0-1.2,0.5-1.4,1.1c0,0.1-0.1,0.3-0.1,0.5v3.5h-1.1L238.5,463.4L238.5,463.4z"/>
	<path fill="#B2B4B8" d="M247.6,464v0.8h-3V464H247.6z"/>
	<path fill="#B2B4B8" d="M248.7,466.6c0.3,0.2,0.9,0.4,1.4,0.4c0.8,0,1.1-0.4,1.1-0.9s-0.3-0.8-1.1-1.1c-1-0.4-1.5-0.9-1.5-1.6
		c0-0.9,0.8-1.7,2-1.7c0.6,0,1.1,0.2,1.4,0.4l-0.3,0.8c-0.2-0.1-0.6-0.3-1.2-0.3c-0.6,0-1,0.4-1,0.8c0,0.5,0.3,0.7,1.1,1
		c1,0.4,1.5,0.9,1.5,1.8c0,1-0.8,1.7-2.2,1.7c-0.6,0-1.2-0.2-1.6-0.4L248.7,466.6z"/>
	<path fill="#B2B4B8" d="M258.9,464.7c0,2.1-1.5,3.1-2.9,3.1c-1.6,0-2.8-1.2-2.8-3c0-1.9,1.3-3.1,2.9-3.1S258.9,462.9,258.9,464.7z
		 M254.3,464.8c0,1.3,0.7,2.2,1.8,2.2c1,0,1.8-0.9,1.8-2.3c0-1-0.5-2.2-1.7-2.2C254.8,462.5,254.3,463.7,254.3,464.8z"/>
	<path fill="#B2B4B8" d="M265.1,466.1c0,0.6,0,1.1,0,1.6h-0.9l-0.1-0.9l0,0c-0.3,0.5-0.9,1.1-1.9,1.1c-0.9,0-2-0.5-2-2.5V462h1.1
		v3.2c0,1.1,0.3,1.8,1.3,1.8c0.7,0,1.2-0.5,1.4-1c0.1-0.2,0.1-0.3,0.1-0.5v-3.6h1.1v4.2H265.1z"/>
	<path fill="#B2B4B8" d="M266.8,463.7c0-0.7,0-1.3,0-1.8h0.9v1.1l0,0c0.3-0.8,0.9-1.3,1.6-1.3c0.1,0,0.2,0,0.3,0v1
		c-0.1,0-0.2,0-0.4,0c-0.7,0-1.3,0.6-1.4,1.4c0,0.1,0,0.3,0,0.5v3.1h-1V463.7z"/>
	<path fill="#B2B4B8" d="M274.8,467.5c-0.3,0.1-0.9,0.3-1.7,0.3c-1.8,0-2.9-1.2-2.9-3s1.2-3.1,3.1-3.1c0.6,0,1.2,0.2,1.5,0.3
		l-0.2,0.8c-0.3-0.1-0.6-0.3-1.2-0.3c-1.3,0-2.1,1-2.1,2.2c0,1.3,0.9,2.2,2,2.2c0.6,0,1-0.2,1.3-0.3L274.8,467.5z"/>
	<path fill="#B2B4B8" d="M276.5,465c0,1.4,0.9,2,2,2c0.8,0,1.2-0.1,1.6-0.3l0.2,0.8c-0.4,0.2-1,0.4-1.9,0.4c-1.8,0-2.9-1.2-2.9-2.9
		s1-3.1,2.7-3.1c1.9,0,2.4,1.7,2.4,2.7c0,0.2,0,0.4,0,0.5h-4.1V465z M279.6,464.2c0-0.7-0.3-1.7-1.5-1.7c-1.1,0-1.5,1-1.6,1.7H279.6
		z"/>
	<path fill="#B2B4B8" d="M285.8,460.2v1.7h1.5v0.8h-1.5v3.1c0,0.7,0.2,1.1,0.8,1.1c0.3,0,0.5,0,0.6-0.1v0.8
		c-0.2,0.1-0.5,0.1-0.9,0.1c-0.5,0-0.9-0.2-1.1-0.4c-0.3-0.3-0.4-0.8-0.4-1.5v-3.2h-0.9v-0.8h0.9v-1.4L285.8,460.2z"/>
	<path fill="#B2B4B8" d="M293.6,464.7c0,2.1-1.5,3.1-2.9,3.1c-1.6,0-2.8-1.2-2.8-3c0-1.9,1.3-3.1,2.9-3.1
		C292.5,461.7,293.6,462.9,293.6,464.7z M289,464.8c0,1.3,0.7,2.2,1.8,2.2c1,0,1.8-0.9,1.8-2.3c0-1-0.5-2.2-1.7-2.2
		C289.6,462.5,289,463.7,289,464.8z"/>
	<path fill="#B2B4B8" d="M300.2,464.7c0,2.1-1.5,3.1-2.9,3.1c-1.6,0-2.8-1.2-2.8-3c0-1.9,1.3-3.1,2.9-3.1
		C299.1,461.7,300.2,462.9,300.2,464.7z M295.6,464.8c0,1.3,0.7,2.2,1.8,2.2c1,0,1.8-0.9,1.8-2.3c0-1-0.5-2.2-1.7-2.2
		C296.2,462.5,295.6,463.7,295.6,464.8z"/>
	<path fill="#B2B4B8" d="M301.6,459.2h1.1v8.5h-1.1V459.2z"/>
	<path fill="#B2B4B8" d="M307,467.7v-5h-0.8v-0.8h0.8v-0.3c0-0.8,0.2-1.6,0.7-2c0.4-0.4,0.9-0.5,1.4-0.5c0.4,0,0.7,0.1,0.9,0.2
		l-0.1,0.8c-0.2-0.1-0.4-0.1-0.7-0.1c-0.9,0-1.1,0.8-1.1,1.7v0.3h1.4v0.8h-1.4v5H307V467.7z"/>
	<path fill="#B2B4B8" d="M315.5,464.7c0,2.1-1.5,3.1-2.9,3.1c-1.6,0-2.8-1.2-2.8-3c0-1.9,1.3-3.1,2.9-3.1
		C314.4,461.7,315.5,462.9,315.5,464.7z M310.9,464.8c0,1.3,0.7,2.2,1.8,2.2c1,0,1.8-0.9,1.8-2.3c0-1-0.5-2.2-1.7-2.2
		S310.9,463.7,310.9,464.8z"/>
	<path fill="#B2B4B8" d="M316.9,463.7c0-0.7,0-1.3,0-1.8h0.9v1.1l0,0c0.3-0.8,0.9-1.3,1.6-1.3c0.1,0,0.2,0,0.3,0v1
		c-0.1,0-0.2,0-0.4,0c-0.7,0-1.3,0.6-1.4,1.4c0,0.1,0,0.3,0,0.5v3.1h-1V463.7z"/>
	<path fill="#B2B4B8" d="M328.4,459.2v7c0,0.5,0,1.1,0,1.5h-0.9v-1l0,0c-0.3,0.6-1,1.1-2,1.1c-1.4,0-2.5-1.2-2.5-3
		c0-1.9,1.2-3.1,2.6-3.1c0.9,0,1.5,0.4,1.8,0.9l0,0v-3.5L328.4,459.2L328.4,459.2z M327.3,464.2c0-0.1,0-0.3,0-0.4
		c-0.2-0.7-0.7-1.2-1.5-1.2c-1.1,0-1.7,1-1.7,2.2s0.6,2.1,1.7,2.1c0.7,0,1.4-0.5,1.5-1.3c0-0.1,0-0.3,0-0.5V464.2z"/>
	<path fill="#B2B4B8" d="M331.3,460.2c0,0.4-0.3,0.6-0.7,0.6c-0.4,0-0.6-0.3-0.6-0.6c0-0.4,0.3-0.7,0.7-0.7
		C331,459.6,331.3,459.9,331.3,460.2z M330.1,467.7v-5.8h1.1v5.8H330.1z"/>
	<path fill="#B2B4B8" d="M332.8,466.6c0.3,0.2,0.9,0.4,1.4,0.4c0.8,0,1.1-0.4,1.1-0.9s-0.3-0.8-1.1-1.1c-1-0.4-1.5-0.9-1.5-1.6
		c0-0.9,0.8-1.7,2-1.7c0.6,0,1.1,0.2,1.4,0.4l-0.3,0.8c-0.2-0.1-0.6-0.3-1.2-0.3s-1,0.4-1,0.8c0,0.5,0.3,0.7,1.1,1
		c1,0.4,1.5,0.9,1.5,1.8c0,1-0.8,1.7-2.2,1.7c-0.6,0-1.2-0.2-1.6-0.4L332.8,466.6z"/>
	<path fill="#B2B4B8" d="M341.8,467.5c-0.3,0.1-0.9,0.3-1.7,0.3c-1.8,0-2.9-1.2-2.9-3s1.2-3.1,3.1-3.1c0.6,0,1.2,0.2,1.5,0.3
		l-0.2,0.8c-0.3-0.1-0.6-0.3-1.2-0.3c-1.3,0-2.1,1-2.1,2.2c0,1.3,0.9,2.2,2,2.2c0.6,0,1-0.2,1.3-0.3L341.8,467.5z"/>
	<path fill="#B2B4B8" d="M348.2,464.7c0,2.1-1.5,3.1-2.9,3.1c-1.6,0-2.8-1.2-2.8-3c0-1.9,1.3-3.1,2.9-3.1
		C347.1,461.7,348.2,462.9,348.2,464.7z M343.6,464.8c0,1.3,0.7,2.2,1.8,2.2c1,0,1.8-0.9,1.8-2.3c0-1-0.5-2.2-1.7-2.2
		C344.2,462.5,343.6,463.7,343.6,464.8z"/>
	<path fill="#B2B4B8" d="M349.9,461.9l1.1,3.3c0.2,0.5,0.3,1,0.5,1.5l0,0c0.1-0.5,0.3-1,0.5-1.5l1.1-3.3h1.1l-2.3,5.8h-1l-2.2-5.8
		H349.9z"/>
	<path fill="#B2B4B8" d="M355.7,465c0,1.4,0.9,2,2,2c0.8,0,1.2-0.1,1.6-0.3l0.2,0.8c-0.4,0.2-1,0.4-1.9,0.4c-1.8,0-2.9-1.2-2.9-2.9
		s1-3.1,2.7-3.1c1.9,0,2.4,1.7,2.4,2.7c0,0.2,0,0.4,0,0.5h-4.1V465z M358.8,464.2c0-0.7-0.3-1.7-1.5-1.7c-1.1,0-1.5,1-1.6,1.7H358.8
		z"/>
	<path fill="#B2B4B8" d="M361.1,463.7c0-0.7,0-1.3,0-1.8h0.9v1.1l0,0c0.3-0.8,0.9-1.3,1.6-1.3c0.1,0,0.2,0,0.3,0v1
		c-0.1,0-0.2,0-0.4,0c-0.7,0-1.3,0.6-1.4,1.4c0,0.1,0,0.3,0,0.5v3.1h-1V463.7z"/>
	<path fill="#B2B4B8" d="M366.3,460.2c0,0.4-0.3,0.6-0.7,0.6c-0.4,0-0.6-0.3-0.6-0.6c0-0.4,0.3-0.7,0.7-0.7
		C366,459.6,366.3,459.9,366.3,460.2z M365.1,467.7v-5.8h1.1v5.8H365.1z"/>
	<path fill="#B2B4B8" d="M367.9,463.4c0-0.6,0-1.1,0-1.6h0.9l0.1,1l0,0c0.3-0.6,1-1.1,1.9-1.1c0.8,0,2.1,0.5,2.1,2.5v3.5h-1.1v-3.3
		c0-0.9-0.3-1.7-1.3-1.7c-0.7,0-1.2,0.5-1.4,1.1c0,0.1-0.1,0.3-0.1,0.5v3.5h-1.1V463.4z"/>
	<path fill="#B2B4B8" d="M379.6,461.9c0,0.4,0,0.9,0,1.6v3.4c0,1.3-0.3,2.1-0.8,2.7c-0.6,0.5-1.4,0.7-2.1,0.7s-1.5-0.2-1.9-0.5
		l0.3-0.8c0.4,0.2,1,0.5,1.7,0.5c1.1,0,1.9-0.6,1.9-2v-0.6l0,0c-0.3,0.5-0.9,1-1.8,1c-1.4,0-2.5-1.2-2.5-2.8c0-2,1.3-3.1,2.6-3.1
		c1,0,1.6,0.5,1.8,1l0,0v-0.9h0.8V461.9z M378.5,464.2c0-0.2,0-0.3-0.1-0.5c-0.2-0.6-0.7-1.1-1.5-1.1c-1,0-1.7,0.9-1.7,2.2
		c0,1.1,0.6,2.1,1.7,2.1c0.6,0,1.2-0.4,1.5-1.1c0.1-0.2,0.1-0.4,0.1-0.6V464.2z"/>
	<path fill="#B2B4B8" d="M380.4,469.1c0.3-0.7,0.6-2,0.7-2.9l1.2-0.1c-0.3,1-0.8,2.4-1.1,2.9L380.4,469.1z"/>
	<path fill="#B2B4B8" d="M208.2,481.9c-0.3,0.1-0.9,0.3-1.7,0.3c-1.8,0-2.9-1.2-2.9-3s1.2-3.1,3.1-3.1c0.6,0,1.2,0.2,1.5,0.3
		l-0.2,0.8c-0.3-0.1-0.6-0.3-1.2-0.3c-1.3,0-2.1,1-2.1,2.2c0,1.3,0.9,2.2,2,2.2c0.6,0,1-0.2,1.3-0.3L208.2,481.9z"/>
	<path fill="#B2B4B8" d="M214.7,479.1c0,2.1-1.5,3.1-2.9,3.1c-1.6,0-2.8-1.2-2.8-3c0-1.9,1.3-3.1,2.9-3.1
		C213.5,476.1,214.7,477.3,214.7,479.1z M210.1,479.2c0,1.3,0.7,2.2,1.8,2.2c1,0,1.8-0.9,1.8-2.3c0-1-0.5-2.2-1.7-2.2
		C210.6,476.9,210.1,478.1,210.1,479.2z"/>
	<path fill="#B2B4B8" d="M216,473.6h1.1v8.5H216V473.6z"/>
	<path fill="#B2B4B8" d="M218.8,473.6h1.1v8.5h-1.1V473.6z"/>
	<path fill="#B2B4B8" d="M222.3,479.4c0,1.4,0.9,2,2,2c0.8,0,1.2-0.1,1.6-0.3l0.2,0.8c-0.4,0.2-1,0.4-1.9,0.4
		c-1.8,0-2.9-1.2-2.9-2.9s1-3.1,2.7-3.1c1.9,0,2.4,1.7,2.4,2.7c0,0.2,0,0.4,0,0.5h-4.1V479.4z M225.3,478.6c0-0.7-0.3-1.7-1.5-1.7
		c-1.1,0-1.5,1-1.6,1.7H225.3z"/>
	<path fill="#B2B4B8" d="M231.8,481.9c-0.3,0.1-0.9,0.3-1.7,0.3c-1.8,0-2.9-1.2-2.9-3s1.2-3.1,3.1-3.1c0.6,0,1.2,0.2,1.5,0.3
		l-0.2,0.8c-0.3-0.1-0.6-0.3-1.2-0.3c-1.3,0-2.1,1-2.1,2.2c0,1.3,0.9,2.2,2,2.2c0.6,0,1-0.2,1.3-0.3L231.8,481.9z"/>
	<path fill="#B2B4B8" d="M234.5,474.6v1.7h1.5v0.8h-1.5v3.1c0,0.7,0.2,1.1,0.8,1.1c0.3,0,0.5,0,0.6-0.1v0.8
		c-0.2,0.1-0.5,0.1-0.9,0.1c-0.5,0-0.9-0.2-1.1-0.4c-0.3-0.3-0.4-0.8-0.4-1.5V477h-0.9v-0.8h0.9v-1.4L234.5,474.6z"/>
	<path fill="#B2B4B8" d="M238.4,474.6c0,0.4-0.3,0.6-0.7,0.6s-0.6-0.3-0.6-0.6c0-0.4,0.3-0.7,0.7-0.7
		C238.1,474,238.4,474.3,238.4,474.6z M237.2,482.1v-5.8h1.1v5.8H237.2z"/>
	<path fill="#B2B4B8" d="M240,477.8c0-0.6,0-1.1,0-1.6h0.9l0.1,1l0,0c0.3-0.6,1-1.1,1.9-1.1c0.8,0,2.1,0.5,2.1,2.5v3.5h-1.1v-3.3
		c0-0.9-0.3-1.7-1.3-1.7c-0.7,0-1.2,0.5-1.4,1.1c0,0.1-0.1,0.3-0.1,0.5v3.5H240V477.8z"/>
	<path fill="#B2B4B8" d="M251.7,476.3c0,0.4,0,0.9,0,1.6v3.4c0,1.3-0.3,2.1-0.8,2.7c-0.6,0.5-1.4,0.7-2.1,0.7
		c-0.7,0-1.5-0.2-1.9-0.5l0.3-0.8c0.4,0.2,1,0.5,1.7,0.5c1.1,0,1.9-0.6,1.9-2v-0.6l0,0c-0.3,0.5-0.9,1-1.8,1c-1.4,0-2.5-1.2-2.5-2.8
		c0-2,1.3-3.1,2.6-3.1c1,0,1.6,0.5,1.8,1l0,0v-0.9h0.8V476.3z M250.6,478.6c0-0.2,0-0.3-0.1-0.5c-0.2-0.6-0.7-1.1-1.5-1.1
		c-1,0-1.7,0.9-1.7,2.2c0,1.1,0.6,2.1,1.7,2.1c0.6,0,1.2-0.4,1.5-1.1c0.1-0.2,0.1-0.4,0.1-0.6V478.6z"/>
	<path fill="#B2B4B8" d="M252.5,483.5c0.3-0.7,0.6-2,0.7-2.9l1.2-0.1c-0.3,1-0.8,2.4-1.1,2.9L252.5,483.5z"/>
	<path fill="#B2B4B8" d="M261.4,482.1l-0.1-0.7l0,0c-0.3,0.5-0.9,0.9-1.8,0.9c-1.2,0-1.8-0.8-1.8-1.7c0-1.4,1.2-2.2,3.5-2.2v-0.1
		c0-0.5-0.1-1.3-1.3-1.3c-0.5,0-1.1,0.2-1.5,0.4l-0.2-0.7c0.5-0.3,1.2-0.5,1.9-0.5c1.8,0,2.2,1.2,2.2,2.4v2.2c0,0.5,0,1,0.1,1.4h-1
		V482.1z M261.3,479.1c-1.2,0-2.5,0.2-2.5,1.3c0,0.7,0.5,1,1,1c0.8,0,1.2-0.5,1.4-1c0-0.1,0.1-0.2,0.1-0.3V479.1z"/>
	<path fill="#B2B4B8" d="M264,477.8c0-0.6,0-1.1,0-1.6h0.9l0.1,1l0,0c0.3-0.6,1-1.1,1.9-1.1c0.8,0,2.1,0.5,2.1,2.5v3.5h-1.1v-3.3
		c0-0.9-0.3-1.7-1.3-1.7c-0.7,0-1.2,0.5-1.4,1.1c0,0.1-0.1,0.3-0.1,0.5v3.5H264V477.8z"/>
	<path fill="#B2B4B8" d="M275.7,473.6v7c0,0.5,0,1.1,0,1.5h-0.9v-1l0,0c-0.3,0.6-1,1.1-2,1.1c-1.4,0-2.5-1.2-2.5-3
		c0-1.9,1.2-3.1,2.6-3.1c0.9,0,1.5,0.4,1.8,0.9l0,0v-3.5L275.7,473.6L275.7,473.6z M274.6,478.6c0-0.1,0-0.3,0-0.4
		c-0.2-0.7-0.7-1.2-1.5-1.2c-1.1,0-1.7,1-1.7,2.2s0.6,2.1,1.7,2.1c0.7,0,1.4-0.5,1.5-1.3c0-0.1,0-0.3,0-0.5V478.6z"/>
	<path fill="#B2B4B8" d="M280,478.1c0-0.7,0-1.3,0-1.8h0.9v1.1l0,0c0.3-0.8,0.9-1.3,1.6-1.3c0.1,0,0.2,0,0.3,0v1c-0.1,0-0.2,0-0.4,0
		c-0.7,0-1.3,0.6-1.4,1.4c0,0.1,0,0.3,0,0.5v3.1h-1V478.1z"/>
	<path fill="#B2B4B8" d="M284.4,479.4c0,1.4,0.9,2,2,2c0.8,0,1.2-0.1,1.6-0.3l0.2,0.8c-0.4,0.2-1,0.4-1.9,0.4
		c-1.8,0-2.9-1.2-2.9-2.9s1-3.1,2.7-3.1c1.9,0,2.4,1.7,2.4,2.7c0,0.2,0,0.4,0,0.5h-4.1V479.4z M287.4,478.6c0-0.7-0.3-1.7-1.5-1.7
		c-1.1,0-1.5,1-1.6,1.7H287.4z"/>
	<path fill="#B2B4B8" d="M293,482.1l-0.1-0.7l0,0c-0.3,0.5-0.9,0.9-1.8,0.9c-1.2,0-1.8-0.8-1.8-1.7c0-1.4,1.2-2.2,3.5-2.2v-0.1
		c0-0.5-0.1-1.3-1.3-1.3c-0.5,0-1.1,0.2-1.5,0.4l-0.2-0.7c0.5-0.3,1.2-0.5,1.9-0.5c1.8,0,2.2,1.2,2.2,2.4v2.2c0,0.5,0,1,0.1,1.4h-1
		V482.1z M292.8,479.1c-1.2,0-2.5,0.2-2.5,1.3c0,0.7,0.5,1,1,1c0.8,0,1.2-0.5,1.4-1c0-0.1,0.1-0.2,0.1-0.3V479.1z"/>
	<path fill="#B2B4B8" d="M300.6,473.6v7c0,0.5,0,1.1,0,1.5h-0.9v-1l0,0c-0.3,0.6-1,1.1-2,1.1c-1.4,0-2.5-1.2-2.5-3
		c0-1.9,1.2-3.1,2.6-3.1c0.9,0,1.5,0.4,1.8,0.9l0,0v-3.5L300.6,473.6L300.6,473.6z M299.5,478.6c0-0.1,0-0.3,0-0.4
		c-0.2-0.7-0.7-1.2-1.5-1.2c-1.1,0-1.7,1-1.7,2.2s0.6,2.1,1.7,2.1c0.7,0,1.4-0.5,1.5-1.3c0-0.1,0-0.3,0-0.5V478.6z"/>
	<path fill="#B2B4B8" d="M303.5,474.6c0,0.4-0.3,0.6-0.7,0.6c-0.4,0-0.6-0.3-0.6-0.6c0-0.4,0.3-0.7,0.7-0.7
		C303.3,474,303.5,474.3,303.5,474.6z M302.3,482.1v-5.8h1.1v5.8H302.3z"/>
	<path fill="#B2B4B8" d="M305.1,477.8c0-0.6,0-1.1,0-1.6h0.9l0.1,1l0,0c0.3-0.6,1-1.1,1.9-1.1c0.8,0,2.1,0.5,2.1,2.5v3.5H309v-3.3
		c0-0.9-0.3-1.7-1.3-1.7c-0.7,0-1.2,0.5-1.4,1.1c0,0.1-0.1,0.3-0.1,0.5v3.5h-1.1V477.8z"/>
	<path fill="#B2B4B8" d="M316.8,476.3c0,0.4,0,0.9,0,1.6v3.4c0,1.3-0.3,2.1-0.8,2.7c-0.6,0.5-1.4,0.7-2.1,0.7s-1.5-0.2-1.9-0.5
		l0.3-0.8c0.4,0.2,1,0.5,1.7,0.5c1.1,0,1.9-0.6,1.9-2v-0.6l0,0c-0.3,0.5-0.9,1-1.8,1c-1.4,0-2.5-1.2-2.5-2.8c0-2,1.3-3.1,2.6-3.1
		c1,0,1.6,0.5,1.8,1l0,0v-0.9h0.8V476.3z M315.7,478.6c0-0.2,0-0.3-0.1-0.5c-0.2-0.6-0.7-1.1-1.5-1.1c-1,0-1.7,0.9-1.7,2.2
		c0,1.1,0.6,2.1,1.7,2.1c0.6,0,1.2-0.4,1.5-1.1c0.1-0.2,0.1-0.4,0.1-0.6V478.6z"/>
	<path fill="#B2B4B8" d="M320.9,481c0.3,0.2,0.9,0.4,1.4,0.4c0.8,0,1.1-0.4,1.1-0.9s-0.3-0.8-1.1-1.1c-1-0.4-1.5-0.9-1.5-1.6
		c0-0.9,0.8-1.7,2-1.7c0.6,0,1.1,0.2,1.4,0.4l-0.3,0.8c-0.2-0.1-0.6-0.3-1.2-0.3s-1,0.4-1,0.8c0,0.5,0.3,0.7,1.1,1
		c1,0.4,1.5,0.9,1.5,1.8c0,1-0.8,1.7-2.2,1.7c-0.6,0-1.2-0.2-1.6-0.4L320.9,481z"/>
	<path fill="#B2B4B8" d="M329.9,481.9c-0.3,0.1-0.9,0.3-1.7,0.3c-1.8,0-2.9-1.2-2.9-3s1.2-3.1,3.1-3.1c0.6,0,1.2,0.2,1.5,0.3
		l-0.2,0.8c-0.3-0.1-0.6-0.3-1.2-0.3c-1.3,0-2.1,1-2.1,2.2c0,1.3,0.9,2.2,2,2.2c0.6,0,1-0.2,1.3-0.3L329.9,481.9z"/>
	<path fill="#B2B4B8" d="M332.4,474.6c0,0.4-0.3,0.6-0.7,0.6c-0.4,0-0.6-0.3-0.6-0.6c0-0.4,0.3-0.7,0.7-0.7
		C332.1,474,332.4,474.3,332.4,474.6z M331.2,482.1v-5.8h1.1v5.8H331.2z"/>
	<path fill="#B2B4B8" d="M334.6,479.4c0,1.4,0.9,2,2,2c0.8,0,1.2-0.1,1.6-0.3l0.2,0.8c-0.4,0.2-1,0.4-1.9,0.4
		c-1.8,0-2.9-1.2-2.9-2.9s1-3.1,2.7-3.1c1.9,0,2.4,1.7,2.4,2.7c0,0.2,0,0.4,0,0.5h-4.1V479.4z M337.7,478.6c0-0.7-0.3-1.7-1.5-1.7
		c-1.1,0-1.5,1-1.6,1.7H337.7z"/>
	<path fill="#B2B4B8" d="M340,477.8c0-0.6,0-1.1,0-1.6h0.9l0.1,1l0,0c0.3-0.6,1-1.1,1.9-1.1c0.8,0,2.1,0.5,2.1,2.5v3.5h-1.1v-3.3
		c0-0.9-0.3-1.7-1.3-1.7c-0.7,0-1.2,0.5-1.4,1.1c0,0.1-0.1,0.3-0.1,0.5v3.5H340V477.8z"/>
	<path fill="#B2B4B8" d="M347.9,474.6v1.7h1.5v0.8h-1.5v3.1c0,0.7,0.2,1.1,0.8,1.1c0.3,0,0.5,0,0.6-0.1v0.8
		c-0.2,0.1-0.5,0.1-0.9,0.1c-0.5,0-0.9-0.2-1.1-0.4c-0.3-0.3-0.4-0.8-0.4-1.5V477H346v-0.8h0.9v-1.4L347.9,474.6z"/>
	<path fill="#B2B4B8" d="M351.8,474.6c0,0.4-0.3,0.6-0.7,0.6c-0.4,0-0.6-0.3-0.6-0.6c0-0.4,0.3-0.7,0.7-0.7
		C351.5,474,351.8,474.3,351.8,474.6z M350.6,482.1v-5.8h1.1v5.8H350.6z"/>
	<path fill="#B2B4B8" d="M353.5,482.1v-5h-0.8v-0.8h0.8V476c0-1.5,0.9-2.5,2.5-2.5c0.5,0,1.2,0.2,1.5,0.4l-0.3,0.8
		c-0.3-0.2-0.7-0.3-1.2-0.3c-1.1,0-1.4,0.8-1.4,1.7v0.3h3.4v5.8h-1v-5h-2.3v5h-1.2V482.1z"/>
	<path fill="#B2B4B8" d="M363.8,481.9c-0.3,0.1-0.9,0.3-1.7,0.3c-1.8,0-2.9-1.2-2.9-3s1.2-3.1,3.1-3.1c0.6,0,1.2,0.2,1.5,0.3
		l-0.2,0.8c-0.3-0.1-0.6-0.3-1.2-0.3c-1.3,0-2.1,1-2.1,2.2c0,1.3,0.9,2.2,2,2.2c0.6,0,1-0.2,1.3-0.3L363.8,481.9z"/>
	<path fill="#B2B4B8" d="M370.8,482.1l-0.1-0.7l0,0c-0.3,0.5-0.9,0.9-1.8,0.9c-1.2,0-1.8-0.8-1.8-1.7c0-1.4,1.2-2.2,3.5-2.2v-0.1
		c0-0.5-0.1-1.3-1.3-1.3c-0.5,0-1.1,0.2-1.5,0.4l-0.2-0.7c0.5-0.3,1.2-0.5,1.9-0.5c1.8,0,2.2,1.2,2.2,2.4v2.2c0,0.5,0,1,0.1,1.4h-1
		V482.1z M370.6,479.1c-1.2,0-2.5,0.2-2.5,1.3c0,0.7,0.5,1,1,1c0.8,0,1.2-0.5,1.4-1c0-0.1,0.1-0.2,0.1-0.3V479.1z"/>
	<path fill="#B2B4B8" d="M373.4,478.1c0-0.7,0-1.3,0-1.8h0.9v1.1l0,0c0.3-0.8,0.9-1.3,1.6-1.3c0.1,0,0.2,0,0.3,0v1
		c-0.1,0-0.2,0-0.4,0c-0.7,0-1.3,0.6-1.4,1.4c0,0.1,0,0.3,0,0.5v3.1h-1V478.1z"/>
	<path fill="#B2B4B8" d="M378.9,474.6v1.7h1.5v0.8h-1.5v3.1c0,0.7,0.2,1.1,0.8,1.1c0.3,0,0.5,0,0.6-0.1v0.8
		c-0.2,0.1-0.5,0.1-0.9,0.1c-0.5,0-0.9-0.2-1.1-0.4c-0.3-0.3-0.4-0.8-0.4-1.5V477H377v-0.8h0.9v-1.4L378.9,474.6z"/>
	<path fill="#B2B4B8" d="M382.7,474.6c0,0.4-0.3,0.6-0.7,0.6c-0.4,0-0.6-0.3-0.6-0.6c0-0.4,0.3-0.7,0.7-0.7
		C382.5,474,382.7,474.3,382.7,474.6z M381.6,482.1v-5.8h1.1v5.8H381.6z"/>
	<path fill="#B2B4B8" d="M388.5,481.9c-0.3,0.1-0.9,0.3-1.7,0.3c-1.8,0-2.9-1.2-2.9-3s1.2-3.1,3.1-3.1c0.6,0,1.2,0.2,1.5,0.3
		l-0.2,0.8c-0.3-0.1-0.6-0.3-1.2-0.3c-1.3,0-2.1,1-2.1,2.2c0,1.3,0.9,2.2,2,2.2c0.6,0,1-0.2,1.3-0.3L388.5,481.9z"/>
	<path fill="#B2B4B8" d="M389.7,473.6h1.1v8.5h-1.1V473.6z"/>
	<path fill="#B2B4B8" d="M393.2,479.4c0,1.4,0.9,2,2,2c0.8,0,1.2-0.1,1.6-0.3l0.2,0.8c-0.4,0.2-1,0.4-1.9,0.4
		c-1.8,0-2.9-1.2-2.9-2.9s1-3.1,2.7-3.1c1.9,0,2.4,1.7,2.4,2.7c0,0.2,0,0.4,0,0.5h-4.1V479.4z M396.3,478.6c0-0.7-0.3-1.7-1.5-1.7
		c-1.1,0-1.5,1-1.6,1.7H396.3z"/>
	<path fill="#B2B4B8" d="M398.4,481c0.3,0.2,0.9,0.4,1.4,0.4c0.8,0,1.1-0.4,1.1-0.9s-0.3-0.8-1.1-1.1c-1-0.4-1.5-0.9-1.5-1.6
		c0-0.9,0.8-1.7,2-1.7c0.6,0,1.1,0.2,1.4,0.4l-0.3,0.8c-0.2-0.1-0.6-0.3-1.2-0.3s-1,0.4-1,0.8c0,0.5,0.3,0.7,1.1,1
		c1,0.4,1.5,0.9,1.5,1.8c0,1-0.8,1.7-2.2,1.7c-0.6,0-1.2-0.2-1.6-0.4L398.4,481z"/>
</g>
</svg>
