<?xml version="1.0" encoding="utf-8"?>
<!-- Generator: Adobe Illustrator 18.0.0, SVG Export Plug-In . SVG Version: 6.00 Build 0)  -->
<!DOCTYPE svg PUBLIC "-//W3C//DTD SVG 1.1//EN" "http://www.w3.org/Graphics/SVG/1.1/DTD/svg11.dtd">
<svg version="1.1" id="Layer_1" xmlns="http://www.w3.org/2000/svg" xmlns:xlink="http://www.w3.org/1999/xlink" x="0px" y="0px"
	 viewBox="0 0 612 792" enable-background="new 0 0 612 792" xml:space="preserve">
<g id="bg">
	<rect x="0.5" y="213.6" fill="#6EACC1" stroke="#000000" stroke-miterlimit="10" width="611" height="364.8"/>
</g>
<g id="board">
	<g>
		<g>
			
				<rect x="177" y="277.4" fill="#212127" stroke="#6EACC1" stroke-width="2" stroke-miterlimit="10" width="252.1" height="252.1"/>
			<polyline fill="#212127" stroke="#6EACC1" stroke-width="2" stroke-miterlimit="10" points="175.9,529.5 78.2,529.5 78.2,255.8 
				175.9,277.4 			"/>
			<polyline fill="#212127" stroke="#6EACC1" stroke-width="2" stroke-miterlimit="10" points="430.1,529.5 527.8,529.5 
				527.8,255.8 430.1,277.4 			"/>
		</g>
	</g>
</g>
<g id="rosette">
	<g id="ribbons">
	</g>
	<g>
		<polygon fill="#CAAD4D" stroke="#CAAD4D" stroke-width="2" stroke-miterlimit="10" points="361.7,348.4 346.7,394.7 357.5,385.5 
			360.1,400.4 373.9,363.2 386.9,410.1 390,395.2 401.3,401.9 386.3,351.9 		"/>
		<polygon fill="#6EACC1" stroke="#CAAD4D" stroke-width="16" stroke-miterlimit="10" points="348.3,312.2 373.3,297.8 398.2,312.2 
			398.2,341 373.3,355.5 348.3,341 		"/>
	</g>
</g>
<g id="text">
	<g>
		<g enable-background="new    ">
			<path fill="#6EACC1" d="M214.3,379.8c1.3,0,2.9,0.3,4.9,1v1.3v3.5h-1.4c-0.4,0-0.6-0.1-0.6-0.5c0-0.1-0.1-0.9-0.2-2.4
				c-1.1-0.3-2.1-0.4-2.9-0.4h0c-1,0-1.9,0.3-2.6,0.8c-0.7,0.5-1,1.1-1,1.7c0,0.6,0.1,1.1,0.4,1.4c0.5,0.6,1.2,1,2.1,1.3
				c0.9,0.3,1.7,0.5,2.3,0.7l1.8,0.7c0.6,0.2,1.1,0.6,1.6,1c1,0.8,1.5,1.9,1.5,3.3c0,1.8-0.6,3.2-1.8,4.3c-1.3,1.1-3,1.7-5,1.7
				s-4.1-0.3-6.1-1v-4.9h1.3c0.3,0,0.5,0.1,0.6,0.4c0,0.1,0.1,0.9,0.2,2.4c1,0.5,2.3,0.7,3.8,0.7c1.2,0,2.2-0.3,2.9-0.9
				c0.6-0.6,1-1.2,1-1.9c0-0.7-0.1-1.2-0.4-1.6s-0.7-0.7-1.1-0.9s-1-0.4-1.6-0.6c-1.6-0.5-2.8-0.9-3.4-1.2s-1.2-0.7-1.7-1
				c-1-0.9-1.6-2-1.6-3.5c0-1.5,0.6-2.7,1.8-3.8C210.4,380.3,212.1,379.8,214.3,379.8L214.3,379.8z"/>
			<path fill="#6EACC1" d="M230.9,399.1c-2.4,0-4.3-0.9-5.9-2.6c-1.6-1.8-2.4-4.1-2.4-7.1c0-2.9,0.7-5.1,2.3-6.9
				c1.6-1.8,3.8-2.7,6.6-2.7c1.4,0,3.3,0.4,5.6,1.3v4.9h-1.5c-0.4,0-0.6-0.1-0.6-0.5c0-0.1-0.1-0.6-0.1-1.4
				c-0.1-0.8-0.1-1.2-0.1-1.2c-0.6-0.2-1-0.3-1.3-0.3c-0.7-0.1-1.4-0.1-2.1-0.1c-0.7,0-1.4,0.2-2,0.5s-1.3,0.8-1.7,1.4
				c-1,1.3-1.4,3-1.4,5.2c0,2.2,0.5,4,1.5,5.3c1,1.2,2.3,1.9,4,1.9c1.6,0,2.9-0.5,4.1-1.6c0.2-0.2,0.5-0.3,0.7-0.3s0.4,0.1,0.6,0.3
				l0.9,1.2C236.3,398.1,234,399.1,230.9,399.1z"/>
			<path fill="#6EACC1" d="M248.5,397.2v1.6h-8.6v-1.6c0-0.3,0.2-0.6,0.6-0.7s2.1-0.4,2.1-0.4v-13.4c0,0-1.8-0.3-2.1-0.4
				c-0.3-0.1-0.6-0.4-0.6-0.7v-1.6h6v16c0,0,1.8,0.3,2.1,0.4S248.5,396.9,248.5,397.2z M242,375.1c-0.1-0.3-0.2-0.6-0.2-0.9
				s0-0.6,0.2-0.9c0.1-0.3,0.3-0.6,0.5-0.8s0.4-0.4,0.7-0.5c0.3-0.1,0.6-0.2,0.9-0.2c0.3,0,0.6,0,0.9,0.2c0.3,0.1,0.5,0.3,0.7,0.5
				s0.4,0.5,0.5,0.8c0.1,0.3,0.2,0.6,0.2,0.9s-0.1,0.6-0.2,0.9c-0.1,0.3-0.3,0.5-0.5,0.7c-0.2,0.2-0.4,0.4-0.7,0.5
				c-0.3,0.1-0.6,0.2-0.9,0.2c-0.3,0-0.6,0-0.9-0.2c-0.3-0.1-0.5-0.3-0.7-0.5C242.3,375.6,242.2,375.4,242,375.1z"/>
			<path fill="#6EACC1" d="M258.9,379.8c1.1,0,2.1,0.2,3.1,0.6c1,0.4,1.8,0.9,2.4,1.6s1.3,1.6,1.6,2.6c0.4,1,0.6,2.2,0.6,3.6
				c0,0.5,0,0.9-0.1,1c-0.1,0.1-0.4,0.3-0.7,0.3h-12.4c0,1.2,0.1,2.2,0.4,3.1s0.7,1.6,1.3,2.1s1.1,1,1.9,1.3
				c0.7,0.3,1.5,0.4,2.4,0.4c0.8,0,1.6-0.1,2.1-0.3c0.6-0.2,1.1-0.4,1.6-0.6s0.8-0.4,1.1-0.6s0.5-0.3,0.7-0.3c0.3,0,0.5,0.1,0.6,0.3
				l0.9,1.2c-0.4,0.5-0.9,0.9-1.5,1.3c-0.6,0.4-1.1,0.7-1.8,0.9c-0.7,0.2-1.3,0.4-2,0.5c-0.7,0.1-1.4,0.2-2,0.2
				c-1.3,0-2.5-0.2-3.6-0.7c-1.1-0.4-2-1.1-2.9-2c-0.8-0.9-1.4-1.9-1.9-3.1c-0.4-1.3-0.7-2.7-0.7-4.3c0-1.3,0.2-2.5,0.6-3.6
				c0.4-1.1,1-2.1,1.7-3c0.7-0.8,1.7-1.5,2.8-2S257.6,379.8,258.9,379.8L258.9,379.8z M259,382.2c-1.6,0-2.9,0.4-3.7,1.4
				c-0.9,0.9-1.5,2.2-1.7,3.9h10.2c0-0.7-0.1-1.4-0.3-2.1c-0.2-0.6-0.5-1.2-0.9-1.7c-0.4-0.4-0.9-0.8-1.5-1.1S259.7,382.2,259,382.2
				L259,382.2z"/>
			<path fill="#6EACC1" d="M274.6,382.8c1.9-2,3.9-3,6.2-3c2,0,3.6,0.6,4.7,2c1,1.3,1.6,3,1.6,5.1v9.2c1.2,0.2,1.9,0.4,2.1,0.4
				c0.4,0.1,0.6,0.3,0.6,0.7v1.6h-6v-11.9c0-3-1.3-4.5-3.9-4.5c-1.9,0-3.6,0.9-5.1,2.6v11.1c0.1,0,0.8,0.1,2.1,0.4
				c0.4,0.1,0.6,0.3,0.6,0.7v1.6h-8.6v-1.6c0-0.4,0.1-0.6,0.5-0.7l2.1-0.4v-13.4c-1.2-0.2-1.9-0.4-2.1-0.4c-0.4-0.1-0.5-0.3-0.5-0.7
				v-1.6h2.7h1.9c0.4,0,0.7,0.2,0.9,0.7L274.6,382.8L274.6,382.8z"/>
			<path fill="#6EACC1" d="M299.8,399.1c-2.4,0-4.3-0.9-5.9-2.6c-1.6-1.8-2.4-4.1-2.4-7.1c0-2.9,0.7-5.1,2.3-6.9
				c1.6-1.8,3.8-2.7,6.6-2.7c1.4,0,3.3,0.4,5.6,1.3v4.9h-1.5c-0.4,0-0.6-0.1-0.6-0.5c0-0.1-0.1-0.6-0.1-1.4
				c-0.1-0.8-0.1-1.2-0.1-1.2c-0.6-0.2-1-0.3-1.3-0.3c-0.7-0.1-1.4-0.1-2.1-0.1s-1.4,0.2-2,0.5s-1.3,0.8-1.7,1.4
				c-1,1.3-1.4,3-1.4,5.2c0,2.2,0.5,4,1.5,5.3c1,1.2,2.3,1.9,4,1.9c1.6,0,2.9-0.5,4.1-1.6c0.2-0.2,0.5-0.3,0.7-0.3s0.4,0.1,0.6,0.3
				l0.9,1.2C305.2,398.1,302.8,399.1,299.8,399.1z"/>
			<path fill="#6EACC1" d="M317.9,379.8c1.1,0,2.1,0.2,3.1,0.6c1,0.4,1.8,0.9,2.4,1.6s1.3,1.6,1.6,2.6c0.4,1,0.6,2.2,0.6,3.6
				c0,0.5,0,0.9-0.1,1c-0.1,0.1-0.4,0.3-0.7,0.3h-12.4c0,1.2,0.1,2.2,0.4,3.1c0.3,0.9,0.7,1.6,1.3,2.1c0.5,0.6,1.1,1,1.9,1.3
				c0.7,0.3,1.5,0.4,2.4,0.4c0.8,0,1.6-0.1,2.1-0.3c0.6-0.2,1.1-0.4,1.6-0.6s0.8-0.4,1.1-0.6c0.3-0.2,0.5-0.3,0.7-0.3
				c0.3,0,0.5,0.1,0.6,0.3l0.9,1.2c-0.4,0.5-0.9,0.9-1.5,1.3c-0.6,0.4-1.1,0.7-1.8,0.9c-0.7,0.2-1.3,0.4-2,0.5s-1.4,0.2-2,0.2
				c-1.3,0-2.5-0.2-3.6-0.7c-1.1-0.4-2-1.1-2.9-2c-0.8-0.9-1.4-1.9-1.9-3.1c-0.4-1.3-0.7-2.7-0.7-4.3c0-1.3,0.2-2.5,0.6-3.6
				c0.4-1.1,1-2.1,1.7-3s1.7-1.5,2.8-2S316.7,379.8,317.9,379.8L317.9,379.8z M318.1,382.2c-1.6,0-2.9,0.4-3.7,1.4
				c-0.9,0.9-1.5,2.2-1.7,3.9h10.2c0-0.7-0.1-1.4-0.3-2.1c-0.2-0.6-0.5-1.2-0.9-1.7c-0.4-0.4-0.9-0.8-1.5-1.1
				S318.8,382.2,318.1,382.2L318.1,382.2z"/>
		</g>
	</g>
	<g>
		<g enable-background="new    ">
			<path fill="#CAAD4D" d="M215.8,409.9c-2.5,0-3.8,1.4-3.8,4.3v1.7h5.4v2.4h-5.3v13.3c1.5,0.2,2.3,0.4,2.5,0.4
				c0.4,0.1,0.6,0.3,0.6,0.7v1.6h-9.2v-1.6c0-0.4,0.2-0.6,0.6-0.7l2.3-0.4v-13.2l-2.1-0.3c-0.6-0.1-0.9-0.4-0.9-0.9V416h3v-1.8
				c0-2.1,0.6-3.8,1.7-5c1.1-1.2,2.7-1.7,4.7-1.7c0.8,0,1.6,0.1,2.3,0.4l-0.1,1.7c0,0.2-0.1,0.4-0.3,0.4s-0.5,0.1-0.9,0.1H215.8
				L215.8,409.9z"/>
			<path fill="#CAAD4D" d="M236,432c0.3,0.1,0.6,0.4,0.6,0.7v1.6h-2.4h-0.3h-1.2c-0.3,0-0.6-0.1-0.8-0.1c-0.2-0.1-0.3-0.3-0.4-0.6
				l-0.4-1.8c-0.5,0.4-1,0.9-1.5,1.2c-0.4,0.4-1,0.7-1.5,0.9c-0.5,0.2-1,0.4-1.6,0.6s-1.3,0.2-2,0.2c-0.7,0-1.4-0.1-2-0.3
				c-0.6-0.2-1.2-0.5-1.7-0.9c-0.4-0.4-0.8-0.9-1.1-1.6s-0.4-1.4-0.4-2.2c0-0.7,0.2-1.5,0.6-2.1s1.1-1.3,2-1.9s2.1-1,3.6-1.3
				s3.3-0.5,5.4-0.5v-1.4c0-1.5-0.3-2.6-1-3.3s-1.6-1.1-2.8-1.1c-0.8,0-1.5,0.1-2,0.3c-0.6,0.2-1,0.4-1.4,0.7
				c-0.4,0.3-0.8,0.4-1.1,0.7s-0.6,0.3-0.9,0.3c-0.2,0-0.4,0-0.6-0.1c-0.1-0.1-0.3-0.3-0.4-0.4l-0.6-1c1-1,2.1-1.7,3.3-2.2
				s2.5-0.7,4-0.7c1,0,2,0.1,2.8,0.5c0.8,0.4,1.5,0.8,2,1.4s1,1.3,1.3,2.2c0.3,0.9,0.4,1.9,0.4,2.9v9.4
				C234.7,431.7,235.8,432,236,432L236,432z M230.9,425.9c-1.5,0-2.8,0.1-3.9,0.3c-1,0.2-1.9,0.5-2.6,0.8c-0.7,0.3-1.2,0.7-1.5,1.1
				c-0.3,0.4-0.4,0.9-0.4,1.4s0.1,0.9,0.3,1.3c0.1,0.4,0.4,0.7,0.7,0.9c0.3,0.2,0.6,0.4,1,0.5s0.8,0.2,1.2,0.2
				c0.6,0,1.1-0.1,1.6-0.2c0.5-0.1,0.9-0.3,1.4-0.5c0.4-0.2,0.9-0.5,1.2-0.8s0.7-0.7,1.1-1V425.9z"/>
			<path fill="#CAAD4D" d="M247.3,432.7v1.6h-8.6v-1.6c0-0.3,0.2-0.6,0.6-0.7s2.1-0.4,2.1-0.4v-13.4c0,0-1.8-0.3-2.1-0.4
				s-0.6-0.4-0.6-0.7v-1.6h6v16c0,0,1.8,0.3,2.1,0.4S247.3,432.4,247.3,432.7z M240.9,410.6c-0.1-0.3-0.2-0.6-0.2-0.9
				c0-0.3,0-0.6,0.2-0.9c0.1-0.3,0.3-0.6,0.5-0.8c0.2-0.2,0.4-0.4,0.7-0.5c0.3-0.1,0.6-0.2,0.9-0.2c0.3,0,0.6,0,0.9,0.2
				c0.3,0.1,0.5,0.3,0.7,0.5c0.2,0.2,0.4,0.5,0.5,0.8c0.1,0.3,0.2,0.6,0.2,0.9c0,0.3-0.1,0.6-0.2,0.9c-0.1,0.3-0.3,0.5-0.5,0.7
				c-0.2,0.2-0.4,0.4-0.7,0.5c-0.3,0.1-0.6,0.2-0.9,0.2c-0.3,0-0.6,0-0.9-0.2c-0.3-0.1-0.5-0.3-0.7-0.5
				C241.2,411.1,241,410.9,240.9,410.6z"/>
			<path fill="#CAAD4D" d="M255.3,419.4c1.4-2.8,3.3-4.2,5.7-4.2c1,0,1.8,0.2,2.6,0.7l-0.4,2.5c-0.1,0.3-0.3,0.5-0.5,0.5
				s-0.5-0.1-0.9-0.2c-0.4-0.1-0.9-0.2-1.5-0.2c-2.1,0-3.8,1.3-4.8,3.9v9.3c0.3,0.1,1,0.2,2.1,0.4c0.4,0.1,0.6,0.3,0.6,0.7v1.6h-8.6
				v-1.6c0-0.4,0.2-0.6,0.6-0.7l2.1-0.4v-13.4c-1.2-0.2-1.9-0.4-2.1-0.4c-0.4-0.1-0.6-0.3-0.6-0.7v-1.6h2.7h1.9c0.4,0,0.6,0,0.7,0.2
				c0.1,0.1,0.2,0.4,0.3,0.7L255.3,419.4L255.3,419.4z"/>
		</g>
	</g>
	<g id="logo" display="none">
	</g>
</g>
</svg>
