<?xml version="1.0" encoding="utf-8"?>
<!-- Generator: Adobe Illustrator 18.0.0, SVG Export Plug-In . SVG Version: 6.00 Build 0)  -->
<!DOCTYPE svg PUBLIC "-//W3C//DTD SVG 1.1//EN" "http://www.w3.org/Graphics/SVG/1.1/DTD/svg11.dtd">
<svg version="1.1" id="Layer_1" xmlns="http://www.w3.org/2000/svg" xmlns:xlink="http://www.w3.org/1999/xlink" x="0px" y="0px"
	 viewBox="0 0 612 792" enable-background="new 0 0 612 792" xml:space="preserve">
<g id="bg">
	<rect x="0.5" y="426.9" fill="#6EACC1" width="612" height="365.4"/>
</g>
<g id="board">
	<g>
		<g>
			
				<rect x="177.3" y="490.8" fill="#212127" stroke="#6EACC1" stroke-width="2" stroke-miterlimit="10" width="252.5" height="252.5"/>
			<polyline fill="#212127" stroke="#6EACC1" stroke-width="2" stroke-miterlimit="10" points="176.2,743.3 78.3,743.3 78.3,469.2 
				176.2,490.8 			"/>
			<polyline fill="#212127" stroke="#6EACC1" stroke-width="2" stroke-miterlimit="10" points="430.8,743.3 528.7,743.3 
				528.7,469.2 430.8,490.8 			"/>
		</g>
	</g>
</g>
<g id="rosette">
	<g id="ribbons">
	</g>
	<g>
		<polygon fill="#CAAD4D" stroke="#CAAD4D" stroke-width="2" stroke-miterlimit="10" points="362.3,561.9 347.3,608.3 358.1,599.1 
			360.7,614 374.5,576.7 387.5,623.7 390.6,608.8 402,615.5 386.9,565.4 		"/>
		<polygon fill="#6EACC1" stroke="#CAAD4D" stroke-width="16" stroke-miterlimit="10" points="348.9,525.7 373.9,511.2 398.9,525.7 
			398.9,554.5 373.9,569 348.9,554.5 		"/>
	</g>
</g>
<g id="text">
	<g>
		<g enable-background="new    ">
			<path fill="#6EACC1" d="M214.6,593.4c1.3,0,2.9,0.3,4.9,1v1.3v3.5h-1.4c-0.4,0-0.6-0.1-0.6-0.5c0-0.1-0.1-0.9-0.2-2.4
				c-1.1-0.3-2.1-0.4-2.9-0.4l0,0c-1,0-1.9,0.3-2.6,0.8c-0.7,0.5-1,1.1-1,1.7c0,0.6,0.1,1.1,0.4,1.4c0.5,0.6,1.2,1,2.1,1.3
				s1.7,0.5,2.3,0.7l1.8,0.7c0.6,0.2,1.1,0.6,1.6,1c1,0.8,1.5,1.9,1.5,3.3c0,1.8-0.6,3.2-1.8,4.3c-1.3,1.1-3,1.7-5,1.7
				c-2,0-4.1-0.3-6.1-1v-4.9h1.3c0.3,0,0.5,0.1,0.6,0.4c0,0.1,0.1,0.9,0.2,2.4c1,0.5,2.3,0.7,3.8,0.7c1.2,0,2.2-0.3,2.9-0.9
				c0.6-0.6,1-1.2,1-1.9c0-0.7-0.1-1.2-0.4-1.6s-0.7-0.7-1.1-0.9s-1-0.4-1.6-0.6c-1.6-0.5-2.8-0.9-3.4-1.2c-0.6-0.3-1.2-0.7-1.7-1
				c-1-0.9-1.6-2-1.6-3.5s0.6-2.7,1.8-3.8C210.7,593.9,212.4,593.4,214.6,593.4L214.6,593.4z"/>
			<path fill="#6EACC1" d="M231.3,612.7c-2.4,0-4.3-0.9-5.9-2.6c-1.6-1.8-2.4-4.1-2.4-7.1c0-2.9,0.7-5.1,2.3-6.9
				c1.6-1.8,3.8-2.7,6.6-2.7c1.4,0,3.3,0.4,5.6,1.3v4.9H236c-0.4,0-0.6-0.1-0.6-0.5c0-0.1-0.1-0.6-0.1-1.4c-0.1-0.8-0.1-1.2-0.1-1.2
				c-0.6-0.2-1-0.3-1.3-0.3c-0.7-0.1-1.4-0.1-2.1-0.1c-0.7,0-1.4,0.2-2,0.5c-0.6,0.3-1.3,0.8-1.7,1.4c-1,1.3-1.4,3-1.4,5.2
				s0.5,4,1.5,5.3c1,1.2,2.3,1.9,4,1.9c1.6,0,2.9-0.5,4.1-1.6c0.2-0.2,0.5-0.3,0.7-0.3c0.2,0,0.4,0.1,0.6,0.3l0.9,1.2
				C236.7,611.7,234.4,612.7,231.3,612.7z"/>
			<path fill="#6EACC1" d="M248.9,610.8v1.6h-8.6v-1.6c0-0.3,0.2-0.6,0.6-0.7c0.4-0.1,2.1-0.4,2.1-0.4v-13.4c0,0-1.8-0.3-2.1-0.4
				s-0.6-0.4-0.6-0.7v-1.6h6v16c0,0,1.8,0.3,2.1,0.4S248.9,610.5,248.9,610.8z M242.4,588.7c-0.1-0.3-0.2-0.6-0.2-0.9
				c0-0.3,0-0.6,0.2-0.9c0.1-0.3,0.3-0.6,0.5-0.8c0.2-0.2,0.4-0.4,0.7-0.5c0.3-0.1,0.6-0.2,0.9-0.2c0.3,0,0.6,0,0.9,0.2
				c0.3,0.1,0.5,0.3,0.7,0.5c0.2,0.2,0.4,0.5,0.5,0.8c0.1,0.3,0.2,0.6,0.2,0.9c0,0.3-0.1,0.6-0.2,0.9s-0.3,0.5-0.5,0.7
				c-0.2,0.2-0.4,0.4-0.7,0.5c-0.3,0.1-0.6,0.2-0.9,0.2c-0.3,0-0.6,0-0.9-0.2c-0.3-0.1-0.5-0.3-0.7-0.5
				C242.7,589.2,242.6,589,242.4,588.7z"/>
			<path fill="#6EACC1" d="M259.3,593.4c1.1,0,2.1,0.2,3.1,0.6s1.8,0.9,2.4,1.6c0.6,0.7,1.3,1.6,1.6,2.6c0.4,1,0.6,2.2,0.6,3.6
				c0,0.5,0,0.9-0.1,1c-0.1,0.1-0.4,0.3-0.7,0.3h-12.4c0,1.2,0.1,2.2,0.4,3.1c0.3,0.9,0.7,1.6,1.3,2.1c0.6,0.5,1.1,1,1.9,1.3
				c0.7,0.3,1.5,0.4,2.4,0.4c0.8,0,1.6-0.1,2.1-0.3c0.6-0.2,1.1-0.4,1.6-0.6c0.5-0.2,0.8-0.4,1.1-0.6s0.5-0.3,0.7-0.3
				c0.3,0,0.5,0.1,0.6,0.3l0.9,1.2c-0.4,0.5-0.9,0.9-1.5,1.3c-0.6,0.4-1.1,0.7-1.8,0.9c-0.7,0.2-1.3,0.4-2,0.5
				c-0.7,0.1-1.4,0.2-2,0.2c-1.3,0-2.5-0.2-3.6-0.7c-1.1-0.4-2-1.1-2.9-2c-0.8-0.9-1.4-1.9-1.9-3.1c-0.4-1.3-0.7-2.7-0.7-4.3
				c0-1.3,0.2-2.5,0.6-3.6c0.4-1.1,1-2.1,1.7-3c0.7-0.8,1.7-1.5,2.8-2C256.6,593.4,258,593.4,259.3,593.4L259.3,593.4z M259.4,595.8
				c-1.6,0-2.9,0.4-3.7,1.4c-0.9,0.9-1.5,2.2-1.7,3.9h10.2c0-0.7-0.1-1.4-0.3-2.1c-0.2-0.6-0.5-1.2-0.9-1.7
				c-0.4-0.4-0.9-0.8-1.5-1.1C260.9,595.9,260.1,595.8,259.4,595.8L259.4,595.8z"/>
			<path fill="#6EACC1" d="M275,596.4c1.9-2,3.9-3,6.2-3c2,0,3.6,0.6,4.7,2c1,1.3,1.6,3,1.6,5.1v9.2c1.2,0.2,1.9,0.4,2.1,0.4
				c0.4,0.1,0.6,0.3,0.6,0.7v1.6h-6v-11.9c0-3-1.3-4.5-3.9-4.5c-1.9,0-3.6,0.9-5.1,2.6v11.1c0.1,0,0.8,0.1,2.1,0.4
				c0.4,0.1,0.6,0.3,0.6,0.7v1.6h-8.6v-1.6c0-0.4,0.1-0.6,0.5-0.7l2.1-0.4v-13.4c-1.2-0.2-1.9-0.4-2.1-0.4c-0.4-0.1-0.5-0.3-0.5-0.7
				v-1.6h2.7h1.9c0.4,0,0.7,0.2,0.9,0.7L275,596.4L275,596.4z"/>
			<path fill="#6EACC1" d="M300.3,612.7c-2.4,0-4.3-0.9-5.9-2.6c-1.6-1.8-2.4-4.1-2.4-7.1c0-2.9,0.7-5.1,2.3-6.9
				c1.6-1.8,3.8-2.7,6.6-2.7c1.4,0,3.3,0.4,5.6,1.3v4.9H305c-0.4,0-0.6-0.1-0.6-0.5c0-0.1-0.1-0.6-0.1-1.4c-0.1-0.8-0.1-1.2-0.1-1.2
				c-0.6-0.2-1-0.3-1.3-0.3c-0.7-0.1-1.4-0.1-2.1-0.1c-0.7,0-1.4,0.2-2,0.5s-1.3,0.8-1.7,1.4c-1,1.3-1.4,3-1.4,5.2s0.5,4,1.5,5.3
				c1,1.2,2.3,1.9,4,1.9c1.6,0,2.9-0.5,4.1-1.6c0.2-0.2,0.5-0.3,0.7-0.3s0.4,0.1,0.6,0.3l0.9,1.2
				C305.7,611.7,303.3,612.7,300.3,612.7z"/>
			<path fill="#6EACC1" d="M318.4,593.4c1.1,0,2.1,0.2,3.1,0.6s1.8,0.9,2.4,1.6c0.6,0.7,1.3,1.6,1.6,2.6c0.4,1,0.6,2.2,0.6,3.6
				c0,0.5,0,0.9-0.1,1c-0.1,0.1-0.4,0.3-0.7,0.3h-12.4c0,1.2,0.1,2.2,0.4,3.1c0.3,0.9,0.7,1.6,1.3,2.1c0.5,0.6,1.1,1,1.9,1.3
				c0.7,0.3,1.5,0.4,2.4,0.4c0.8,0,1.6-0.1,2.1-0.3c0.6-0.2,1.1-0.4,1.6-0.6c0.5-0.2,0.8-0.4,1.1-0.6c0.3-0.2,0.5-0.3,0.7-0.3
				c0.3,0,0.5,0.1,0.6,0.3l0.9,1.2c-0.4,0.5-0.9,0.9-1.5,1.3c-0.6,0.4-1.1,0.7-1.8,0.9s-1.3,0.4-2,0.5c-0.7,0.1-1.4,0.2-2,0.2
				c-1.3,0-2.5-0.2-3.6-0.7c-1.1-0.4-2-1.1-2.9-2c-0.8-0.9-1.4-1.9-1.9-3.1c-0.4-1.3-0.7-2.7-0.7-4.3c0-1.3,0.2-2.5,0.6-3.6
				c0.4-1.1,1-2.1,1.7-3c0.7-0.9,1.7-1.5,2.8-2S317.2,593.4,318.4,593.4L318.4,593.4z M318.6,595.8c-1.6,0-2.9,0.4-3.7,1.4
				c-0.9,0.9-1.5,2.2-1.7,3.9h10.2c0-0.7-0.1-1.4-0.3-2.1c-0.2-0.6-0.5-1.2-0.9-1.7c-0.4-0.4-0.9-0.8-1.5-1.1
				C320.1,595.9,319.3,595.8,318.6,595.8L318.6,595.8z"/>
		</g>
	</g>
	<g>
		<g enable-background="new    ">
			<path fill="#CAAD4D" d="M216.2,623.5c-2.5,0-3.8,1.4-3.8,4.3v1.7h5.4v2.4h-5.3v13.3c1.5,0.2,2.3,0.4,2.5,0.4
				c0.4,0.1,0.6,0.3,0.6,0.7v1.6h-9.2v-1.6c0-0.4,0.2-0.6,0.6-0.7l2.3-0.4V632l-2.1-0.3c-0.6-0.1-0.9-0.4-0.9-0.9v-1.2h3v-1.8
				c0-2.1,0.6-3.8,1.7-5c1.1-1.2,2.7-1.7,4.7-1.7c0.8,0,1.6,0.1,2.3,0.4l-0.1,1.7c0,0.2-0.1,0.4-0.3,0.4c-0.2,0-0.5,0.1-0.9,0.1
				h-0.5V623.5z"/>
			<path fill="#CAAD4D" d="M236.4,645.7c0.3,0.1,0.6,0.4,0.6,0.7v1.6h-2.4h-0.3h-1.2c-0.3,0-0.6-0.1-0.8-0.1
				c-0.2-0.1-0.3-0.3-0.4-0.6l-0.4-1.8c-0.5,0.4-1,0.9-1.5,1.2c-0.4,0.4-1,0.7-1.5,0.9c-0.5,0.2-1,0.4-1.6,0.6
				c-0.6,0.2-1.3,0.2-2,0.2s-1.4-0.1-2-0.3c-0.6-0.2-1.2-0.5-1.7-0.9c-0.4-0.4-0.8-0.9-1.1-1.6s-0.4-1.4-0.4-2.2
				c0-0.7,0.2-1.5,0.6-2.1c0.4-0.6,1.1-1.3,2-1.9c0.9-0.6,2.1-1,3.6-1.3s3.3-0.5,5.4-0.5v-1.4c0-1.5-0.3-2.6-1-3.3s-1.6-1.1-2.8-1.1
				c-0.8,0-1.5,0.1-2,0.3c-0.6,0.2-1,0.4-1.4,0.7c-0.4,0.3-0.8,0.4-1.1,0.7c-0.3,0.3-0.6,0.3-0.9,0.3c-0.2,0-0.4,0-0.6-0.1
				c-0.1-0.1-0.3-0.3-0.4-0.4l-0.6-1c1-1,2.1-1.7,3.3-2.2c1.2-0.5,2.5-0.7,4-0.7c1,0,2,0.1,2.8,0.5s1.5,0.8,2,1.4
				c0.5,0.6,1,1.3,1.3,2.2s0.4,1.9,0.4,2.9v9.4C235.1,645.4,236.2,645.7,236.4,645.7L236.4,645.7z M231.3,639.5
				c-1.5,0-2.8,0.1-3.9,0.3c-1,0.2-1.9,0.5-2.6,0.8c-0.7,0.3-1.2,0.7-1.5,1.1s-0.4,0.9-0.4,1.4c0,0.5,0.1,0.9,0.3,1.3
				c0.1,0.4,0.4,0.7,0.7,0.9c0.3,0.2,0.6,0.4,1,0.5s0.8,0.2,1.2,0.2c0.6,0,1.1-0.1,1.6-0.2s0.9-0.3,1.4-0.5c0.4-0.2,0.9-0.5,1.2-0.8
				s0.7-0.7,1.1-1v-4H231.3z"/>
			<path fill="#CAAD4D" d="M247.7,646.4v1.6h-8.6v-1.6c0-0.3,0.2-0.6,0.6-0.7c0.4-0.1,2.1-0.4,2.1-0.4v-13.4c0,0-1.8-0.3-2.1-0.4
				s-0.6-0.4-0.6-0.7v-1.6h6v16c0,0,1.8,0.3,2.1,0.4C247.5,645.7,247.7,646.1,247.7,646.4z M241.3,624.2c-0.1-0.3-0.2-0.6-0.2-0.9
				s0-0.6,0.2-0.9c0.1-0.3,0.3-0.6,0.5-0.8c0.2-0.2,0.4-0.4,0.7-0.5c0.3-0.1,0.6-0.2,0.9-0.2c0.3,0,0.6,0,0.9,0.2
				c0.3,0.1,0.5,0.3,0.7,0.5c0.2,0.2,0.4,0.5,0.5,0.8c0.1,0.3,0.2,0.6,0.2,0.9s-0.1,0.6-0.2,0.9s-0.3,0.5-0.5,0.7
				c-0.2,0.2-0.4,0.4-0.7,0.5c-0.3,0.1-0.6,0.2-0.9,0.2c-0.3,0-0.6,0-0.9-0.2c-0.3-0.1-0.5-0.3-0.7-0.5
				C241.6,624.7,241.4,624.5,241.3,624.2z"/>
			<path fill="#CAAD4D" d="M255.7,633c1.4-2.8,3.3-4.2,5.7-4.2c1,0,1.8,0.2,2.6,0.7l-0.4,2.5c-0.1,0.3-0.3,0.5-0.5,0.5
				c-0.2,0-0.5-0.1-0.9-0.2c-0.4-0.1-0.9-0.2-1.5-0.2c-2.1,0-3.8,1.3-4.8,3.9v9.3c0.3,0.1,1,0.2,2.1,0.4c0.4,0.1,0.6,0.3,0.6,0.7
				v1.6H250v-1.6c0-0.4,0.2-0.6,0.6-0.7l2.1-0.4v-13.4c-1.2-0.2-1.9-0.4-2.1-0.4c-0.4-0.1-0.6-0.3-0.6-0.7v-1.6h2.7h1.9
				c0.4,0,0.6,0,0.7,0.2c0.1,0.1,0.2,0.4,0.3,0.7L255.7,633L255.7,633z"/>
		</g>
	</g>
	<g id="logo" display="none">
	</g>
</g>
<g>
	<path fill="#B2B4B8" d="M207.3,704.7l-0.1-0.7h0c-0.3,0.5-0.9,0.9-1.8,0.9c-1.2,0-1.8-0.8-1.8-1.7c0-1.4,1.2-2.2,3.5-2.2v-0.1
		c0-0.5-0.1-1.3-1.3-1.3c-0.5,0-1.1,0.2-1.5,0.4l-0.2-0.7c0.5-0.3,1.2-0.5,1.9-0.5c1.8,0,2.2,1.2,2.2,2.4v2.2c0,0.5,0,1,0.1,1.4
		H207.3z M207.2,701.7c-1.2,0-2.5,0.2-2.5,1.3c0,0.7,0.5,1,1,1c0.8,0,1.2-0.5,1.4-1c0-0.1,0.1-0.2,0.1-0.3V701.7z"/>
	<path fill="#B2B4B8" d="M209.9,700.4c0-0.6,0-1.1,0-1.6h0.9l0.1,1h0c0.3-0.6,1-1.1,1.9-1.1c0.8,0,2.1,0.5,2.1,2.5v3.5h-1.1v-3.3
		c0-0.9-0.3-1.7-1.3-1.7c-0.7,0-1.2,0.5-1.4,1.1c0,0.1-0.1,0.3-0.1,0.5v3.5h-1.1V700.4z"/>
	<path fill="#B2B4B8" d="M224.4,701.7c0,2.1-1.5,3.1-2.9,3.1c-1.6,0-2.8-1.2-2.8-3c0-1.9,1.3-3.1,2.9-3.1
		C223.2,698.7,224.4,699.9,224.4,701.7z M219.7,701.8c0,1.3,0.7,2.2,1.8,2.2c1,0,1.8-0.9,1.8-2.3c0-1-0.5-2.2-1.7-2.2
		C220.3,699.5,219.7,700.7,219.7,701.8z"/>
	<path fill="#B2B4B8" d="M225.7,700.8c0-0.7,0-1.3,0-1.9h0.9l0,1h0c0.4-0.7,1.1-1.1,2.1-1.1c1.4,0,2.5,1.2,2.5,3
		c0,2.1-1.3,3.1-2.6,3.1c-0.8,0-1.4-0.3-1.8-0.9h0v3.2h-1V700.8z M226.7,702.3c0,0.2,0,0.3,0,0.4c0.2,0.7,0.8,1.2,1.6,1.2
		c1.1,0,1.8-0.9,1.8-2.2c0-1.2-0.6-2.2-1.7-2.2c-0.7,0-1.4,0.5-1.6,1.3c0,0.1-0.1,0.3-0.1,0.4V702.3z"/>
	<path fill="#B2B4B8" d="M233.1,702c0,1.4,0.9,2,2,2c0.8,0,1.2-0.1,1.6-0.3l0.2,0.8c-0.4,0.2-1,0.4-1.9,0.4c-1.8,0-2.9-1.2-2.9-2.9
		s1-3.1,2.7-3.1c1.9,0,2.4,1.7,2.4,2.7c0,0.2,0,0.4,0,0.5H233.1z M236.2,701.2c0-0.7-0.3-1.7-1.5-1.7c-1.1,0-1.5,1-1.6,1.7H236.2z"
		/>
	<path fill="#B2B4B8" d="M238.5,700.4c0-0.6,0-1.1,0-1.6h0.9l0.1,1h0c0.3-0.6,1-1.1,1.9-1.1c0.8,0,2.1,0.5,2.1,2.5v3.5h-1.1v-3.3
		c0-0.9-0.3-1.7-1.3-1.7c-0.7,0-1.2,0.5-1.4,1.1c0,0.1-0.1,0.3-0.1,0.5v3.5h-1.1V700.4z"/>
	<path fill="#B2B4B8" d="M247.6,701v0.8h-3V701H247.6z"/>
	<path fill="#B2B4B8" d="M248.7,703.6c0.3,0.2,0.9,0.4,1.4,0.4c0.8,0,1.1-0.4,1.1-0.9c0-0.5-0.3-0.8-1.1-1.1c-1-0.4-1.5-0.9-1.5-1.6
		c0-0.9,0.8-1.7,2-1.7c0.6,0,1.1,0.2,1.4,0.4l-0.3,0.8c-0.2-0.1-0.6-0.3-1.2-0.3c-0.6,0-1,0.4-1,0.8c0,0.5,0.3,0.7,1.1,1
		c1,0.4,1.5,0.9,1.5,1.8c0,1-0.8,1.7-2.2,1.7c-0.6,0-1.2-0.2-1.6-0.4L248.7,703.6z"/>
	<path fill="#B2B4B8" d="M258.9,701.7c0,2.1-1.5,3.1-2.9,3.1c-1.6,0-2.8-1.2-2.8-3c0-1.9,1.3-3.1,2.9-3.1
		C257.7,698.7,258.9,699.9,258.9,701.7z M254.3,701.8c0,1.3,0.7,2.2,1.8,2.2c1,0,1.8-0.9,1.8-2.3c0-1-0.5-2.2-1.7-2.2
		C254.8,699.5,254.3,700.7,254.3,701.8z"/>
	<path fill="#B2B4B8" d="M265.1,703.1c0,0.6,0,1.1,0,1.6h-0.9l-0.1-0.9h0c-0.3,0.5-0.9,1.1-1.9,1.1c-0.9,0-2-0.5-2-2.5v-3.4h1.1v3.2
		c0,1.1,0.3,1.8,1.3,1.8c0.7,0,1.2-0.5,1.4-1c0.1-0.2,0.1-0.3,0.1-0.5v-3.6h1.1V703.1z"/>
	<path fill="#B2B4B8" d="M266.8,700.7c0-0.7,0-1.3,0-1.8h0.9l0,1.1h0c0.3-0.8,0.9-1.3,1.6-1.3c0.1,0,0.2,0,0.3,0v1
		c-0.1,0-0.2,0-0.4,0c-0.7,0-1.3,0.6-1.4,1.4c0,0.1,0,0.3,0,0.5v3.1h-1V700.7z"/>
	<path fill="#B2B4B8" d="M274.8,704.5c-0.3,0.1-0.9,0.3-1.7,0.3c-1.8,0-2.9-1.2-2.9-3c0-1.8,1.2-3.1,3.1-3.1c0.6,0,1.2,0.2,1.5,0.3
		l-0.2,0.8c-0.3-0.1-0.6-0.3-1.2-0.3c-1.3,0-2.1,1-2.1,2.2c0,1.3,0.9,2.2,2,2.2c0.6,0,1-0.2,1.3-0.3L274.8,704.5z"/>
	<path fill="#B2B4B8" d="M276.5,702c0,1.4,0.9,2,2,2c0.8,0,1.2-0.1,1.6-0.3l0.2,0.8c-0.4,0.2-1,0.4-1.9,0.4c-1.8,0-2.9-1.2-2.9-2.9
		s1-3.1,2.7-3.1c1.9,0,2.4,1.7,2.4,2.7c0,0.2,0,0.4,0,0.5H276.5z M279.6,701.2c0-0.7-0.3-1.7-1.5-1.7c-1.1,0-1.5,1-1.6,1.7H279.6z"
		/>
	<path fill="#B2B4B8" d="M285.8,697.2v1.7h1.5v0.8h-1.5v3.1c0,0.7,0.2,1.1,0.8,1.1c0.3,0,0.5,0,0.6-0.1l0,0.8
		c-0.2,0.1-0.5,0.1-0.9,0.1c-0.5,0-0.9-0.2-1.1-0.4c-0.3-0.3-0.4-0.8-0.4-1.5v-3.2h-0.9v-0.8h0.9v-1.4L285.8,697.2z"/>
	<path fill="#B2B4B8" d="M293.6,701.7c0,2.1-1.5,3.1-2.9,3.1c-1.6,0-2.8-1.2-2.8-3c0-1.9,1.3-3.1,2.9-3.1
		C292.5,698.7,293.6,699.9,293.6,701.7z M289,701.8c0,1.3,0.7,2.2,1.8,2.2c1,0,1.8-0.9,1.8-2.3c0-1-0.5-2.2-1.7-2.2
		C289.6,699.5,289,700.7,289,701.8z"/>
	<path fill="#B2B4B8" d="M300.2,701.7c0,2.1-1.5,3.1-2.9,3.1c-1.6,0-2.8-1.2-2.8-3c0-1.9,1.3-3.1,2.9-3.1
		C299.1,698.7,300.2,699.9,300.2,701.7z M295.6,701.8c0,1.3,0.7,2.2,1.8,2.2c1,0,1.8-0.9,1.8-2.3c0-1-0.5-2.2-1.7-2.2
		C296.2,699.5,295.6,700.7,295.6,701.8z"/>
	<path fill="#B2B4B8" d="M301.6,696.2h1.1v8.5h-1.1V696.2z"/>
	<path fill="#B2B4B8" d="M307,704.7v-5h-0.8v-0.8h0.8v-0.3c0-0.8,0.2-1.6,0.7-2c0.4-0.4,0.9-0.5,1.4-0.5c0.4,0,0.7,0.1,0.9,0.2
		l-0.1,0.8c-0.2-0.1-0.4-0.1-0.7-0.1c-0.9,0-1.1,0.8-1.1,1.7v0.3h1.4v0.8h-1.4v5H307z"/>
	<path fill="#B2B4B8" d="M315.5,701.7c0,2.1-1.5,3.1-2.9,3.1c-1.6,0-2.8-1.2-2.8-3c0-1.9,1.3-3.1,2.9-3.1
		C314.4,698.7,315.5,699.9,315.5,701.7z M310.9,701.8c0,1.3,0.7,2.2,1.8,2.2c1,0,1.8-0.9,1.8-2.3c0-1-0.5-2.2-1.7-2.2
		S310.9,700.7,310.9,701.8z"/>
	<path fill="#B2B4B8" d="M316.9,700.7c0-0.7,0-1.3,0-1.8h0.9l0,1.1h0c0.3-0.8,0.9-1.3,1.6-1.3c0.1,0,0.2,0,0.3,0v1
		c-0.1,0-0.2,0-0.4,0c-0.7,0-1.3,0.6-1.4,1.4c0,0.1,0,0.3,0,0.5v3.1h-1V700.7z"/>
	<path fill="#B2B4B8" d="M328.4,696.2v7c0,0.5,0,1.1,0,1.5h-0.9l0-1h0c-0.3,0.6-1,1.1-2,1.1c-1.4,0-2.5-1.2-2.5-3
		c0-1.9,1.2-3.1,2.6-3.1c0.9,0,1.5,0.4,1.8,0.9h0v-3.5H328.4z M327.3,701.2c0-0.1,0-0.3,0-0.4c-0.2-0.7-0.7-1.2-1.5-1.2
		c-1.1,0-1.7,1-1.7,2.2c0,1.2,0.6,2.1,1.7,2.1c0.7,0,1.4-0.5,1.5-1.3c0-0.1,0-0.3,0-0.5V701.2z"/>
	<path fill="#B2B4B8" d="M331.3,697.2c0,0.4-0.3,0.6-0.7,0.6c-0.4,0-0.6-0.3-0.6-0.6c0-0.4,0.3-0.7,0.7-0.7
		C331,696.6,331.3,696.9,331.3,697.2z M330.1,704.7v-5.8h1.1v5.8H330.1z"/>
	<path fill="#B2B4B8" d="M332.8,703.6c0.3,0.2,0.9,0.4,1.4,0.4c0.8,0,1.1-0.4,1.1-0.9c0-0.5-0.3-0.8-1.1-1.1c-1-0.4-1.5-0.9-1.5-1.6
		c0-0.9,0.8-1.7,2-1.7c0.6,0,1.1,0.2,1.4,0.4l-0.3,0.8c-0.2-0.1-0.6-0.3-1.2-0.3c-0.6,0-1,0.4-1,0.8c0,0.5,0.3,0.7,1.1,1
		c1,0.4,1.5,0.9,1.5,1.8c0,1-0.8,1.7-2.2,1.7c-0.6,0-1.2-0.2-1.6-0.4L332.8,703.6z"/>
	<path fill="#B2B4B8" d="M341.8,704.5c-0.3,0.1-0.9,0.3-1.7,0.3c-1.8,0-2.9-1.2-2.9-3c0-1.8,1.2-3.1,3.1-3.1c0.6,0,1.2,0.2,1.5,0.3
		l-0.2,0.8c-0.3-0.1-0.6-0.3-1.2-0.3c-1.3,0-2.1,1-2.1,2.2c0,1.3,0.9,2.2,2,2.2c0.6,0,1-0.2,1.3-0.3L341.8,704.5z"/>
	<path fill="#B2B4B8" d="M348.2,701.7c0,2.1-1.5,3.1-2.9,3.1c-1.6,0-2.8-1.2-2.8-3c0-1.9,1.3-3.1,2.9-3.1
		C347.1,698.7,348.2,699.9,348.2,701.7z M343.6,701.8c0,1.3,0.7,2.2,1.8,2.2c1,0,1.8-0.9,1.8-2.3c0-1-0.5-2.2-1.7-2.2
		C344.2,699.5,343.6,700.7,343.6,701.8z"/>
	<path fill="#B2B4B8" d="M349.9,698.9l1.1,3.3c0.2,0.5,0.3,1,0.5,1.5h0c0.1-0.5,0.3-1,0.5-1.5l1.1-3.3h1.1l-2.3,5.8h-1l-2.2-5.8
		H349.9z"/>
	<path fill="#B2B4B8" d="M355.7,702c0,1.4,0.9,2,2,2c0.8,0,1.2-0.1,1.6-0.3l0.2,0.8c-0.4,0.2-1,0.4-1.9,0.4c-1.8,0-2.9-1.2-2.9-2.9
		s1-3.1,2.7-3.1c1.9,0,2.4,1.7,2.4,2.7c0,0.2,0,0.4,0,0.5H355.7z M358.8,701.2c0-0.7-0.3-1.7-1.5-1.7c-1.1,0-1.5,1-1.6,1.7H358.8z"
		/>
	<path fill="#B2B4B8" d="M361.1,700.7c0-0.7,0-1.3,0-1.8h0.9l0,1.1h0c0.3-0.8,0.9-1.3,1.6-1.3c0.1,0,0.2,0,0.3,0v1
		c-0.1,0-0.2,0-0.4,0c-0.7,0-1.3,0.6-1.4,1.4c0,0.1,0,0.3,0,0.5v3.1h-1V700.7z"/>
	<path fill="#B2B4B8" d="M366.3,697.2c0,0.4-0.3,0.6-0.7,0.6c-0.4,0-0.6-0.3-0.6-0.6c0-0.4,0.3-0.7,0.7-0.7
		C366,696.6,366.3,696.9,366.3,697.2z M365.1,704.7v-5.8h1.1v5.8H365.1z"/>
	<path fill="#B2B4B8" d="M367.9,700.4c0-0.6,0-1.1,0-1.6h0.9l0.1,1h0c0.3-0.6,1-1.1,1.9-1.1c0.8,0,2.1,0.5,2.1,2.5v3.5h-1.1v-3.3
		c0-0.9-0.3-1.7-1.3-1.7c-0.7,0-1.2,0.5-1.4,1.1c0,0.1-0.1,0.3-0.1,0.5v3.5h-1.1V700.4z"/>
	<path fill="#B2B4B8" d="M379.6,698.9c0,0.4,0,0.9,0,1.6v3.4c0,1.3-0.3,2.1-0.8,2.7c-0.6,0.5-1.4,0.7-2.1,0.7
		c-0.7,0-1.5-0.2-1.9-0.5l0.3-0.8c0.4,0.2,1,0.5,1.7,0.5c1.1,0,1.9-0.6,1.9-2v-0.6h0c-0.3,0.5-0.9,1-1.8,1c-1.4,0-2.5-1.2-2.5-2.8
		c0-2,1.3-3.1,2.6-3.1c1,0,1.6,0.5,1.8,1h0l0-0.9H379.6z M378.5,701.2c0-0.2,0-0.3-0.1-0.5c-0.2-0.6-0.7-1.1-1.5-1.1
		c-1,0-1.7,0.9-1.7,2.2c0,1.1,0.6,2.1,1.7,2.1c0.6,0,1.2-0.4,1.5-1.1c0.1-0.2,0.1-0.4,0.1-0.6V701.2z"/>
	<path fill="#B2B4B8" d="M380.4,706.1c0.3-0.7,0.6-2,0.7-2.9l1.2-0.1c-0.3,1-0.8,2.4-1.1,2.9L380.4,706.1z"/>
	<path fill="#B2B4B8" d="M208.2,718.9c-0.3,0.1-0.9,0.3-1.7,0.3c-1.8,0-2.9-1.2-2.9-3c0-1.8,1.2-3.1,3.1-3.1c0.6,0,1.2,0.2,1.5,0.3
		l-0.2,0.8c-0.3-0.1-0.6-0.3-1.2-0.3c-1.3,0-2.1,1-2.1,2.2c0,1.3,0.9,2.2,2,2.2c0.6,0,1-0.2,1.3-0.3L208.2,718.9z"/>
	<path fill="#B2B4B8" d="M214.7,716.1c0,2.1-1.5,3.1-2.9,3.1c-1.6,0-2.8-1.2-2.8-3c0-1.9,1.3-3.1,2.9-3.1
		C213.5,713.1,214.7,714.3,214.7,716.1z M210.1,716.2c0,1.3,0.7,2.2,1.8,2.2c1,0,1.8-0.9,1.8-2.3c0-1-0.5-2.2-1.7-2.2
		C210.6,713.9,210.1,715.1,210.1,716.2z"/>
	<path fill="#B2B4B8" d="M216,710.6h1.1v8.5H216V710.6z"/>
	<path fill="#B2B4B8" d="M218.8,710.6h1.1v8.5h-1.1V710.6z"/>
	<path fill="#B2B4B8" d="M222.3,716.4c0,1.4,0.9,2,2,2c0.8,0,1.2-0.1,1.6-0.3l0.2,0.8c-0.4,0.2-1,0.4-1.9,0.4
		c-1.8,0-2.9-1.2-2.9-2.9s1-3.1,2.7-3.1c1.9,0,2.4,1.7,2.4,2.7c0,0.2,0,0.4,0,0.5H222.3z M225.3,715.6c0-0.7-0.3-1.7-1.5-1.7
		c-1.1,0-1.5,1-1.6,1.7H225.3z"/>
	<path fill="#B2B4B8" d="M231.8,718.9c-0.3,0.1-0.9,0.3-1.7,0.3c-1.8,0-2.9-1.2-2.9-3c0-1.8,1.2-3.1,3.1-3.1c0.6,0,1.2,0.2,1.5,0.3
		l-0.2,0.8c-0.3-0.1-0.6-0.3-1.2-0.3c-1.3,0-2.1,1-2.1,2.2c0,1.3,0.9,2.2,2,2.2c0.6,0,1-0.2,1.3-0.3L231.8,718.9z"/>
	<path fill="#B2B4B8" d="M234.5,711.6v1.7h1.5v0.8h-1.5v3.1c0,0.7,0.2,1.1,0.8,1.1c0.3,0,0.5,0,0.6-0.1l0,0.8
		c-0.2,0.1-0.5,0.1-0.9,0.1c-0.5,0-0.9-0.2-1.1-0.4c-0.3-0.3-0.4-0.8-0.4-1.5v-3.2h-0.9v-0.8h0.9v-1.4L234.5,711.6z"/>
	<path fill="#B2B4B8" d="M238.4,711.6c0,0.4-0.3,0.6-0.7,0.6c-0.4,0-0.6-0.3-0.6-0.6c0-0.4,0.3-0.7,0.7-0.7
		C238.1,711,238.4,711.3,238.4,711.6z M237.2,719.1v-5.8h1.1v5.8H237.2z"/>
	<path fill="#B2B4B8" d="M240,714.8c0-0.6,0-1.1,0-1.6h0.9l0.1,1h0c0.3-0.6,1-1.1,1.9-1.1c0.8,0,2.1,0.5,2.1,2.5v3.5h-1.1v-3.3
		c0-0.9-0.3-1.7-1.3-1.7c-0.7,0-1.2,0.5-1.4,1.1c0,0.1-0.1,0.3-0.1,0.5v3.5H240V714.8z"/>
	<path fill="#B2B4B8" d="M251.7,713.3c0,0.4,0,0.9,0,1.6v3.4c0,1.3-0.3,2.1-0.8,2.7c-0.6,0.5-1.4,0.7-2.1,0.7
		c-0.7,0-1.5-0.2-1.9-0.5l0.3-0.8c0.4,0.2,1,0.5,1.7,0.5c1.1,0,1.9-0.6,1.9-2v-0.6h0c-0.3,0.5-0.9,1-1.8,1c-1.4,0-2.5-1.2-2.5-2.8
		c0-2,1.3-3.1,2.6-3.1c1,0,1.6,0.5,1.8,1h0l0-0.9H251.7z M250.6,715.6c0-0.2,0-0.3-0.1-0.5c-0.2-0.6-0.7-1.1-1.5-1.1
		c-1,0-1.7,0.9-1.7,2.2c0,1.1,0.6,2.1,1.7,2.1c0.6,0,1.2-0.4,1.5-1.1c0.1-0.2,0.1-0.4,0.1-0.6V715.6z"/>
	<path fill="#B2B4B8" d="M252.5,720.5c0.3-0.7,0.6-2,0.7-2.9l1.2-0.1c-0.3,1-0.8,2.4-1.1,2.9L252.5,720.5z"/>
	<path fill="#B2B4B8" d="M261.4,719.1l-0.1-0.7h0c-0.3,0.5-0.9,0.9-1.8,0.9c-1.2,0-1.8-0.8-1.8-1.7c0-1.4,1.2-2.2,3.5-2.2v-0.1
		c0-0.5-0.1-1.3-1.3-1.3c-0.5,0-1.1,0.2-1.5,0.4l-0.2-0.7c0.5-0.3,1.2-0.5,1.9-0.5c1.8,0,2.2,1.2,2.2,2.4v2.2c0,0.5,0,1,0.1,1.4
		H261.4z M261.3,716.1c-1.2,0-2.5,0.2-2.5,1.3c0,0.7,0.5,1,1,1c0.8,0,1.2-0.5,1.4-1c0-0.1,0.1-0.2,0.1-0.3V716.1z"/>
	<path fill="#B2B4B8" d="M264,714.8c0-0.6,0-1.1,0-1.6h0.9l0.1,1h0c0.3-0.6,1-1.1,1.9-1.1c0.8,0,2.1,0.5,2.1,2.5v3.5h-1.1v-3.3
		c0-0.9-0.3-1.7-1.3-1.7c-0.7,0-1.2,0.5-1.4,1.1c0,0.1-0.1,0.3-0.1,0.5v3.5H264V714.8z"/>
	<path fill="#B2B4B8" d="M275.7,710.6v7c0,0.5,0,1.1,0,1.5h-0.9l0-1h0c-0.3,0.6-1,1.1-2,1.1c-1.4,0-2.5-1.2-2.5-3
		c0-1.9,1.2-3.1,2.6-3.1c0.9,0,1.5,0.4,1.8,0.9h0v-3.5H275.7z M274.6,715.6c0-0.1,0-0.3,0-0.4c-0.2-0.7-0.7-1.2-1.5-1.2
		c-1.1,0-1.7,1-1.7,2.2c0,1.2,0.6,2.1,1.7,2.1c0.7,0,1.4-0.5,1.5-1.3c0-0.1,0-0.3,0-0.5V715.6z"/>
	<path fill="#B2B4B8" d="M280,715.1c0-0.7,0-1.3,0-1.8h0.9l0,1.1h0c0.3-0.8,0.9-1.3,1.6-1.3c0.1,0,0.2,0,0.3,0v1c-0.1,0-0.2,0-0.4,0
		c-0.7,0-1.3,0.6-1.4,1.4c0,0.1,0,0.3,0,0.5v3.1h-1V715.1z"/>
	<path fill="#B2B4B8" d="M284.4,716.4c0,1.4,0.9,2,2,2c0.8,0,1.2-0.1,1.6-0.3l0.2,0.8c-0.4,0.2-1,0.4-1.9,0.4
		c-1.8,0-2.9-1.2-2.9-2.9s1-3.1,2.7-3.1c1.9,0,2.4,1.7,2.4,2.7c0,0.2,0,0.4,0,0.5H284.4z M287.4,715.6c0-0.7-0.3-1.7-1.5-1.7
		c-1.1,0-1.5,1-1.6,1.7H287.4z"/>
	<path fill="#B2B4B8" d="M293,719.1l-0.1-0.7h0c-0.3,0.5-0.9,0.9-1.8,0.9c-1.2,0-1.8-0.8-1.8-1.7c0-1.4,1.2-2.2,3.5-2.2v-0.1
		c0-0.5-0.1-1.3-1.3-1.3c-0.5,0-1.1,0.2-1.5,0.4l-0.2-0.7c0.5-0.3,1.2-0.5,1.9-0.5c1.8,0,2.2,1.2,2.2,2.4v2.2c0,0.5,0,1,0.1,1.4H293
		z M292.8,716.1c-1.2,0-2.5,0.2-2.5,1.3c0,0.7,0.5,1,1,1c0.8,0,1.2-0.5,1.4-1c0-0.1,0.1-0.2,0.1-0.3V716.1z"/>
	<path fill="#B2B4B8" d="M300.6,710.6v7c0,0.5,0,1.1,0,1.5h-0.9l0-1h0c-0.3,0.6-1,1.1-2,1.1c-1.4,0-2.5-1.2-2.5-3
		c0-1.9,1.2-3.1,2.6-3.1c0.9,0,1.5,0.4,1.8,0.9h0v-3.5H300.6z M299.5,715.6c0-0.1,0-0.3,0-0.4c-0.2-0.7-0.7-1.2-1.5-1.2
		c-1.1,0-1.7,1-1.7,2.2c0,1.2,0.6,2.1,1.7,2.1c0.7,0,1.4-0.5,1.5-1.3c0-0.1,0-0.3,0-0.5V715.6z"/>
	<path fill="#B2B4B8" d="M303.5,711.6c0,0.4-0.3,0.6-0.7,0.6c-0.4,0-0.6-0.3-0.6-0.6c0-0.4,0.3-0.7,0.7-0.7
		C303.3,711,303.5,711.3,303.5,711.6z M302.3,719.1v-5.8h1.1v5.8H302.3z"/>
	<path fill="#B2B4B8" d="M305.1,714.8c0-0.6,0-1.1,0-1.6h0.9l0.1,1h0c0.3-0.6,1-1.1,1.9-1.1c0.8,0,2.1,0.5,2.1,2.5v3.5H309v-3.3
		c0-0.9-0.3-1.7-1.3-1.7c-0.7,0-1.2,0.5-1.4,1.1c0,0.1-0.1,0.3-0.1,0.5v3.5h-1.1V714.8z"/>
	<path fill="#B2B4B8" d="M316.8,713.3c0,0.4,0,0.9,0,1.6v3.4c0,1.3-0.3,2.1-0.8,2.7c-0.6,0.5-1.4,0.7-2.1,0.7
		c-0.7,0-1.5-0.2-1.9-0.5l0.3-0.8c0.4,0.2,1,0.5,1.7,0.5c1.1,0,1.9-0.6,1.9-2v-0.6h0c-0.3,0.5-0.9,1-1.8,1c-1.4,0-2.5-1.2-2.5-2.8
		c0-2,1.3-3.1,2.6-3.1c1,0,1.6,0.5,1.8,1h0l0-0.9H316.8z M315.7,715.6c0-0.2,0-0.3-0.1-0.5c-0.2-0.6-0.7-1.1-1.5-1.1
		c-1,0-1.7,0.9-1.7,2.2c0,1.1,0.6,2.1,1.7,2.1c0.6,0,1.2-0.4,1.5-1.1c0.1-0.2,0.1-0.4,0.1-0.6V715.6z"/>
	<path fill="#B2B4B8" d="M320.9,718c0.3,0.2,0.9,0.4,1.4,0.4c0.8,0,1.1-0.4,1.1-0.9c0-0.5-0.3-0.8-1.1-1.1c-1-0.4-1.5-0.9-1.5-1.6
		c0-0.9,0.8-1.7,2-1.7c0.6,0,1.1,0.2,1.4,0.4l-0.3,0.8c-0.2-0.1-0.6-0.3-1.2-0.3c-0.6,0-1,0.4-1,0.8c0,0.5,0.3,0.7,1.1,1
		c1,0.4,1.5,0.9,1.5,1.8c0,1-0.8,1.7-2.2,1.7c-0.6,0-1.2-0.2-1.6-0.4L320.9,718z"/>
	<path fill="#B2B4B8" d="M329.9,718.9c-0.3,0.1-0.9,0.3-1.7,0.3c-1.8,0-2.9-1.2-2.9-3c0-1.8,1.2-3.1,3.1-3.1c0.6,0,1.2,0.2,1.5,0.3
		l-0.2,0.8c-0.3-0.1-0.6-0.3-1.2-0.3c-1.3,0-2.1,1-2.1,2.2c0,1.3,0.9,2.2,2,2.2c0.6,0,1-0.2,1.3-0.3L329.9,718.9z"/>
	<path fill="#B2B4B8" d="M332.4,711.6c0,0.4-0.3,0.6-0.7,0.6c-0.4,0-0.6-0.3-0.6-0.6c0-0.4,0.3-0.7,0.7-0.7
		C332.1,711,332.4,711.3,332.4,711.6z M331.2,719.1v-5.8h1.1v5.8H331.2z"/>
	<path fill="#B2B4B8" d="M334.6,716.4c0,1.4,0.9,2,2,2c0.8,0,1.2-0.1,1.6-0.3l0.2,0.8c-0.4,0.2-1,0.4-1.9,0.4
		c-1.8,0-2.9-1.2-2.9-2.9s1-3.1,2.7-3.1c1.9,0,2.4,1.7,2.4,2.7c0,0.2,0,0.4,0,0.5H334.6z M337.7,715.6c0-0.7-0.3-1.7-1.5-1.7
		c-1.1,0-1.5,1-1.6,1.7H337.7z"/>
	<path fill="#B2B4B8" d="M340,714.8c0-0.6,0-1.1,0-1.6h0.9l0.1,1h0c0.3-0.6,1-1.1,1.9-1.1c0.8,0,2.1,0.5,2.1,2.5v3.5h-1.1v-3.3
		c0-0.9-0.3-1.7-1.3-1.7c-0.7,0-1.2,0.5-1.4,1.1c0,0.1-0.1,0.3-0.1,0.5v3.5H340V714.8z"/>
	<path fill="#B2B4B8" d="M347.9,711.6v1.7h1.5v0.8h-1.5v3.1c0,0.7,0.2,1.1,0.8,1.1c0.3,0,0.5,0,0.6-0.1l0,0.8
		c-0.2,0.1-0.5,0.1-0.9,0.1c-0.5,0-0.9-0.2-1.1-0.4c-0.3-0.3-0.4-0.8-0.4-1.5v-3.2H346v-0.8h0.9v-1.4L347.9,711.6z"/>
	<path fill="#B2B4B8" d="M351.8,711.6c0,0.4-0.3,0.6-0.7,0.6c-0.4,0-0.6-0.3-0.6-0.6c0-0.4,0.3-0.7,0.7-0.7
		C351.5,711,351.8,711.3,351.8,711.6z M350.6,719.1v-5.8h1.1v5.8H350.6z"/>
	<path fill="#B2B4B8" d="M353.5,719.1v-5h-0.8v-0.8h0.8V713c0-1.5,0.9-2.5,2.5-2.5c0.5,0,1.2,0.2,1.5,0.4l-0.3,0.8
		c-0.3-0.2-0.7-0.3-1.2-0.3c-1.1,0-1.4,0.8-1.4,1.7v0.3h3.4v5.8h-1v-5h-2.3v5H353.5z"/>
	<path fill="#B2B4B8" d="M363.8,718.9c-0.3,0.1-0.9,0.3-1.7,0.3c-1.8,0-2.9-1.2-2.9-3c0-1.8,1.2-3.1,3.1-3.1c0.6,0,1.2,0.2,1.5,0.3
		l-0.2,0.8c-0.3-0.1-0.6-0.3-1.2-0.3c-1.3,0-2.1,1-2.1,2.2c0,1.3,0.9,2.2,2,2.2c0.6,0,1-0.2,1.3-0.3L363.8,718.9z"/>
	<path fill="#B2B4B8" d="M370.8,719.1l-0.1-0.7h0c-0.3,0.5-0.9,0.9-1.8,0.9c-1.2,0-1.8-0.8-1.8-1.7c0-1.4,1.2-2.2,3.5-2.2v-0.1
		c0-0.5-0.1-1.3-1.3-1.3c-0.5,0-1.1,0.2-1.5,0.4l-0.2-0.7c0.5-0.3,1.2-0.5,1.9-0.5c1.8,0,2.2,1.2,2.2,2.4v2.2c0,0.5,0,1,0.1,1.4
		H370.8z M370.6,716.1c-1.2,0-2.5,0.2-2.5,1.3c0,0.7,0.5,1,1,1c0.8,0,1.2-0.5,1.4-1c0-0.1,0.1-0.2,0.1-0.3V716.1z"/>
	<path fill="#B2B4B8" d="M373.4,715.1c0-0.7,0-1.3,0-1.8h0.9l0,1.1h0c0.3-0.8,0.9-1.3,1.6-1.3c0.1,0,0.2,0,0.3,0v1
		c-0.1,0-0.2,0-0.4,0c-0.7,0-1.3,0.6-1.4,1.4c0,0.1,0,0.3,0,0.5v3.1h-1V715.1z"/>
	<path fill="#B2B4B8" d="M378.9,711.6v1.7h1.5v0.8h-1.5v3.1c0,0.7,0.2,1.1,0.8,1.1c0.3,0,0.5,0,0.6-0.1l0,0.8
		c-0.2,0.1-0.5,0.1-0.9,0.1c-0.5,0-0.9-0.2-1.1-0.4c-0.3-0.3-0.4-0.8-0.4-1.5v-3.2h-0.9v-0.8h0.9v-1.4L378.9,711.6z"/>
	<path fill="#B2B4B8" d="M382.7,711.6c0,0.4-0.3,0.6-0.7,0.6c-0.4,0-0.6-0.3-0.6-0.6c0-0.4,0.3-0.7,0.7-0.7
		C382.5,711,382.7,711.3,382.7,711.6z M381.6,719.1v-5.8h1.1v5.8H381.6z"/>
	<path fill="#B2B4B8" d="M388.5,718.9c-0.3,0.1-0.9,0.3-1.7,0.3c-1.8,0-2.9-1.2-2.9-3c0-1.8,1.2-3.1,3.1-3.1c0.6,0,1.2,0.2,1.5,0.3
		l-0.2,0.8c-0.3-0.1-0.6-0.3-1.2-0.3c-1.3,0-2.1,1-2.1,2.2c0,1.3,0.9,2.2,2,2.2c0.6,0,1-0.2,1.3-0.3L388.5,718.9z"/>
	<path fill="#B2B4B8" d="M389.7,710.6h1.1v8.5h-1.1V710.6z"/>
	<path fill="#B2B4B8" d="M393.2,716.4c0,1.4,0.9,2,2,2c0.8,0,1.2-0.1,1.6-0.3l0.2,0.8c-0.4,0.2-1,0.4-1.9,0.4
		c-1.8,0-2.9-1.2-2.9-2.9s1-3.1,2.7-3.1c1.9,0,2.4,1.7,2.4,2.7c0,0.2,0,0.4,0,0.5H393.2z M396.3,715.6c0-0.7-0.3-1.7-1.5-1.7
		c-1.1,0-1.5,1-1.6,1.7H396.3z"/>
	<path fill="#B2B4B8" d="M398.4,718c0.3,0.2,0.9,0.4,1.4,0.4c0.8,0,1.1-0.4,1.1-0.9c0-0.5-0.3-0.8-1.1-1.1c-1-0.4-1.5-0.9-1.5-1.6
		c0-0.9,0.8-1.7,2-1.7c0.6,0,1.1,0.2,1.4,0.4l-0.3,0.8c-0.2-0.1-0.6-0.3-1.2-0.3c-0.6,0-1,0.4-1,0.8c0,0.5,0.3,0.7,1.1,1
		c1,0.4,1.5,0.9,1.5,1.8c0,1-0.8,1.7-2.2,1.7c-0.6,0-1.2-0.2-1.6-0.4L398.4,718z"/>
</g>
</svg>
