<svg xmlns="http://www.w3.org/2000/svg" xmlns:xlink="http://www.w3.org/1999/xlink" version="1.1" x="0px" y="0px" viewBox="0 0 100 100" enable-background="new 0 0 100 100" xml:space="preserve"><g><rect x="25.452" y="51.715" width="31.166" height="8.191"></rect><rect x="25.452" y="37.971" width="31.166" height="8.175"></rect><rect x="25.452" y="65.474" width="31.166" height="8.166"></rect><g><path fill="#000000" d="M87.956,26.274H73.67V12.25c0-1.845-1.521-2-3.402-2c-1.879,0-3.414,0.155-3.414,2v14.024H52.565    c-1.879,0-2.05,1.502-2.05,3.337c0,1.844,0.171,3.341,2.05,3.341h14.288v14.024c0,1.834,1.535,2,3.414,2    c1.882,0,3.402-0.166,3.402-2V32.952h14.286c1.885,0,2.044-1.498,2.044-3.341C90,27.776,89.841,26.274,87.956,26.274z"></path></g><path fill="#000000" d="M79.237,54.496v28.792H16.462V22.943h18.597v-6.926l-23.75,0.04c-0.73,0-1.309,0.727-1.309,1.622   l0.05,70.959c0,0.891,0.599,1.617,1.33,1.612l72.996-0.074c0.729,0,1.318-0.722,1.318-1.623l-0.029-34.057H79.237z"></path></g></svg>