<svg xmlns="http://www.w3.org/2000/svg" xmlns:xlink="http://www.w3.org/1999/xlink" viewBox="0 0 100 100" version="1.1" x="0px" y="0px"><title>collection</title><desc>Created with Sketch.</desc><g stroke="none" stroke-width="1" fill="none" fill-rule="evenodd"><path d="M64.3530769,80.9946154 L66.6607692,80.9946154 L66.6607692,32.1015385 L64.3530769,32.1015385 L64.3530769,80.9946154 Z M48.8476923,80.9946154 L51.1553846,80.9946154 L51.1553846,32.1015385 L48.8476923,32.1015385 L48.8476923,80.9946154 Z M33.3446154,80.9946154 L35.6523077,80.9946154 L35.6523077,32.1015385 L33.3446154,32.1015385 L33.3446154,80.9946154 Z M59.1123077,9.66615385 C59.1123077,8.36461538 58.0530769,7.30769231 56.7515385,7.30769231 L43.2515385,7.30769231 C41.95,7.30769231 40.8907692,8.36461538 40.8907692,9.66615385 L40.8907692,13.5569231 L59.1123077,13.5569231 L59.1123077,9.66615385 Z M90.0007692,18.2253846 L90.0007692,26.0046154 L87.6930769,26.0046154 L87.6930769,18.2253846 C87.6930769,16.9238462 86.6338462,15.8646154 85.3346154,15.8646154 L14.6684615,15.8646154 C13.3669231,15.8646154 12.3076923,16.9238462 12.3076923,18.2253846 L12.3076923,26.0046154 L10,26.0046154 L10,18.2253846 C10,15.6523077 12.0953846,13.5569231 14.6684615,13.5569231 L38.5830769,13.5569231 L38.5830769,9.66615385 C38.5830769,7.09307692 40.6761538,5 43.2515385,5 L56.7515385,5 C59.3246154,5 61.42,7.09307692 61.42,9.66615385 L61.42,13.5569231 L85.3346154,13.5569231 C87.9076923,13.5569231 90.0007692,15.6523077 90.0007692,18.2253846 L90.0007692,18.2253846 Z M79.8584615,22.5961538 L82.1661538,22.5961538 L82.1661538,87.3823077 C82.1661538,91.5823077 78.7484615,95 74.5484615,95 L25.4546154,95 C21.2546154,95 17.8392308,91.5823077 17.8392308,87.3823077 L17.8392308,22.5961538 L20.1469231,22.5961538 L20.1469231,87.3823077 C20.1469231,90.3107692 22.5261538,92.6923077 25.4546154,92.6923077 L74.5484615,92.6923077 C77.4769231,92.6923077 79.8584615,90.3107692 79.8584615,87.3823077 L79.8584615,22.5961538 Z" fill="#000000"></path></g></svg>