<svg xmlns:dc="http://purl.org/dc/elements/1.1/" xmlns:cc="http://creativecommons.org/ns#" xmlns:rdf="http://www.w3.org/1999/02/22-rdf-syntax-ns#" xmlns:svg="http://www.w3.org/2000/svg" xmlns="http://www.w3.org/2000/svg" xmlns:sodipodi="http://sodipodi.sourceforge.net/DTD/sodipodi-0.dtd" xmlns:inkscape="http://www.inkscape.org/namespaces/inkscape" version="1.1" x="0px" y="0px" viewBox="0 0 100 100"><g transform="translate(0,-952.36218)"><path style="text-indent:0;text-transform:none;direction:ltr;block-progression:tb;baseline-shift:baseline;color:#000000;enable-background:accumulate;" d="m 17.750009,1033.3566 a 3.0003,3.0003 0 0 1 -2.75,-3 l 0,-45.99994 c 0,-7.15011 5.84989,-13 13,-13 l 44,0 c 7.15011,0 13,5.84989 13,13 l 0,21.99994 c 0,7.1501 -5.84989,13 -13,13 l -36.84375,0 -15.1875,13.2812 a 3.0003,3.0003 0 0 1 -2.21875,0.7188 z m 3.25,-9.5938 11.03125,-9.6562 a 3.0003,3.0003 0 0 1 1.96875,-0.75 l 38,0 c 3.92991,0 7,-3.0701 7,-7 l 0,-21.99994 c 0,-3.92991 -3.07009,-7 -7,-7 l -44,0 c -3.92991,0 -7,3.07009 -7,7 l 0,39.40614 z" fill="#000000" fill-opacity="1" stroke="none" marker="none" visibility="visible" display="inline" overflow="visible"></path></g></svg>