<svg xmlns:dc="http://purl.org/dc/elements/1.1/" xmlns:cc="http://creativecommons.org/ns#" xmlns:rdf="http://www.w3.org/1999/02/22-rdf-syntax-ns#" xmlns:svg="http://www.w3.org/2000/svg" xmlns="http://www.w3.org/2000/svg" xmlns:sodipodi="http://sodipodi.sourceforge.net/DTD/sodipodi-0.dtd" xmlns:inkscape="http://www.inkscape.org/namespaces/inkscape" version="1.1" x="0px" y="0px" viewBox="0 0 100 100"><g transform="translate(0,-952.36218)"><path style="text-indent:0;text-transform:none;direction:ltr;block-progression:tb;baseline-shift:baseline;color:#000000;enable-background:accumulate;" d="m 56.81245,980.34187 a 3.0003,3.0003 0 0 0 -2.625,2 l -14,37.99993 a 3.0010258,3.0010258 0 1 0 5.625,2.0938 l 14,-37.99998 a 3.0003,3.0003 0 0 0 -3,-4.09375 z m -23.0312,7.03128 a 3.0003,3.0003 0 0 0 -1.3125,0.4375 l -20,12 a 3.0003,3.0003 0 0 0 0,5.15615 l 20,12 a 3.0003,3.0003 0 1 0 3.0625,-5.1562 l -15.6875,-9.4063 15.6875,-9.43745 a 3.0003,3.0003 0 0 0 -1.75,-5.5937 z m 32.0312,0 a 3.0003,3.0003 0 0 0 -1.3437,5.5937 l 15.6875,9.43745 -15.6875,9.4063 a 3.0003,3.0003 0 1 0 3.0625,5.1562 l 20,-12 a 3.0003,3.0003 0 0 0 0,-5.15615 l -20,-12 a 3.0003,3.0003 0 0 0 -1.7188,-0.4375 z" fill="#000000" fill-opacity="1" stroke="none" marker="none" visibility="visible" display="inline" overflow="visible"></path></g></svg>