<svg xmlns:dc="http://purl.org/dc/elements/1.1/" xmlns:cc="http://creativecommons.org/ns#" xmlns:rdf="http://www.w3.org/1999/02/22-rdf-syntax-ns#" xmlns:svg="http://www.w3.org/2000/svg" xmlns="http://www.w3.org/2000/svg" xmlns:sodipodi="http://sodipodi.sourceforge.net/DTD/sodipodi-0.dtd" xmlns:inkscape="http://www.inkscape.org/namespaces/inkscape" fill="#000000" version="1.1" x="0px" y="0px" viewBox="0 0 100 100"><path style="font-size:medium;font-style:normal;font-variant:normal;font-weight:normal;font-stretch:normal;text-indent:0;text-align:start;text-decoration:none;line-height:normal;letter-spacing:normal;word-spacing:normal;text-transform:none;direction:ltr;block-progression:tb;writing-mode:lr-tb;text-anchor:start;baseline-shift:baseline;opacity:1;color:#000000;fill:#000000;fill-opacity:1;stroke:none;stroke-width:6;marker:none;visibility:visible;display:inline;overflow:visible;enable-background:accumulate;font-family:Sans;-inkscape-font-specification:Sans" d="M 49.84375 16 A 3.0003 3.0003 0 0 0 48.1875 16.625 L 6.1875 48.625 A 3.0003 3.0003 0 1 0 9.8125 53.375 L 17 47.90625 L 17 81 A 3.0003 3.0003 0 0 0 20 84 L 40 84 A 3.0003 3.0003 0 0 0 43 81 L 43 62 L 57 62 L 57 81 A 3.0003 3.0003 0 0 0 60 84 L 80 84 A 3.0003 3.0003 0 0 0 83 81 L 83 47.90625 L 90.1875 53.375 A 3.0003 3.0003 0 1 0 93.8125 48.625 L 51.8125 16.625 A 3.0003 3.0003 0 0 0 49.84375 16 z M 50 22.75 L 77 43.3125 L 77 78 L 63 78 L 63 59 A 3.0003 3.0003 0 0 0 60 56 L 40 56 A 3.0003 3.0003 0 0 0 37 59 L 37 78 L 23 78 L 23 43.3125 L 50 22.75 z "></path></svg>