<?xml version="1.0" encoding="utf-8"?>
<!-- Generator: Adobe Illustrator 18.0.0, SVG Export Plug-In . SVG Version: 6.00 Build 0)  -->
<!DOCTYPE svg PUBLIC "-//W3C//DTD SVG 1.1//EN" "http://www.w3.org/Graphics/SVG/1.1/DTD/svg11.dtd">
<svg version="1.1" id="Layer_1" xmlns="http://www.w3.org/2000/svg" xmlns:xlink="http://www.w3.org/1999/xlink" x="0px" y="0px"
	 viewBox="0 0 288 288" enable-background="new 0 0 288 288" xml:space="preserve">
<path d="M240.1,75.7c0-2.3-0.9-4.6-2.6-6.3l-48.4-51.8c-1.7-2-4.3-2.9-6.9-2.9h-121c-8.4,0-15.3,6.9-15.3,15.3v228.4
	c0,8.4,6.9,15.3,15.3,15.3h163.9c8.4,0,15.3-6.9,15.3-15.3L240.1,75.7z M226.8,78.6h-31.7c-8.4,0-15.3-6.9-15.3-15.3v-34
	c0-0.9,1.2-1.2,1.7-0.6l46.1,48.1C228,77.5,227.7,78.6,226.8,78.6z M90.1,220v18H79.6v-51.2h20c3.8,0,7.2,0.7,10.1,2.1
	s5.2,3.4,6.7,6c1.6,2.6,2.4,5.5,2.4,8.8c0,5-1.7,9-5.2,11.9c-3.4,2.9-8.2,4.3-14.3,4.3H90.1z M90.1,211.4h9.4c2.8,0,4.9-0.7,6.4-2
	c1.5-1.3,2.2-3.2,2.2-5.6c0-2.5-0.7-4.5-2.2-6.1s-3.5-2.3-6.1-2.4h-9.7V211.4z M126,238v-51.2h15.8c4.5,0,8.5,1,12.1,3
	s6.3,4.9,8.3,8.6s3,8,3,12.7v2.4c0,4.8-1,9-2.9,12.7s-4.7,6.6-8.3,8.6s-7.6,3.1-12.1,3.1H126z M136.6,195.4v34.2h5.1
	c4.1,0,7.3-1.3,9.5-4s3.3-6.6,3.3-11.6v-2.7c0-5.2-1.1-9.1-3.2-11.8s-5.3-4-9.5-4H136.6z M203.6,217.1h-20.2V238h-10.5v-51.2h33.3
	v8.5h-22.8v13.2h20.2V217.1z"/>
</svg>
