<?xml version="1.0" encoding="utf-8"?>
<!-- Generator: Adobe Illustrator 18.0.0, SVG Export Plug-In . SVG Version: 6.00 Build 0)  -->
<!DOCTYPE svg PUBLIC "-//W3C//DTD SVG 1.1//EN" "http://www.w3.org/Graphics/SVG/1.1/DTD/svg11.dtd">
<svg version="1.1" id="Layer_1" xmlns="http://www.w3.org/2000/svg" xmlns:xlink="http://www.w3.org/1999/xlink" x="0px" y="0px"
	 viewBox="0 132.9 595.3 575" enable-background="new 0 132.9 595.3 575" xml:space="preserve">
<path d="M404.2,197.7c-47.6,0-92,16.3-106.5,51.7c-15.7-35.5-58.9-51.7-106.5-51.7c-64.2,0-116.8,30.2-116.8,91.8v1.2v10.5v306.9
	v10.5h7.2h12.7h5.8c15-30.6,51.4-48.8,91.1-48.8c46.8,0,85.9,32,94.9,74.4H309c9-42.4,48.2-74.4,95-74.4c39.6,0,71.1,13.6,91.2,48.8
	h5.8h12.7h7.1v-19.8V295.4v-4.7v-1.2C520.9,227.9,468.3,197.7,404.2,197.7z M288.3,601.1c-20.9-30.1-56.7-49.9-97.1-49.9
	c-40.4,0-75,11.7-97.1,41.8l-1.2,0.6V288.4l0,0v-1.2c3.5-48.6,46.6-70.9,98-70.9c52.5,0,95.5,21.8,96.9,71.9c0,0.8,0,1.7,0,2.5
	l0.4,15.2V601.1z M502.3,295.4v297.6c-20.9-30.1-57.8-41.8-98.2-41.8c-40.4,0-76.2,19.8-97.1,49.9V291.9v-1.2
	c0-51.3,43.8-74.4,97.2-74.4c51.4,0,94.7,13,98.1,61.6v1.2V295.4z"/>
</svg>
