<svg xmlns="http://www.w3.org/2000/svg" xmlns:xlink="http://www.w3.org/1999/xlink" version="1.1" x="0px" y="0px" viewBox="0 0 100 100" style="enable-background:new 0 0 100 100;" xml:space="preserve"><path d="M10,50c0,22.091,17.908,40,40,40V80c-16.569,0-30-13.431-30-30c0-8.284,3.358-15.784,8.787-21.213L30,27.574V40h10V10H10v10  h13.432l-1.716,1.716C14.477,28.954,10,38.954,10,50z"></path><path d="M90,50c0-22.091-17.908-40-40-40v10c16.569,0,30,13.431,30,30c0,8.284-3.358,15.784-8.787,21.213L70,72.426V60H60v30h30V80  H76.568l1.716-1.716C85.523,71.046,90,61.046,90,50z"></path></svg>