<svg width="29px" height="35px" viewBox="6 4 29 35" version="1.1" xmlns="http://www.w3.org/2000/svg" xmlns:xlink="http://www.w3.org/1999/xlink">
    <g id="xfer" stroke="none" stroke-width="1" fill="none" fill-rule="evenodd" transform="translate(21.000000, 21.000000) scale(-1, 1) translate(-21.000000, -21.000000) translate(7.000000, 4.000000)">
        <path d="M27.9978055,25.9062104 C27.9798055,25.5215104 27.8394055,25.1443104 27.5916055,24.8125104 C26.9306055,23.9278104 25.6951955,23.7450104 24.8107955,24.4062104 L19.9990955,28.0000104 L19.9990955,2.00000037 C19.9990955,0.895400371 19.1035955,3.70687985e-07 17.9993955,3.70687985e-07 C16.8951955,3.70687985e-07 15.9996955,0.895400371 15.9996955,2.00000037 L15.9996955,32.0000104 C15.9996955,33.1046104 16.8951955,34.0000104 17.9993955,34.0000104 C18.6312955,34.0004104 18.9646955,33.6770104 19.4053955,33.4062104 L27.1854055,27.6250104 C27.7383055,27.2116104 28.0284055,26.5476104 27.9978055,25.9062104 L27.9978055,25.9062104 Z M12.0002955,2.00000037 C12.0002955,0.895400371 11.1048955,3.70687994e-07 10.0005955,3.70687994e-07 C9.36869548,-0.000399629312 9.03529548,0.323000371 8.59459548,0.593800371 L0.814595476,6.37501037 C0.261795476,6.78841037 -0.0284045239,7.45241037 0.00219547613,8.09381037 C0.0201954761,8.47851037 0.160595476,8.85571037 0.408395476,9.18751037 C1.06939548,10.0722104 2.30479548,10.2550104 3.18919548,9.59381037 L8.00089548,6.00001037 L8.00089548,32.0000104 C8.00089548,33.1046104 8.89639548,34.0000104 10.0005955,34.0000104 C11.1048955,34.0000104 12.0002955,33.1046104 12.0002955,32.0000104 L12.0002955,2.00000037 L12.0002955,2.00000037 Z" id="Shape" fill="#000000" fill-rule="nonzero"></path>
    </g>
</svg>
