<?xml version="1.0" encoding="utf-8"?>
<!-- Generator: Adobe Illustrator 18.0.0, SVG Export Plug-In . SVG Version: 6.00 Build 0)  -->
<!DOCTYPE svg PUBLIC "-//W3C//DTD SVG 1.1//EN" "http://www.w3.org/Graphics/SVG/1.1/DTD/svg11.dtd">
<svg version="1.1" id="Layer_1" xmlns="http://www.w3.org/2000/svg" xmlns:xlink="http://www.w3.org/1999/xlink" x="0px" y="0px"
	 viewBox="-7 41 302 205" enable-background="new -7 41 302 205" xml:space="preserve">
<path d="M123.5,237.2L80.5,194l17.2-17.3l25.8,25.9l63.8-64.1l17.2,17.3 M231.3,128.2c-4.1,0-7.9,0.3-12,1.3c0-0.3,0-0.3,0-0.6
	c0-42.7-34.5-77.9-76.9-77.9c-36.7,0-68,26-75.3,62c-0.9,0-1.9,0-2.5,0c-33.9,0-61.4,27.9-61.4,62c0,33.9,26.9,61.4,60.1,62h57.6
	h13.6h19.3h13.9H232c28.2-0.3,51.3-23.1,53.2-51v-6.6C283.3,150.6,259.8,128.2,231.3,128.2z"/>
</svg>
