<?xml version="1.0" encoding="utf-8"?>
<!-- Generator: Adobe Illustrator 18.0.0, SVG Export Plug-In . SVG Version: 6.00 Build 0)  -->
<!DOCTYPE svg PUBLIC "-//W3C//DTD SVG 1.1//EN" "http://www.w3.org/Graphics/SVG/1.1/DTD/svg11.dtd">
<svg version="1.1" id="Layer_1" xmlns="http://www.w3.org/2000/svg" xmlns:xlink="http://www.w3.org/1999/xlink" x="0px" y="0px"
	 viewBox="0 202.9 630 639" enable-background="new 0 202.9 630 639" xml:space="preserve">
<path d="M314.6,225.3C150.3,225.3,17,358.5,17,522.9s133.3,297.6,297.6,297.6s297.6-133.3,297.6-297.6S479,225.3,314.6,225.3z
	 M461.1,478.6l-159,159c-19.3,19.3-49.9,20.3-68,2.2c-2.6-2.6-4.7-5.5-6.5-8.5l-65-65c-19.3-19.3-20.3-49.9-2.2-67.9
	c18.1-18.1,48.7-17.1,68,2.2l39.6,39.6l127.3-127.3c19.3-19.3,49.9-20.3,67.9-2.2C481.4,428.7,480.4,459.3,461.1,478.6z"/>
<text transform="matrix(1 0 0 1 17 1006.5755)" font-family="'HelveticaNeue-Bold'" font-size="62.0083">Created by aguycalledgary</text>
<text transform="matrix(1 0 0 1 17 1068.5828)" font-family="'HelveticaNeue-Bold'" font-size="62.0083">from the Noun Project</text>
</svg>
