<svg xmlns="http://www.w3.org/2000/svg" xmlns:xlink="http://www.w3.org/1999/xlink" version="1.1" x="0px" y="0px" viewBox="0 0 100 100" enable-background="new 0 0 100 100" xml:space="preserve"><path d="M55.657,50l14.849-14.849c1.562-1.562,1.562-4.095,0-5.657c-1.562-1.562-4.094-1.562-5.656,0L50,44.343L35.151,29.494  c-1.562-1.562-4.095-1.562-5.657,0c-1.562,1.562-1.562,4.095,0,5.657L44.343,50L29.494,64.85c-1.562,1.562-1.562,4.095,0,5.656  c0.781,0.781,1.805,1.172,2.829,1.172s2.047-0.391,2.829-1.172L50,55.657l14.85,14.849c0.781,0.781,1.805,1.172,2.828,1.172  s2.047-0.391,2.828-1.172c1.562-1.562,1.562-4.095,0-5.656L55.657,50z"></path></svg>