<svg xmlns="http://www.w3.org/2000/svg" xmlns:xlink="http://www.w3.org/1999/xlink" version="1.1" x="0px" y="0px" viewBox="0 0 24 24" style="enable-background:new 0 0 24 24;" xml:space="preserve"><path d="M20.5,3.5c-4.7-4.7-12.3-4.7-17,0c-4.7,4.7-4.7,12.3,0,17c4.7,4.7,12.3,4.7,17,0C25.2,15.8,25.2,8.2,20.5,3.5z M19.7,16.5  c0.1,0.1,0.1,0.4,0,0.5l0,0c0,0,0,0,0,0l-1.4,1.4L17,19.7c0,0,0,0,0,0l0,0c-0.1,0.1-0.4,0.1-0.5,0L12,15.2l-4.5,4.5  c-0.1,0.1-0.4,0.1-0.5,0l0,0c0,0,0,0,0,0l-1.4-1.4L4.3,17c0,0,0,0,0,0l0,0c-0.1-0.1-0.1-0.4,0-0.5L8.8,12L4.3,7.5  C4.1,7.4,4.1,7.1,4.3,7l0,0c0,0,0,0,0,0l1.4-1.4L7,4.3c0,0,0,0,0,0l0,0c0.1-0.1,0.4-0.1,0.5,0L12,8.8l4.5-4.5c0.1-0.1,0.4-0.1,0.5,0  l0,0c0,0,0,0,0,0l1.3,1.3L19.7,7c0,0,0,0,0,0l0,0c0.1,0.1,0.1,0.4,0,0.5L15.2,12L19.7,16.5z"></path></svg>