<svg xmlns="http://www.w3.org/2000/svg" xmlns:xlink="http://www.w3.org/1999/xlink" version="1.1" x="0px" y="0px" viewBox="0 0 100 100" style="enable-background:new 0 0 100 100;" xml:space="preserve"><g><path d="M50.5,84.1l3.5-3.6c0,0,0,0,0,0l35.4-35.8c1.9-2,1.9-5.1,0-7.1c-2-1.9-5.1-1.9-7.1,0L55.4,64.9V11c0-2.8-2.2-5-5-5   s-5,2.2-5,5v54L18.2,37.7c-2-2-5.1-2-7.1,0c-2,2-2,5.1,0,7.1L50.5,84.1z"></path><path d="M14.6,95.5h71.2c2.8,0,5-2.2,5-5s-2.2-5-5-5H14.6c-2.8,0-5,2.2-5,5S11.9,95.5,14.6,95.5z"></path></g></svg>