<?xml version="1.0" encoding="utf-8"?>
<!-- Generator: Adobe Illustrator 18.0.0, SVG Export Plug-In . SVG Version: 6.00 Build 0)  -->
<!DOCTYPE svg PUBLIC "-//W3C//DTD SVG 1.1//EN" "http://www.w3.org/Graphics/SVG/1.1/DTD/svg11.dtd">
<svg version="1.1" id="Layer_1" xmlns="http://www.w3.org/2000/svg" xmlns:xlink="http://www.w3.org/1999/xlink" x="0px" y="0px"
	 viewBox="0 95 288 193" enable-background="new 0 95 288 193" xml:space="preserve">
<path d="M166.6,281.2h61.3c26.9-0.3,48.9-22,50.7-48.6v-6.3c-1.8-27.5-24.2-48.8-51.4-48.8c-3.9,0-7.5,0.3-11.4,1.2
	c0-0.3,0-0.3,0-0.6c0-40.7-32.9-74.3-73.3-74.3c-35,0-64.8,24.8-71.8,59.1c-0.9,0-1.8,0-2.4,0C36,162.9,9.7,189.5,9.7,222
	c0,32.3,25.7,58.6,57.3,59.1H122"/>
</svg>
