<?xml version="1.0" encoding="utf-8"?>
<!-- Generator: Adobe Illustrator 18.0.0, SVG Export Plug-In . SVG Version: 6.00 Build 0)  -->
<!DOCTYPE svg PUBLIC "-//W3C//DTD SVG 1.1//EN" "http://www.w3.org/Graphics/SVG/1.1/DTD/svg11.dtd">
<svg version="1.1" id="Layer_1" xmlns="http://www.w3.org/2000/svg" xmlns:xlink="http://www.w3.org/1999/xlink" x="0px" y="0px"
	 viewBox="0 0 441 660" enable-background="new 0 0 441 660" xml:space="preserve">
<g>
	<path fill="#FFFFFF" d="M90.2,553.5c0.9,8.1,7,12.9,14.6,12.9c6.8,0,11.2-3.2,14.6-7.4l9.8,7.4c-6.4,7.8-14.4,10.9-23,10.9
		c-16.5,0-29.6-11.5-29.6-28.6c0-17.1,13.2-28.6,29.6-28.6c15.2,0,25.5,10.7,25.5,29.6v3.7H90.2z M118.2,543.3
		c-0.1-7.9-5.3-12.9-13.9-12.9c-8,0-13,5.1-14.1,12.9H118.2z"/>
	<path fill="#FFFFFF" d="M145.7,495.7h14.3v67.4h34.2V576h-48.5V495.7z"/>
	<path fill="#FFFFFF" d="M204.3,495.7h14.3V576h-14.3V495.7z"/>
	<path fill="#FFFFFF" d="M236.2,495.7h51.9v12.9h-37.6v21.1H286v12.9h-35.4V576h-14.3V495.7z"/>
	<path fill="#FFFFFF" d="M301.4,495.7h53.2v12.9h-38.9v19.8h36.9v12.9h-36.9v21.8h41V576h-55.3V495.7z"/>
</g>
<path fill="#FFFFFF" d="M264.5,340.6c-1.8-12.7-5-25.2-9.2-37.4c-2.9-8.4-6-16.8-9.3-25.2c-1.5,1.5-3,3.1-4.4,4.7
	c-5.6,6.3-10.3,13.2-14.3,20.5c4.4,12.4,7.5,25.3,9.2,38.2c3.4,24.7,2.6,49.6-0.4,73.9c6.9-0.5,13.7-1.5,20.3-2.9
	c4.2-10.8,7.1-22.1,8.5-33.6C266.6,366.1,266.3,353.2,264.5,340.6z"/>
<path fill="#FFFFFF" d="M293.8,388.2c1.9-5,3.6-10.1,5-15.3c2.9-10.3,4.6-20.8,4.8-31.4c0.2-10.5-1.2-21-3.6-31.2
	c-2.4-10.3-6.1-20.5-9-31.2c-2.7-9.8-4.9-20.2-5-30.9c-6.2,3.6-12.2,7.3-17.9,11.3c-4.5,3.1-8.9,6.4-13.1,10
	c3.9,10,7.6,20,10.6,30.5c3.7,12.9,6.6,26.1,7.8,39.6c1.2,13.5,0.8,27.1-1.6,40.4c-1.9,10.7-5.1,21.1-9.2,31.1
	c8.9-2.3,17.5-5.5,25.8-9.4c0.7-2,1.6-4,2.5-5.9C291.8,393.2,292.8,390.7,293.8,388.2z"/>
<path fill="#FFFFFF" d="M363.6,248.4c-1.7,6-3.7,11.7-5.7,17.3c-1.9,5.6-3.7,11.1-5.3,16.6c-3,11-4.6,22.1-4.6,33.7
	c0,5.8,0.4,11.6,1.2,17.4c0.4,2.9,0.9,5.8,1.5,8.7c0.2,0.9,0.4,1.8,0.6,2.7c9.8-16.2,16.7-34.5,19.8-54.3
	c3.3-21.1,1.9-42.2-3.6-62.1C366.9,235.2,365.5,241.9,363.6,248.4z"/>
<path fill="#FFFFFF" d="M166.1,165.9c0.8,12.5,3.1,24.8,7.2,36.4c3.3,10.1,8.2,19.4,13.7,28.6c1-1.7,2.1-3.4,3.2-5.1
	c3.9-5.9,8-11.5,12.4-17.1c4.4-5.5,8.9-10.9,13.7-16c0.2-0.2,0.3-0.3,0.5-0.5c-0.1-0.5-0.2-1-0.2-1.5c-1.9-13.5-1.6-27.6,2.1-40.9
	c2.9-10.7,7.9-20.7,14.3-29.6c-23.3-1.3-45.8,3-66,11.7c-0.4,5-0.8,10-0.9,15.1C165.6,153.4,165.7,159.7,166.1,165.9z"/>
<path fill="#FFFFFF" d="M225.8,151.7c-2.2,10.6-2.1,21.5-0.5,32.2c2.1-1.9,4.1-3.8,6.2-5.7c19.5-17,42.2-30.8,66.9-38.6
	c-15.5-8.9-32.7-14.9-50.9-17.7c-2.5-0.4-5-0.7-7.5-1c-0.4,0-0.7,0-1.1-0.1c-2.7,4.2-5.2,8.4-7.2,12.9
	C229.1,139.5,227.1,145.5,225.8,151.7z"/>
<path fill="#FFFFFF" d="M185.7,379.8c-3.4-11.2-8.9-21.7-15.2-31.7c-3.4-5.5-7.1-10.9-10.9-16.3c-2,11-3.2,22.1-3.5,33.2
	c-0.2,6.8-0.1,13.5,0.4,20.3c0.2,3.4,0.6,6.8,1,10.1c0.2,1.4,0.4,2.9,0.5,4.4c10.3,5.2,21.3,9.3,32.7,12c-0.1-5-0.4-9.9-1.1-14.8
	C188.8,391.1,187.4,385.4,185.7,379.8z"/>
<path fill="#FFFFFF" d="M304.5,143.3c-12.3,4.3-23.9,10.1-34.8,17.1c-11.3,7.3-21.8,15.9-31.4,25.2c-3.6,3.5-7.1,7.1-10.4,10.8
	c-1.2,1.3-2.3,2.5-3.4,3.8c-1.7,1.9-3.3,3.8-5,5.8c-2.7,3.2-5.3,6.4-7.9,9.8c-4.1,5.3-7.9,10.9-11.6,16.5c-2.1,3.2-4.1,6.4-6.1,9.7
	c5.5,8.4,11.2,16.9,16.5,25.8c4.1,7,8,14.3,11.4,21.8c3.3-5.2,6.9-10.1,11-14.7c2.7-3,5.5-5.9,8.4-8.6c3-2.8,6.1-5.5,9.3-8
	c3.6-2.9,7.4-5.5,11.2-8.1c8.1-5.1,16.4-9.6,24.9-13.8c1.2-8.7,3.7-17.2,7.3-25c4.7-10.4,10.9-19.9,17.6-28.7
	c3.3-4.4,6.8-8.7,10.4-12.9c2.1-2.5,4.3-5,6.5-7.3C321.2,155.2,313.2,148.8,304.5,143.3z"/>
<path fill="#FFFFFF" d="M355.3,245.4c10.3-22.2,4.6-38.3,2.9-41.7c-0.8-1.6-1.5-3.1-2.3-4.7c-3.4-6.4-7.2-12.5-11.5-18.4
	c-3.7-5.1-7.7-9.8-12-14.3c-1.8,2.4-3.7,4.9-5.4,7.4c-3.1,4.4-6.2,8.9-9,13.4c-5.6,9.1-10.5,18.7-14.1,28.4
	c-1.8,4.9-3.2,9.9-4.3,14.8c0,0.1,0,0.1,0,0.2c-0.8,3.6-1.3,7.3-1.5,11c-0.1,1.3-0.1,2.6-0.2,3.9c-0.3,10.1,1.4,20.4,4.1,30.7
	c2.7,10.3,5.9,20.9,8,32c2.2,11,3.1,22.5,2.2,33.8c-0.9,11.3-3.3,22.3-6.9,32.9c-1.8,5.3-3.8,10.4-6.1,15.5c-1.1,2.5-2.3,5-3.5,7.5
	c0,0,0,0,0,0c20.8-11.3,38.8-27.5,52.1-47.3c-0.5-0.8-0.8-1.7-1.2-2.6c-0.5-1.4-1.1-2.9-1.6-4.3c-1-2.9-2-5.8-2.8-8.8
	c-1.7-5.9-3.1-12-3.9-18.3c-1.6-12.4-0.6-25.5,3.1-37.6C344.9,267,350.4,256,355.3,245.4z"/>
<path fill="#FFFFFF" d="M231.2,399.4c0-6.3-0.2-12.7-0.6-19c-0.6-12.6-1.9-25.1-4.1-37.4c-1.6-8.4-3.5-16.6-6-24.7
	c-1.2-3.8-2.4-7.5-3.8-11.2c-0.6-1.6-1.3-3.1-1.9-4.7c-4.1-9.9-8.9-19.4-14.5-28.6c-4-6.8-8.4-13.6-12.8-20.5
	c-2.4-3.7-4.7-7.5-7-11.4c-0.1-0.2-0.3-0.5-0.4-0.7c-6.5-11.2-12.3-23.4-15.9-36.1c-3.6-12.8-5.1-26-5.2-39
	c-0.1-6.5,0.3-13,0.8-19.5c0.4-4.1,0.8-8.1,1.4-12.1c-6.6,3.2-12.9,6.8-19,10.9c-4.2,10.8-8.1,21.7-11,32.9
	c-3,11.6-5.1,23.4-5.7,35.2c-0.6,11.8,0.3,23.6,2.9,34.9c1.3,5.7,3.1,11.2,5.2,16.7c2,5.5,4.5,10.8,7.2,16
	c4.4,8.3,9.5,16.3,14.9,24.3c1.3,2,2.7,4,4.1,6.1c1.1,1.6,2.2,3.2,3.2,4.7c5.8,8.5,11.6,17.1,16.8,26.2
	c6.2,10.9,11.3,22.6,14.3,34.9c1.6,6.2,2.3,12.5,2.6,18.8c0.2,5.6,0,11.2-0.7,16.6c2.1,0.4,4.3,0.8,6.5,1.2c2,0.3,4,0.6,6.1,0.8
	c0.5,0.1,1,0.1,1.5,0.2c1.2,0.1,2.4,0.2,3.6,0.3c5.8,0.5,11.7,0.6,17.4,0.4C231.1,410.2,231.2,404.8,231.2,399.4z"/>
<path fill="#FFFFFF" d="M152.2,396.5L152.2,396.5C152.2,396.4,152.2,396.5,152.2,396.5z"/>
<path fill="#FFFFFF" d="M152.2,396.5L152.2,396.5C152.2,396.5,152.3,396.6,152.2,396.5z"/>
<path fill="#FFFFFF" d="M121,357.7c-1.3-7.4-3.4-14.6-6.1-21.6c-5.4-14-12.8-27.1-20.1-40.7c-3.6-6.8-7.2-13.8-10.1-21.2
	c-2.7-6.9-5-14-6.7-21.2c-4.8,47,13.1,91,44.7,121.4c-0.1-1.9-0.1-3.7-0.3-5.6C122.1,365.1,121.7,361.4,121,357.7z"/>
<path fill="#FFFFFF" d="M241.2,111.5c86.3,8.9,149.2,86.3,140.3,172.6c-8.9,86.3-86.3,149.2-172.6,140.3
	c-86.3-8.9-149.2-86.3-140.3-172.6C77.5,165.6,154.9,102.6,241.2,111.5 M242,103.5C151.4,94.2,70,160.4,60.7,251
	c-9.3,90.7,56.8,172,147.5,181.4c90.7,9.3,172-56.8,181.4-147.5C398.8,194.2,332.7,112.9,242,103.5L242,103.5z"/>
<path fill="#FFFFFF" d="M152.2,396.5c-0.6-3.4-1.2-7.2-1.6-10.7c-0.8-6.9-1.3-13.9-1.5-20.9c-0.3-14,0.7-28,2.9-41.8
	c0.1-0.6,0.2-1.1,0.3-1.7c-0.8-1.1-1.5-2.2-2.3-3.3c-7.1-10-13.8-20.5-19.6-31.7c-2.9-5.6-5.4-11.4-7.6-17.4
	c-2.1-6-3.8-12.2-4.9-18.4c-2.4-12.5-2.7-25.3-1.4-37.8c2.3-21.6,8.9-42,17.3-61.4c-33.9,24.4-59.1,77.7-50.5,98.2
	c2.9,7,6.4,13.6,10.3,20.2c3.8,6.5,7.7,13.1,11.4,19.9c7.4,13.5,14.6,27.9,18.8,43.4c2.1,7.7,3.5,15.6,4.2,23.6
	c0.3,4,0.5,8,0.4,11.9c0,2-0.1,4-0.2,6l-0.2,3c-0.1,0.5-0.1,1.1-0.2,1.6C135.4,385.7,143.5,391.6,152.2,396.5
	C152.2,396.5,152.2,396.4,152.2,396.5z"/>
</svg>
