<?xml version="1.0" encoding="utf-8"?>
<!-- Generator: Adobe Illustrator 18.0.0, SVG Export Plug-In . SVG Version: 6.00 Build 0)  -->
<!DOCTYPE svg PUBLIC "-//W3C//DTD SVG 1.1//EN" "http://www.w3.org/Graphics/SVG/1.1/DTD/svg11.dtd">
<svg version="1.1" id="Layer_1" xmlns="http://www.w3.org/2000/svg" xmlns:xlink="http://www.w3.org/1999/xlink" x="0px" y="0px"
	 viewBox="0 0 288 288" enable-background="new 0 0 288 288" xml:space="preserve">
<g>
	<path d="M229.7,85.6c0.6,0,0.9,0,1.4,0.3c0.9,0.6,1.4,1.4,1.4,2.6v107.1c0,0.9-0.6,2-1.4,2.6c-0.9,0.6-2,0.6-2.9,0l-97.6-50.7
		c-0.9-0.6-1.4-1.4-1.4-2.6c0-1.2,0.6-2,1.4-2.6l97.6-56.4C228.9,85.6,229.2,85.6,229.7,85.6z"/>
</g>
<g>
	<path d="M140.6,85.6c0.6,0,0.9,0,1.4,0.3c0.9,0.6,1.4,1.4,1.4,2.6v107.1c0,0.9-0.6,2-1.4,2.6c-0.9,0.6-2,0.6-2.9,0l-97.6-50.7
		c-0.9-0.6-1.4-1.4-1.4-2.6c0-1.2,0.6-2,1.4-2.6l97.6-56.4C139.7,85.6,140,85.6,140.6,85.6z"/>
</g>
<circle fill="none" stroke="#000000" stroke-width="7" stroke-miterlimit="10" cx="143.5" cy="144.5" r="124.5"/>
<circle fill="none" stroke="#000000" stroke-width="19" stroke-miterlimit="10" cx="143.5" cy="142.5" r="124.5"/>
</svg>
