<?xml version="1.0" encoding="utf-8"?>
<!-- Generator: Adobe Illustrator 18.0.0, SVG Export Plug-In . SVG Version: 6.00 Build 0)  -->
<!DOCTYPE svg PUBLIC "-//W3C//DTD SVG 1.1//EN" "http://www.w3.org/Graphics/SVG/1.1/DTD/svg11.dtd">
<svg version="1.1" id="Layer_1" xmlns="http://www.w3.org/2000/svg" xmlns:xlink="http://www.w3.org/1999/xlink" x="0px" y="0px"
	 viewBox="0 0 288 288" enable-background="new 0 0 288 288" xml:space="preserve">
<g>
	<path d="M16.3,270.7c-0.9,0-1.5,0-2.3-0.7c-1.5-1.3-2.3-3.1-2.3-5.7V30c0-2,0.9-4.4,2.3-5.7c1.5-1.3,3.2-1.3,4.6,0l155.8,111
		c1.5,1.3,2.3,3.1,2.3,5.7c0,2.6-0.9,4.4-2.3,5.7L18.7,270.1C17.6,270.7,17.1,270.7,16.3,270.7z"/>
</g>
<g>
	<path d="M76.3,270.7c-1.2,0-1.8,0-2.8-0.7c-1.8-1.3-2.8-3.1-2.8-5.7l0-234.3c0-2,1.2-4.4,2.8-5.7c1.8-1.3,3.9-1.3,5.6,0l190,111
		c1.8,1.3,2.8,3.1,2.8,5.7c0,2.6-1.2,4.4-2.8,5.7L79.2,270.1C77.8,270.7,77.3,270.7,76.3,270.7z"/>
</g>
</svg>
