<?xml version="1.0" encoding="utf-8"?>
<!-- Generator: Adobe Illustrator 18.0.0, SVG Export Plug-In . SVG Version: 6.00 Build 0)  -->
<!DOCTYPE svg PUBLIC "-//W3C//DTD SVG 1.1//EN" "http://www.w3.org/Graphics/SVG/1.1/DTD/svg11.dtd">
<svg version="1.1" id="Layer_1" xmlns="http://www.w3.org/2000/svg" xmlns:xlink="http://www.w3.org/1999/xlink" x="0px" y="0px"
	 viewBox="0 0 288 288" enable-background="new 0 0 288 288" xml:space="preserve">
<g>
	<path d="M167.8,13.6H266c4.8,0,8.7,3.9,8.7,8.7v99.1c0,4.8-3.9,8.7-8.7,8.7h-98.2c-4.8,0-8.7-3.9-8.7-8.7V22.3
		C159.1,17.5,163,13.6,167.8,13.6z"/>
</g>
<g>
	<path d="M167.8,158.6H266c4.8,0,8.7,3.9,8.7,8.7v99.1c0,4.8-3.9,8.7-8.7,8.7h-98.2c-4.8,0-8.7-3.9-8.7-8.7v-99.1
		C159.1,162.5,163,158.6,167.8,158.6z"/>
</g>
<g>
	<path d="M22.8,158.6H121c4.8,0,8.7,3.9,8.7,8.7v99.1c0,4.8-3.9,8.7-8.7,8.7H22.8c-4.8,0-8.7-3.9-8.7-8.7v-99.1
		C14.1,162.5,18,158.6,22.8,158.6z"/>
</g>
<g>
	<path d="M22.8,14.6H121c4.8,0,8.7,3.9,8.7,8.7v99.1c0,4.8-3.9,8.7-8.7,8.7H22.8c-4.8,0-8.7-3.9-8.7-8.7V23.3
		C14.1,18.5,18,14.6,22.8,14.6z"/>
</g>
</svg>
