<?xml version="1.0" encoding="utf-8"?>
<!-- Generator: Adobe Illustrator 18.0.0, SVG Export Plug-In . SVG Version: 6.00 Build 0)  -->
<!DOCTYPE svg PUBLIC "-//W3C//DTD SVG 1.1//EN" "http://www.w3.org/Graphics/SVG/1.1/DTD/svg11.dtd">
<svg version="1.1" id="Layer_1" xmlns="http://www.w3.org/2000/svg" xmlns:xlink="http://www.w3.org/1999/xlink" x="0px" y="0px"
	 viewBox="0 0 288 288" enable-background="new 0 0 288 288" xml:space="preserve">
<g>
	<path d="M76,212.4c-0.7,0-1,0-1.7-0.3c-1-0.7-1.7-1.7-1.7-3.1V81c0-1,0.7-2.4,1.7-3.1s2.4-0.7,3.4,0L194,138.5
		c1,0.7,1.7,1.7,1.7,3.1c0,1.4-0.7,2.4-1.7,3.1L77.7,212.1C77.1,212.4,76.7,212.4,76,212.4z"/>
</g>
<g>
	<path d="M210.8,213.4c-5.2,0-8.4-5.2-8.4-7.1V84.1c0-1.9,4-6.9,8.4-7.1c5-0.2,8.3,5.3,8.3,7.3v122.1
		C219.4,208.3,216,213.4,210.8,213.4z"/>
</g>
<circle fill="none" stroke="#000000" stroke-width="19" stroke-miterlimit="10" cx="144.5" cy="144.5" r="124.5"/>
</svg>
