<?xml version="1.0" encoding="utf-8"?>
<!-- Generator: Adobe Illustrator 18.0.0, SVG Export Plug-In . SVG Version: 6.00 Build 0)  -->
<!DOCTYPE svg PUBLIC "-//W3C//DTD SVG 1.1//EN" "http://www.w3.org/Graphics/SVG/1.1/DTD/svg11.dtd">
<svg version="1.1" id="Layer_1" xmlns="http://www.w3.org/2000/svg" xmlns:xlink="http://www.w3.org/1999/xlink" x="0px" y="0px"
	 viewBox="0 0 288 288" enable-background="new 0 0 288 288" xml:space="preserve">
<g>
	<path d="M81,212.4c-0.7,0-1,0-1.7-0.3c-1-0.7-1.7-1.7-1.7-3.1V81c0-1,0.7-2.4,1.7-3.1c1-0.7,2.4-0.7,3.4,0L199,138.5
		c1,0.7,1.7,1.7,1.7,3.1c0,1.4-0.7,2.4-1.7,3.1L82.7,212.1C82.1,212.4,81.7,212.4,81,212.4z M84.5,86.5v116.3l105.6-61.2L84.5,86.5z
		"/>
</g>
<g>
	<path d="M208.3,212.4c-2.1,0-3.4-1.4-3.4-3.4V81c0-2.1,1.4-3.4,3.4-3.4s3.4,1.4,3.4,3.4v128C211.8,211.1,210.4,212.4,208.3,212.4z"
		/>
</g>
<circle fill="none" stroke="#000000" stroke-width="7" stroke-miterlimit="10" cx="144.5" cy="144.5" r="124.5"/>
</svg>
