<?xml version="1.0" encoding="utf-8"?>
<!-- Generator: Adobe Illustrator 18.0.0, SVG Export Plug-In . SVG Version: 6.00 Build 0)  -->
<!DOCTYPE svg PUBLIC "-//W3C//DTD SVG 1.1//EN" "http://www.w3.org/Graphics/SVG/1.1/DTD/svg11.dtd">
<svg version="1.1" id="Layer_1" xmlns="http://www.w3.org/2000/svg" xmlns:xlink="http://www.w3.org/1999/xlink" x="0px" y="0px"
	 viewBox="0 0 288 288" enable-background="new 0 0 288 288" xml:space="preserve">
<g>
	<path d="M213,76.6c0.7,0,1,0,1.7,0.3c1,0.7,1.7,1.7,1.7,3.1v128c0,1-0.7,2.4-1.7,3.1s-2.4,0.7-3.4,0L95,150.5
		c-1-0.7-1.7-1.7-1.7-3.1c0-1.4,0.7-2.4,1.7-3.1l116.3-67.4C211.9,76.6,212.3,76.6,213,76.6z"/>
</g>
<g>
	<path d="M78.2,75.6c5.2,0,8.4,5.2,8.4,7.1v122.3c0,1.9-4,6.9-8.4,7.1c-5,0.2-8.3-5.3-8.3-7.3V82.7C69.6,80.7,73,75.6,78.2,75.6z"/>
</g>
<circle fill="none" stroke="rgb(43,43,51)" stroke-width="19" stroke-miterlimit="10" cx="144.5" cy="144.5" r="124.5"/>
</svg>
