<?xml version="1.0" encoding="utf-8"?>
<!-- Generator: Adobe Illustrator 18.0.0, SVG Export Plug-In . SVG Version: 6.00 Build 0)  -->
<!DOCTYPE svg PUBLIC "-//W3C//DTD SVG 1.1//EN" "http://www.w3.org/Graphics/SVG/1.1/DTD/svg11.dtd">
<svg version="1.1" id="Layer_1" xmlns="http://www.w3.org/2000/svg" xmlns:xlink="http://www.w3.org/1999/xlink" x="0px" y="0px"
	 viewBox="0 0 288 288" enable-background="new 0 0 288 288" xml:space="preserve">
<g>
	<path d="M208,76.6c0.7,0,1,0,1.7,0.3c1,0.7,1.7,1.7,1.7,3.1v128c0,1-0.7,2.4-1.7,3.1c-1,0.7-2.4,0.7-3.4,0L90,150.5
		c-1-0.7-1.7-1.7-1.7-3.1c0-1.4,0.7-2.4,1.7-3.1l116.3-67.4C206.9,76.6,207.3,76.6,208,76.6z M204.5,202.5V86.2L98.9,147.4
		L204.5,202.5z"/>
</g>
<g>
	<path d="M80.7,76.6c2.1,0,3.4,1.4,3.4,3.4v128c0,2.1-1.4,3.4-3.4,3.4s-3.4-1.4-3.4-3.4V80C77.2,77.9,78.6,76.6,80.7,76.6z"/>
</g>
<circle fill="none" stroke="#000000" stroke-width="7" stroke-miterlimit="10" cx="144.5" cy="144.5" r="124.5"/>
</svg>
