<svg xmlns="http://www.w3.org/2000/svg" xmlns:xlink="http://www.w3.org/1999/xlink" version="1.1" x="0px" y="0px" viewBox="0 0 100 100" enable-background="new 0 0 100 100" xml:space="preserve"><path fill="#000000" d="M66.502,65c-2.617,0-5.059,0.811-7.07,2.192l-16.24-12.769c0.518-1.377,0.811-2.856,0.811-4.424  c0-1.602-0.313-3.135-0.859-4.541l15.996-12.847C61.199,34.111,63.748,35,66.502,35c6.904,0,12.5-5.596,12.5-12.5  S73.406,10,66.502,10c-6.914,0-12.5,5.596-12.5,12.5c0,1.426,0.234,2.793,0.674,4.067l-16.24,13.042  c-1.973-1.328-4.365-2.109-6.934-2.109C24.591,37.5,19,43.096,19,50s5.591,12.5,12.502,12.5c2.607,0,5.049-0.801,7.061-2.178  l16.24,12.764c-0.518,1.377-0.801,2.866-0.801,4.414c0,6.904,5.586,12.5,12.5,12.5c6.904,0,12.5-5.596,12.5-12.5  S73.406,65,66.502,65z"></path></svg>