<svg xmlns="http://www.w3.org/2000/svg" xmlns:xlink="http://www.w3.org/1999/xlink" version="1.1" x="0px" y="0px" viewBox="0 0 100 100" enable-background="new 0 0 100 100" xml:space="preserve"><g><path fill-rule="evenodd" clip-rule="evenodd" d="M8.016,4.016h84.453c1.665,0,3.016,1.351,3.016,3.016v18.097   c0,1.666-1.351,3.016-3.016,3.016H8.016C6.349,28.146,5,26.795,5,25.129V7.032C5,5.367,6.349,4.016,8.016,4.016z"></path><path fill-rule="evenodd" clip-rule="evenodd" d="M8.016,37.194h84.453c1.665,0,3.016,1.349,3.016,3.016v18.097   c0,1.667-1.351,3.016-3.016,3.016H8.016C6.349,61.322,5,59.974,5,58.307V40.21C5,38.543,6.349,37.194,8.016,37.194z"></path><path fill-rule="evenodd" clip-rule="evenodd" d="M8.016,70.371h84.453c1.665,0,3.016,1.349,3.016,3.016v18.098   c0,1.667-1.351,3.016-3.016,3.016H8.016C6.349,94.5,5,93.151,5,91.484V73.387C5,71.72,6.349,70.371,8.016,70.371z"></path></g></svg>