<?xml version="1.0" encoding="utf-8"?>
<!-- Generator: Adobe Illustrator 18.0.0, SVG Export Plug-In . SVG Version: 6.00 Build 0)  -->
<!DOCTYPE svg PUBLIC "-//W3C//DTD SVG 1.1//EN" "http://www.w3.org/Graphics/SVG/1.1/DTD/svg11.dtd">
<svg version="1.1" id="Layer_1" xmlns="http://www.w3.org/2000/svg" xmlns:xlink="http://www.w3.org/1999/xlink" x="0px" y="0px"
	 viewBox="0 0 288 288" enable-background="new 0 0 288 288" xml:space="preserve">
<path d="M241.1,75.7c0-2.3-0.9-4.6-2.6-6.3l-48.4-51.8c-1.7-2-4.3-2.9-6.9-2.9h-121c-8.4,0-15.3,6.9-15.3,15.3v228.4
	c0,8.4,6.9,15.3,15.3,15.3h163.9c8.4,0,15.3-6.9,15.3-15.3L241.1,75.7z M227.8,78.6h-31.7c-8.4,0-15.3-6.9-15.3-15.3v-34
	c0-0.9,1.2-1.2,1.7-0.6l46.1,48.1C229,77.5,228.7,78.6,227.8,78.6z M92.9,205.5l9.6-17.6h12.1l-14.9,25.4L115,239h-12.3l-9.8-17.9
	L83,239H70.8l15.3-25.8l-14.9-25.4h12.1L92.9,205.5z M134.1,187.8l13.1,37.1l13.1-37.1h13.9V239h-10.6v-14l1.1-24.2L150.8,239h-7.2
	l-13.8-38.1l1.1,24.1v14h-10.5v-51.2H134.1z M193.9,230.5h22.4v8.5h-32.9v-51.2h10.5V230.5z"/>
</svg>
