
<svg width="451px" height="231px" viewBox="5 257 451 231" version="1.1" xmlns="http://www.w3.org/2000/svg" xmlns:xlink="http://www.w3.org/1999/xlink">
    <!-- Generator: Sketch 42 (36781) - http://www.bohemiancoding.com/sketch -->
    <desc>Created with Sketch.</desc>
    <defs>
        <polygon id="path-1" points="0.12117697 14.3788828 25.1994837 0 50.1774771 14.3788828 50.1774771 43.1366484 25.1994837 57.6153846 0.12117697 43.1366484"></polygon>
        <mask id="mask-2" maskContentUnits="userSpaceOnUse" maskUnits="objectBoundingBox" x="-5" y="-5" width="60.0563001" height="67.6153846">
            <rect x="-4.87882303" y="-5" width="60.0563001" height="67.6153846" fill="white"></rect>
            <use xlink:href="#path-1" fill="black"></use>
        </mask>
    </defs>
    <g id="board" stroke="none" stroke-width="1" fill="none" fill-rule="evenodd" transform="translate(5.000000, 257.000000)">
        <g id="mid-board" transform="translate(99.000000, 25.000000)">
            <rect id="bg" fill="#212127" fill-rule="nonzero" x="0.3" y="0.6" width="252.1" height="188.8"></rect>
            <g id="rosette" transform="translate(180.000000, 46.000000)" fill-rule="nonzero">
                <polygon id="Shape_2_" stroke="#CAAD4D" stroke-width="2" fill="#CAAD4D" points="15.0504677 50.7539823 1.467521 92.4878063 11.2472426 84.1951242 13.6016201 97.6256637 26.097931 64.0943839 37.8698182 106.369035 40.6769605 92.9384956 50.909447 98.9777314 37.3265003 53.908807"></polygon>
                <g id="Shape_3_">
                    <use fill="#212127" fill-rule="evenodd" xlink:href="#path-1"></use>
                    <use stroke="#CAAD4D" mask="url(#mask-2)" stroke-width="10" xlink:href="#path-1"></use>
                </g>
                <g id="mid-plot" transform="translate(5.346207, 16.309741)" stroke="#383838" stroke-width="1.2454" fill="#383838">
                    <rect id="path-3_1_" x="0.231931034" y="10.5769021" width="6.59714943" height="13.4634165"></rect>
                    <rect id="path-5_1_" x="10.8492184" y="4.84992648" width="6.59714943" height="19.1903921"></rect>
                    <rect id="path-7_1_" x="21.3634253" y="0.0272101346" width="6.59714943" height="23.9126352"></rect>
                    <rect id="path-9_1_" x="31.9807126" y="10.5769021" width="6.59714943" height="13.4634165"></rect>
                </g>
            </g>
            <g id="sciencefair" transform="translate(16.000000, 55.000000)">
                <path d="M0.802321608,31.0104024 L0.802321608,25.2550433 L2.40257711,25.2550433 C2.74858002,25.2550433 2.96482861,25.4255707 3.05132934,25.7666308 C3.05132934,25.8092633 3.06214176,25.9265009 3.08376695,26.1183472 C3.10539213,26.3101934 3.14143356,26.6476957 3.19189232,27.130864 C3.24235108,27.6140324 3.28920494,28.0900882 3.3324553,28.5590457 C4.50021515,29.1416899 6.0211635,29.4330076 7.89534598,29.4330076 C9.32260802,29.4330076 10.4687255,29.0706368 11.3337328,28.3458843 C12.1122394,27.6637642 12.5014868,26.9248119 12.5014868,26.1290052 C12.5014868,25.3047768 12.3212797,24.6937201 11.9608599,24.2958168 C11.4995227,23.7842268 11.0598173,23.4289612 10.6417304,23.2300095 C9.96414137,22.9031604 9.34422877,22.6757904 8.78197403,22.5478929 C6.60503899,21.851562 5.22825637,21.3826116 4.65158483,21.1410274 C4.00282936,20.8568107 3.33966705,20.451808 2.662078,19.9260071 C1.42223421,18.9170379 0.802321608,17.545713 0.802321608,15.8119912 C0.802321608,14.0498478 1.50873364,12.5648379 2.92157889,11.356917 C4.40650808,10.0779419 6.50411931,9.43846395 9.21447551,9.43846395 L9.17122536,9.43846395 C10.6849881,9.43846395 12.6312254,9.83636134 15.0099954,10.632168 L15.0099954,16.3022625 L13.3016146,16.3022625 C12.8835277,16.3022625 12.6312377,16.0962085 12.544737,15.6840943 C12.544737,15.6556727 12.5339245,15.5419877 12.5122993,15.343036 C12.4906742,15.1440843 12.4546327,14.7994768 12.404174,14.309203 C12.3537152,13.8189292 12.3068614,13.3180048 12.263611,12.8064148 C10.8219322,12.4795656 9.67581468,12.3161435 8.82522417,12.3161435 L8.78197403,12.3161435 C7.5853806,12.3161435 6.56180398,12.6429878 5.71121347,13.2966861 C4.91829012,13.907752 4.52183439,14.5756512 4.52183439,15.3004037 C4.52183439,16.0535779 4.70204154,16.6077922 5.06246125,16.963063 C5.65354957,17.6309722 6.50412732,18.1354493 7.61422001,18.4765093 C7.85930541,18.5475635 8.30982329,18.6790117 8.96578716,18.870858 C9.62175102,19.0627042 10.0866855,19.2083631 10.3606044,19.3078389 L12.5014868,20.0965363 C13.0204912,20.2812771 13.6404038,20.6578586 14.3612432,21.226292 C15.5722534,22.164207 16.1777494,23.4502682 16.1777494,25.0845141 C16.1777494,27.2019284 15.4497125,28.885887 13.9936169,30.1364404 C12.4077702,31.5006805 10.4326999,32.1827903 8.06834657,32.1827903 C5.60307578,32.1827903 3.18109167,31.7919982 0.802321608,31.0104024 Z M19.1187595,20.7999691 C19.1187595,17.4320014 20.0197953,14.7106674 21.8218938,12.6358856 C23.7249099,10.5042605 26.348726,9.43846395 29.6934209,9.43846395 C31.3657683,9.43846395 33.5859204,9.96425692 36.3539438,11.0158587 L36.3539438,16.7712177 L34.5806877,16.7712177 C34.1626008,16.7712177 33.9103108,16.572269 33.8238101,16.1743657 C33.7949765,16.0748898 33.7373102,15.5206756 33.6508095,14.5117064 L33.521059,13.0622085 C33.3048072,13.0053652 33.0957669,12.9520754 32.8939319,12.9023375 C32.6920968,12.8525995 32.4974731,12.806415 32.3100549,12.7637825 C32.1226366,12.72115 31.9928875,12.6927288 31.9208035,12.6785179 C31.1278802,12.5648313 30.2989273,12.5079888 29.43392,12.5079888 C28.684247,12.5079888 27.876919,12.6927269 27.0119117,13.0622085 C26.2334051,13.3890577 25.5342014,13.9290613 24.9142795,14.6822355 C23.78977,16.1459515 23.2275237,18.1851756 23.2275237,20.7999691 C23.2275237,23.4005517 23.8186031,25.4681971 25.0007798,27.0029672 C26.1541228,28.4524722 27.7399457,29.1772139 29.7582961,29.1772139 C31.5892282,29.1772139 33.2255091,28.5661572 34.667188,27.3440255 C34.8978566,27.1166521 35.1933963,27.0029672 35.553816,27.0029672 C35.8709854,27.0029672 36.1088588,27.1166521 36.2674435,27.3440255 L37.3270721,28.7935233 C35.4673064,31.0530459 32.6921163,32.1827903 29.0014185,32.1827903 C26.1468944,32.1827903 23.8114097,31.1809415 21.9948944,29.1772139 C20.0774616,27.0740105 19.1187595,24.2816234 19.1187595,20.7999691 Z M39.5977049,31.8843643 L39.5977049,30.0085436 C39.5977049,29.8095919 39.6625795,29.6319591 39.7923306,29.4756399 C39.9220817,29.3193208 40.080664,29.2198464 40.2680822,29.1772139 L42.8414661,28.6869426 L42.8414661,12.9343117 C41.3853704,12.6785167 40.5275844,12.5221998 40.2680822,12.4653565 C40.080664,12.422724 39.9220817,12.3232496 39.7923306,12.1669305 C39.6625795,12.0106113 39.5977049,11.8329785 39.5977049,11.6340268 L39.5977049,9.80083841 L46.7339794,9.80083841 L46.7339794,28.6869426 C48.1612415,28.9569484 49.0046109,29.1203706 49.2641131,29.1772139 C49.4515314,29.2198464 49.6101137,29.3193208 49.7398648,29.4756399 C49.8696159,29.6319591 49.9344904,29.8095919 49.9344904,30.0085436 L49.9344904,31.8843643 L39.5977049,31.8843643 Z M41.9980882,2.85177524 C41.9980882,2.41123938 42.070171,2.04886855 42.2143389,1.76465187 C42.4161739,1.36674851 42.6252142,1.06122016 42.8414661,0.848057645 C43.0865515,0.606473464 43.3820912,0.40041946 43.7280941,0.22988945 C44.0164299,0.087781108 44.3696359,0.0167280029 44.7877227,0.0167280029 C45.2058096,0.0167280029 45.5590156,0.087781108 45.8473514,0.22988945 C46.1933543,0.40041946 46.488894,0.606473464 46.7339794,0.848057645 C46.9502313,1.06122016 47.1592715,1.36674851 47.3611066,1.76465187 C47.534108,2.10571189 47.6206075,2.46808272 47.6206075,2.85177524 C47.6206075,3.2070461 47.534108,3.55520631 47.3611066,3.89626633 C47.1881051,4.23732635 46.9790648,4.52864408 46.7339794,4.77022826 C46.488894,5.01181245 46.1933543,5.21786645 45.8473514,5.38839646 C45.5590156,5.5305048 45.2058096,5.60155791 44.7877227,5.60155791 C44.3696359,5.60155791 44.0164299,5.5305048 43.7280941,5.38839646 C43.3820912,5.21786645 43.0865515,5.01181245 42.8414661,4.77022826 C42.5963807,4.52864408 42.3873404,4.23732635 42.2143389,3.89626633 C42.070171,3.61204965 41.9980882,3.26388944 41.9980882,2.85177524 Z M62.3879197,9.43853603 C62.3743805,9.43848798 62.3608349,9.43846395 62.3472831,9.43846395 L62.4337834,9.43846395 C62.4184792,9.43846395 62.4031913,9.43848798 62.3879197,9.43853603 L62.3879197,9.43853603 Z M62.3879197,9.43853603 C63.6706864,9.44308908 64.8969664,9.66332974 66.0667959,10.0992644 C67.2201389,10.5255895 68.1932575,11.1508568 68.9861809,11.9750852 C69.8944385,12.9272111 70.5503926,13.9645864 70.9540626,15.0872423 C71.4153999,16.3804282 71.646065,17.7730691 71.646065,19.2652066 C71.646065,19.918905 71.5883987,20.3239077 71.4730644,20.4802269 C71.3144798,20.6933894 71.0477732,20.7999691 70.6729367,20.7999691 L55.7948856,20.7999691 C55.7948856,22.1499983 55.9750927,23.3721117 56.3355124,24.4663459 C56.638265,25.3758393 57.1356367,26.2213713 57.8276425,27.0029672 C58.4619812,27.7135089 59.2044347,28.2321965 60.0550252,28.5590457 C60.9776996,28.9143166 61.9219851,29.0919493 62.8879099,29.0919493 C63.9403355,29.0919493 64.7981215,28.992475 65.4612938,28.7935233 C65.9658814,28.6372041 66.585794,28.3885183 67.3210502,28.0474582 C67.8256378,27.8058741 68.2653432,27.5713988 68.6401797,27.3440255 C69.0150162,27.1166521 69.3105559,27.0029672 69.5268077,27.0029672 C69.8583939,27.0029672 70.1106839,27.1308627 70.2836853,27.3866578 L71.3865641,28.8361556 C70.9684773,29.3619565 70.3773978,29.8522229 69.613308,30.3069696 C68.6618,30.8754029 67.9409714,31.2377738 67.4508006,31.394093 C66.470459,31.7067313 65.6703393,31.9127853 65.0504174,32.0122612 C64.1565765,32.1543695 63.3492485,32.2254226 62.628409,32.2254226 C61.0281455,32.2254226 59.5936966,31.9696314 58.3250193,31.4580414 C57.0563419,30.9464514 55.9174327,30.1719725 54.9082575,29.1345816 C53.9855831,28.1966666 53.2503379,26.9603425 52.7024999,25.4255725 C52.1690788,23.9476457 51.9023722,22.2565818 51.9023722,20.35233 C51.9023722,18.8317708 52.1546622,17.4107087 52.6592498,16.0891011 C53.2070877,14.6680177 53.8990832,13.5027467 54.7352569,12.5932534 C55.6290978,11.6269166 56.7391738,10.8524378 58.0655184,10.2697936 C59.322382,9.72073189 60.7631683,9.44364873 62.3879197,9.43853603 L62.3879197,9.43853603 Z M55.9678862,18.433877 L68.1644281,18.433877 C68.1644281,17.5954378 68.0274706,16.7854324 67.7535517,16.0038365 C67.4363823,15.108554 67.0831763,14.4477601 66.693923,14.0214351 C66.1893354,13.4814234 65.5838394,13.06221 64.8774168,12.7637825 C64.1709941,12.465355 63.3564578,12.3161435 62.4337834,12.3161435 L62.4770335,12.2735112 C60.5596007,12.2735112 59.0746938,12.8135148 58.0222682,13.8935382 C56.9121755,15.0304049 56.2273883,16.5438361 55.9678862,18.433877 Z M74.3059492,31.8843643 L74.3059492,30.0511758 C74.3059492,29.5822183 74.5077812,29.3051112 74.9114512,29.2198462 L77.4848351,28.750891 L77.4848351,12.976944 C75.9999059,12.7069381 75.1421199,12.5364107 74.9114512,12.4653565 C74.5077812,12.3800915 74.3059492,12.1029844 74.3059492,11.6340268 L74.3059492,9.80083841 L79.798718,9.80083841 C80.3321392,9.80083841 80.6853452,10.0637349 80.8583467,10.5895358 L81.2043479,12.976944 L81.2043479,12.9343117 C83.4101165,10.5753132 85.8897669,9.39583166 88.6433734,9.39583166 C91.0653939,9.39583166 92.9251317,10.1703105 94.2226426,11.7192914 C95.49132,13.2540615 96.1256491,15.2719697 96.1256491,17.7730765 L96.1256491,28.6443103 C97.4519937,28.8858945 98.2953631,29.0635272 98.6557828,29.1772139 C99.1315368,29.2766898 99.3694103,29.5537969 99.3694103,30.0085436 L99.3694103,31.8843643 L92.1898856,31.8843643 L92.1898856,17.8370249 C92.1898856,14.2843164 90.6256875,12.5079888 87.4972445,12.5079888 C85.2914759,12.5079888 83.2515309,13.5382588 81.3773485,15.5988298 L81.3773485,28.6869426 C81.4205988,28.6869426 82.2783849,28.8645753 83.9507323,29.2198462 C84.3976527,29.3051112 84.6211096,29.5822183 84.6211096,30.0511758 L84.6211096,31.8843643 L74.3059492,31.8843643 Z M101.402167,20.7999691 C101.402167,17.4320014 102.303203,14.7106674 104.105302,12.6358856 C106.008318,10.5042605 108.632134,9.43846395 111.976829,9.43846395 C113.649176,9.43846395 115.869328,9.96425692 118.637351,11.0158587 L118.637351,16.7712177 L116.864095,16.7712177 C116.446009,16.7712177 116.193719,16.572269 116.107218,16.1743657 C116.078384,16.0748898 116.020718,15.5206756 115.934217,14.5117064 L115.804467,13.0622085 C115.588215,13.0053652 115.379175,12.9520754 115.17734,12.9023375 C114.975505,12.8525995 114.780881,12.806415 114.593463,12.7637825 C114.406044,12.72115 114.276295,12.6927288 114.204211,12.6785179 C113.411288,12.5648313 112.582335,12.5079888 111.717328,12.5079888 C110.967655,12.5079888 110.160327,12.6927269 109.295319,13.0622085 C108.516813,13.3890577 107.817609,13.9290613 107.197687,14.6822355 C106.073178,16.1459515 105.510931,18.1851756 105.510931,20.7999691 C105.510931,23.4005517 106.102011,25.4681971 107.284187,27.0029672 C108.437531,28.4524722 110.023353,29.1772139 112.041704,29.1772139 C113.872636,29.1772139 115.508917,28.5661572 116.950596,27.3440255 C117.181264,27.1166521 117.476804,27.0029672 117.837224,27.0029672 C118.154393,27.0029672 118.392267,27.1166521 118.550851,27.3440255 L119.61048,28.7935233 C117.750714,31.0530459 114.975524,32.1827903 111.284826,32.1827903 C108.430302,32.1827903 106.094817,31.1809415 104.278302,29.1772139 C102.360869,27.0740105 101.402167,24.2816234 101.402167,20.7999691 Z M132.993787,9.43853603 C132.980248,9.43848798 132.966703,9.43846395 132.953151,9.43846395 L133.039651,9.43846395 C133.024347,9.43846395 133.009059,9.43848798 132.993787,9.43853603 L132.993787,9.43853603 Z M132.993787,9.43853603 C134.276554,9.44308908 135.502834,9.66332974 136.672663,10.0992644 C137.826007,10.5255895 138.799125,11.1508568 139.592048,11.9750852 C140.500306,12.9272111 141.15626,13.9645864 141.55993,15.0872423 C142.021267,16.3804282 142.251933,17.7730691 142.251933,19.2652066 C142.251933,19.918905 142.194266,20.3239077 142.078932,20.4802269 C141.920347,20.6933894 141.653641,20.7999691 141.278804,20.7999691 L126.400753,20.7999691 C126.400753,22.1499983 126.58096,23.3721117 126.94138,24.4663459 C127.244133,25.3758393 127.741504,26.2213713 128.43351,27.0029672 C129.067849,27.7135089 129.810302,28.2321965 130.660893,28.5590457 C131.583567,28.9143166 132.527853,29.0919493 133.493778,29.0919493 C134.546203,29.0919493 135.403989,28.992475 136.067161,28.7935233 C136.571749,28.6372041 137.191662,28.3885183 137.926918,28.0474582 C138.431505,27.8058741 138.871211,27.5713988 139.246047,27.3440255 C139.620884,27.1166521 139.916424,27.0029672 140.132675,27.0029672 C140.464261,27.0029672 140.716551,27.1308627 140.889553,27.3866578 L141.992432,28.8361556 C141.574345,29.3619565 140.983265,29.8522229 140.219176,30.3069696 C139.267668,30.8754029 138.546839,31.2377738 138.056668,31.394093 C137.076327,31.7067313 136.276207,31.9127853 135.656285,32.0122612 C134.762444,32.1543695 133.955116,32.2254226 133.234277,32.2254226 C131.634013,32.2254226 130.199564,31.9696314 128.930887,31.4580414 C127.662209,30.9464514 126.5233,30.1719725 125.514125,29.1345816 C124.591451,28.1966666 123.856205,26.9603425 123.308368,25.4255725 C122.774946,23.9476457 122.50824,22.2565818 122.50824,20.35233 C122.50824,18.8317708 122.76053,17.4107087 123.265117,16.0891011 C123.812955,14.6680177 124.504951,13.5027467 125.341125,12.5932534 C126.234965,11.6269166 127.345041,10.8524378 128.671386,10.2697936 C129.92825,9.72073189 131.369036,9.44364873 132.993787,9.43853603 L132.993787,9.43853603 Z M126.573754,18.433877 L138.770296,18.433877 C138.770296,17.5954378 138.633338,16.7854324 138.359419,16.0038365 C138.04225,15.108554 137.689044,14.4477601 137.299791,14.0214351 C136.795203,13.4814234 136.189707,13.06221 135.483284,12.7637825 C134.776862,12.465355 133.962325,12.3161435 133.039651,12.3161435 L133.082901,12.2735112 C131.165468,12.2735112 129.680561,12.8135148 128.628136,13.8935382 C127.518043,15.0304049 126.833256,16.5438361 126.573754,18.433877 Z" id="science" fill="#6EACC1"></path>
                <path d="M1,53.787828 L1,52.2104333 L4.54651219,52.2104333 L4.54651219,50.0788188 C4.54651219,47.5066578 5.23850764,45.5384868 6.62251932,44.1742468 C7.94886384,42.8100067 9.83022649,42.1278969 12.2666637,42.1278969 C13.0884206,42.1278969 14.0182895,42.2771084 15.0562983,42.5755359 L14.969798,44.5366212 C14.969798,44.7924162 14.8328406,44.9629437 14.5589216,45.0482087 C14.3859201,45.105052 14.0471307,45.1334733 13.5425431,45.1334733 L12.8721658,45.1334733 L12.9154159,45.1334733 C9.90230719,45.1334733 8.39577541,46.8103265 8.39577541,50.1640834 L8.39577541,52.2104333 L14.8616726,52.2104333 L14.8616726,55.0028482 L8.50390078,55.0028482 L8.50390078,70.6702146 C9.68607742,70.8407446 10.6736126,71.0041667 11.466536,71.1604859 C11.8990396,71.2457509 12.1152882,71.522858 12.1152882,71.9918156 L12.1152882,73.8676363 L1.15137552,73.8676363 L1.15137552,71.9918156 C1.15137552,71.522858 1.3676241,71.2457509 1.80012775,71.1604859 L4.54651219,70.6702146 L4.54651219,55.0881128 L2.08125372,54.7896868 C1.3604143,54.6191568 1,54.2852072 1,53.787828 Z M17.2404308,68.2828064 C17.2404308,67.3448913 17.4783042,66.4993594 17.9540583,65.7461852 C18.4730626,64.9361676 19.2731824,64.2114259 20.3544415,63.5719384 C21.5510349,62.8756075 22.963859,62.3498146 24.5929561,61.9945437 C26.366221,61.6108512 28.5214985,61.4190078 31.0588533,61.4190078 L31.0588533,59.7137162 C31.0588533,57.9799945 30.6768141,56.6726173 29.9127243,55.7915456 C29.1342178,54.896263 28.0241417,54.4486285 26.5824629,54.4486285 C25.6453717,54.4486285 24.8380436,54.5765241 24.1604546,54.8323191 C23.4828655,55.0881141 22.9206192,55.3510106 22.4736988,55.6210164 C21.6519419,56.1041848 21.2194447,56.3670813 21.1761943,56.4097138 C20.8734418,56.6370871 20.5346523,56.7507721 20.1598158,56.7507721 C19.8570633,56.7507721 19.6263981,56.6939296 19.4678135,56.580243 C19.2659784,56.4381346 19.1146044,56.2605019 19.0136869,56.0473393 L18.3000594,54.8323191 C19.4389857,53.7380849 20.7725186,52.8641317 22.3006982,52.2104333 C23.6414595,51.6277891 25.2344907,51.3364714 27.0798396,51.3364714 C28.3773506,51.3364714 29.4946349,51.5425254 30.4317261,51.9546396 C31.4120677,52.3809646 32.2266041,52.9351788 32.8753595,53.6172988 C33.5385318,54.3136297 34.0431118,55.1875829 34.3891147,56.2391846 C34.7062841,57.1913105 34.8648664,58.3210549 34.8648664,59.6284516 L34.8648664,70.6702146 C36.1623773,70.9402204 36.9048308,71.1036426 37.092249,71.1604859 L37.092249,71.0752213 C37.2796673,71.1178538 37.4346454,71.2173282 37.5571881,71.3736474 C37.6797308,71.5299665 37.7410012,71.7075993 37.7410012,71.906551 L37.7410012,73.7823717 L33.1348604,73.7823717 C32.8609414,73.7823717 32.5509851,73.7255292 32.2049822,73.6118425 C32.017564,73.5549992 31.8733983,73.320524 31.7724807,72.9084098 L31.3183542,70.8194276 C30.986768,71.0894334 30.3956886,71.5654892 29.5450981,72.2476093 C28.9684265,72.702356 28.3845554,73.0505162 27.7934671,73.2921004 C27.0437941,73.6047387 26.38784,73.8250034 25.8255853,73.9529009 C25.234497,74.0950092 24.4415855,74.1660623 23.4468271,74.1660623 C22.6106534,74.1660623 21.8105337,74.0381667 21.0464439,73.7823717 C20.152603,73.4839442 19.4894407,73.135784 19.056937,72.7378806 C18.5235159,72.2547123 18.0838104,71.6436556 17.7378075,70.9046922 C17.4062214,70.1941505 17.2404308,69.3201973 17.2404308,68.2828064 Z M20.9599436,68.1122772 C20.9599436,68.5670239 21.0680679,69.0572903 21.2843197,69.5830912 C21.4717379,70.0236271 21.7312362,70.3717873 22.0628224,70.6275823 C22.4088253,70.8833773 22.7980727,71.0752207 23.2305764,71.2031182 C23.7063304,71.3452265 24.1892856,71.4162796 24.6794564,71.4162796 C25.2705447,71.4162796 25.8904573,71.3452265 26.5392128,71.2031182 C27.0726339,71.0894315 27.6204637,70.8975881 28.1827184,70.6275823 C28.6008053,70.4286306 29.0909687,70.1088916 29.6532235,69.6683558 C29.9415592,69.4409824 30.3812647,69.0359797 30.972353,68.4533355 L30.972353,63.9129967 C29.0549201,63.9129967 27.5195552,64.0124711 26.3662122,64.2114227 C25.3137866,64.3961636 24.2830017,64.7016919 23.2738265,65.128017 C22.423236,65.4832878 21.8321566,65.9238171 21.5005704,66.4496179 C21.1401507,67.0038405 20.9599436,67.5580547 20.9599436,68.1122772 Z M40.2495099,73.8676363 L40.2495099,71.9918156 C40.2495099,71.7928639 40.3143844,71.6152311 40.4441355,71.4589119 C40.5738866,71.3025928 40.7324689,71.2031184 40.9198872,71.1604859 L43.493271,70.6702146 L43.493271,54.9175837 C42.0371754,54.6617887 41.1793894,54.5054718 40.9198872,54.4486285 C40.7324689,54.405996 40.5738866,54.3065216 40.4441355,54.1502025 C40.3143844,53.9938833 40.2495099,53.8162505 40.2495099,53.6172988 L40.2495099,51.7841104 L47.3857844,51.7841104 L47.3857844,70.6702146 C48.8130464,70.9402204 49.6564159,71.1036426 49.9159181,71.1604859 C50.1033363,71.2031184 50.2619186,71.3025928 50.3916697,71.4589119 C50.5214208,71.6152311 50.5862954,71.7928639 50.5862954,71.9918156 L50.5862954,73.8676363 L40.2495099,73.8676363 Z M42.6498931,44.8350472 C42.6498931,44.3945114 42.721976,44.0321405 42.8661439,43.7479239 C43.0679789,43.3500205 43.2770192,43.0444922 43.493271,42.8313296 C43.7383564,42.5897455 44.0338961,42.3836915 44.3798991,42.2131614 C44.6682348,42.0710531 45.0214408,42 45.4395277,42 C45.8576146,42 46.2108206,42.0710531 46.4991563,42.2131614 C46.8451593,42.3836915 47.140699,42.5897455 47.3857844,42.8313296 C47.6020362,43.0444922 47.8110765,43.3500205 48.0129115,43.7479239 C48.185913,44.0889839 48.2724124,44.4513547 48.2724124,44.8350472 C48.2724124,45.1903181 48.185913,45.5384783 48.0129115,45.8795383 C47.8399101,46.2205984 47.6308698,46.5119161 47.3857844,46.7535003 C47.140699,46.9950844 46.8451593,47.2011384 46.4991563,47.3716685 C46.2108206,47.5137768 45.8576146,47.5848299 45.4395277,47.5848299 C45.0214408,47.5848299 44.6682348,47.5137768 44.3798991,47.3716685 C44.0338961,47.2011384 43.7383564,46.9950844 43.493271,46.7535003 C43.2481856,46.5119161 43.0391453,46.2205984 42.8661439,45.8795383 C42.721976,45.5953216 42.6498931,45.2471614 42.6498931,44.8350472 Z M53.1813043,73.8676363 L53.1813043,72.0344478 C53.1813043,71.5654903 53.3975529,71.2883832 53.8300565,71.2031182 L56.3601902,70.734163 L56.3601902,54.960216 C54.9329282,54.7044209 54.0895587,54.5338935 53.8300565,54.4486285 C53.3975529,54.3633635 53.1813043,54.0862564 53.1813043,53.6172988 L53.1813043,51.7841104 L58.630823,51.7841104 C59.0344931,51.7841104 59.308408,51.8551635 59.4525758,51.9972719 C59.6111605,52.153591 59.7337014,52.4306981 59.8202021,52.8286015 L60.079703,56.2818169 L60.1229531,56.2818169 C61.766467,52.9849034 64.0442854,51.3364714 66.9564766,51.3364714 C68.1098197,51.3364714 69.126188,51.5993679 70.0056121,52.1251687 L69.5082354,55.0454805 C69.4073179,55.4291731 69.2199024,55.6210164 68.9459835,55.6210164 C68.7153148,55.6210164 68.3621088,55.5499633 67.8863548,55.407855 C67.3529337,55.2515358 66.7474376,55.1733774 66.0698486,55.1733774 C63.4748267,55.1733774 61.5502143,56.7223351 60.2959537,59.8202969 L60.2959537,70.734163 C60.3968713,70.7625847 60.5590577,70.7945586 60.7825179,70.8300857 C61.0059781,70.8656128 61.3123303,70.9189026 61.7015836,70.9899568 C62.0908369,71.0610109 62.4656677,71.132064 62.8260874,71.2031182 C63.2730079,71.2883832 63.4964647,71.5654903 63.4964647,72.0344478 L63.4964647,73.8676363 L53.1813043,73.8676363 Z" id="fair" fill="#CAAD4D"></path>
            </g>
        </g>
        <g id="left-board">
            <polyline id="bg" fill="#212127" fill-rule="nonzero" points="98.2 214.4 0.5 230.2 0.5 0.1 98.2 25.6"></polyline>
            <g id="txt-lines" transform="translate(3.000000, 20.000000)">
                <path d="M11.8,14.3 L80.8,26.3" id="Line_1_" stroke="#383838" stroke-width="4" stroke-linecap="square"></path>
                <path d="M12.3,41.8 L80.8,49.3" id="Line-Copy" stroke="#383838" stroke-width="4" stroke-linecap="square"></path>
                <path d="M12.3,67.8 L80.8,72.3" id="Line-Copy-2" stroke="#383838" stroke-width="4" stroke-linecap="square"></path>
                <path d="M12.3,95.3 L80.8,95.3" id="Line-Copy-3" stroke="#383838" stroke-width="4" stroke-linecap="square"></path>
                <rect id="path-13_1_" stroke="#212127" stroke-width="1.9195" fill="#212127" fill-rule="nonzero" x="0.3" y="0.8" width="11" height="110.5"></rect>
                <rect id="path-15_1_" stroke="#212127" stroke-width="1.8716" fill="#212127" fill-rule="nonzero" x="81.3" y="17.8" width="11" height="90.2"></rect>
            </g>
            <g id="bottom-plot" transform="translate(15.000000, 135.000000)" stroke="#383838">
                <polygon id="path-11_1_" stroke-width="4" points="0.3 3.5 69.3 0.8 69.3 60.8 0.3 71.8"></polygon>
                <circle id="Oval" fill="#383838" fill-rule="nonzero" cx="16.3" cy="27.8" r="4"></circle>
                <circle id="Oval-Copy" fill="#383838" fill-rule="nonzero" cx="35.3" cy="35.8" r="4"></circle>
                <circle id="Oval-Copy-2" fill="#383838" fill-rule="nonzero" cx="53.3" cy="23.8" r="4"></circle>
                <polyline id="Path-2" stroke-width="2" points="2.6 34.5 16.5 28.1 35.6 36.2 54.1 23.4 67.9 13.4"></polyline>
            </g>
        </g>
        <g id="right-board" transform="translate(352.000000, 0.000000)">
            <polyline id="Shape_1_" fill="#212127" fill-rule="nonzero" points="0.4 214.4 98.1 230.2 98.1 0.1 0.4 25.6"></polyline>
            <g id="txt-lines" transform="translate(2.000000, 13.000000)">
                <path d="M80.8,21.3 L11.8,33.3" id="Line_2_" stroke="#383838" stroke-width="4" stroke-linecap="square"></path>
                <path d="M81.3,48.8 L12.8,56.3" id="Line-Copy_1_" stroke="#383838" stroke-width="4" stroke-linecap="square"></path>
                <path d="M81.3,74.8 L12.8,79.3" id="Line-Copy-2_1_" stroke="#383838" stroke-width="4" stroke-linecap="square"></path>
                <path d="M81.3,102.3 L12.8,102.3" id="Line-Copy-3_1_" stroke="#383838" stroke-width="4" stroke-linecap="square"></path>
                <rect id="path-17_1_" stroke="#212127" stroke-width="2" fill="#212127" fill-rule="nonzero" x="81.3" y="0.8" width="11" height="120"></rect>
                <rect id="path-19_1_" stroke="#212127" stroke-width="2" fill="#212127" fill-rule="nonzero" x="0.3" y="24.8" width="11" height="103"></rect>
            </g>
            <g id="bottom-plot" transform="translate(18.000000, 135.000000)" stroke="#383838">
                <circle id="Oval-2" fill="#383838" fill-rule="nonzero" cx="30.3" cy="31.8" r="7"></circle>
                <path d="M29.7,29.9 L4.3,12.8" id="Line_3_" stroke-width="2" stroke-linecap="square"></path>
                <path d="M29.8,31.3 L59.7,11.7" id="Line_4_" stroke-width="2" stroke-linecap="square"></path>
                <path d="M30.3,30.3 L30.3,7.4" id="Line_5_" stroke-width="2" stroke-linecap="square"></path>
                <path d="M29.8,31.3 L8.4,39.3" id="Line_6_" stroke-width="2" stroke-linecap="square"></path>
                <path d="M29.8,31.3 L48.8,48.3" id="Line_7_" stroke-width="2" stroke-linecap="square"></path>
                <path d="M29.8,32.3 L22.4,66.5" id="Line_8_" stroke-width="2" stroke-linecap="square"></path>
                <circle id="Oval-3" fill="#383838" fill-rule="nonzero" cx="4.3" cy="12.8" r="4"></circle>
                <circle id="Oval-3-Copy" fill="#383838" fill-rule="nonzero" cx="30.3" cy="4.8" r="4"></circle>
                <circle id="Oval-3-Copy-2" fill="#383838" fill-rule="nonzero" cx="22.3" cy="67.8" r="4"></circle>
                <circle id="Oval-3-Copy-3" fill="#383838" fill-rule="nonzero" cx="7.3" cy="39.8" r="4"></circle>
                <circle id="Oval-3-Copy-4" fill="#383838" fill-rule="nonzero" cx="49.3" cy="48.8" r="4"></circle>
                <circle id="Oval-3-Copy-5" fill="#383838" fill-rule="nonzero" cx="59.3" cy="11.8" r="4"></circle>
            </g>
        </g>
    </g>
</svg>
